<?xml version="1.0" encoding="utf-8"?>
<!-- Generator: Adobe Illustrator 18.0.0, SVG Export Plug-In . SVG Version: 6.00 Build 0)  -->
<!DOCTYPE svg PUBLIC "-//W3C//DTD SVG 1.1//EN" "http://www.w3.org/Graphics/SVG/1.1/DTD/svg11.dtd">
<svg version="1.1" id="Layer_1" xmlns="http://www.w3.org/2000/svg" xmlns:xlink="http://www.w3.org/1999/xlink" x="0px" y="0px"
	 viewBox="0 0 300 303.9" enable-background="new 0 0 300 303.9" xml:space="preserve">
<path fill="#3BBEC0" d="M7.3,109.8c91.5-223.1,374-67.6,270.1,123.3C196.1,382.4-44.7,273.6,7.3,109.8z"/>
<g>
	<polygon fill="#FFFFFF" points="161.2,169.9 141.8,158.7 128.7,138.9 187.9,62.4 219.4,92.3 	"/>
	<g>
		<path fill="#C6E5E7" d="M227,57.9l-8.1-7.7c-6.9-6.5-18.9-4-26,5.5l-5,6.7l31.5,30l7.3-9.8C232.9,74.3,233,63.6,227,57.9z"/>
		<path fill="#C6E5E7" d="M181.2,71l7.8,10.2l-49,61.2l-11.3-3.5l-6.3,42c-0.3,2.3,2,4.2,4.2,3.3l34.7-14.2l-3.9-11.9l44.9-65.6
			l9.3,10.3l2.8-3.7l-32-29.5L181.2,71z M200.8,91.6l-46.6,64.7l-10.6-1.8l-1.7-7.7l48.5-64L200.8,91.6z"/>
	</g>
	<g>
		<path fill="#C6E5E7" d="M107.8,189.5c-5.5,4.3-14.1-0.9-18.2-4.9c-4.4-4.3-7.7-9.8-13.6-12.2c-13.9-5.6-22.9,8.5-35.3,10.7
			c-6.3,1.1-3.6,10.7,2.6,9.6c6.5-1.1,11.6-7,17-10.5c3-1.9,6.1-3.1,9.7-3.2c3.1-0.1,5.4,2.6,7.3,4.7c5,5.4,9.4,10.4,16.5,13.1
			c7.4,2.8,14.5,4.7,20.8-0.3C119.9,192.6,112.8,185.6,107.8,189.5L107.8,189.5z"/>
	</g>
	<path fill="#FFFFFF" d="M123.4,173.7l-1.1,7.2c-0.3,2.3,2,4.2,4.2,3.3l7.6-3.1L123.4,173.7z"/>
</g>
</svg>
