<?xml version="1.0" encoding="utf-8"?>
<!-- Generator: Adobe Illustrator 18.0.0, SVG Export Plug-In . SVG Version: 6.00 Build 0)  -->
<!DOCTYPE svg PUBLIC "-//W3C//DTD SVG 1.1//EN" "http://www.w3.org/Graphics/SVG/1.1/DTD/svg11.dtd">
<svg version="1.1" id="Layer_1" xmlns="http://www.w3.org/2000/svg" xmlns:xlink="http://www.w3.org/1999/xlink" x="0px" y="0px"
	 viewBox="0 0 304.5 292.6" enable-background="new 0 0 304.5 292.6" xml:space="preserve">
<path fill="#EE4F7E" d="M211.3,12.3c210.9,102.1,22.3,365.2-156.4,252.9C-85.1,177.6,70.5-55.9,211.3,12.3z"/>
<g>
	<path fill="#FFFFFF" d="M186.3,63.4l-9.5,10.1l40.2,34.1c0,0-24.6,30.2-32.4,43.2l11,7.3c22.5-21.9,48-52.7,48-52.7
		S218.8,82.3,186.3,63.4z"/>
	<path fill="#FFFFFF" d="M108.6,165.7l10.7-9.2l-40.5-36.8c0,0,24.8-28.6,32.6-41.5l-11-7.3C77.9,92.9,52.2,122,52.2,122
		S76.2,146.8,108.6,165.7z"/>
	<path fill="#FFFFFF" d="M121.4,180.7l18,1.1c21.9-67.3,38.3-147.9,38.3-147.9l-21.3,5.1C136.9,110.7,121.4,180.7,121.4,180.7z"/>
	<g>
		<path fill="#FCDCE5" d="M163.7,42.6l-4.8,0.2c-9.5,33.7-18,66.9-18,66.9l3.6,2.5C154.2,81.1,163.7,42.6,163.7,42.6 M163.7,42.6
			L163.7,42.6"/>
	</g>
</g>
</svg>
