<?xml version="1.0" encoding="utf-8"?>
<!-- Generator: Adobe Illustrator 18.0.0, SVG Export Plug-In . SVG Version: 6.00 Build 0)  -->
<!DOCTYPE svg PUBLIC "-//W3C//DTD SVG 1.1//EN" "http://www.w3.org/Graphics/SVG/1.1/DTD/svg11.dtd">
<svg version="1.1" id="Layer_1" xmlns="http://www.w3.org/2000/svg" xmlns:xlink="http://www.w3.org/1999/xlink" x="0px" y="0px"
	 viewBox="0 0 300 289.4" enable-background="new 0 0 300 289.4" xml:space="preserve">
<path fill="#A4CE42" d="M291.2,103.6C203.8-109.4-78.4,43.6,20.9,225.8C98.5,368.6,349.8,245.8,291.2,103.6z"/>
<g>
	<path fill="#FFFFFF" d="M149.3,47.7c-10.8-9.7-23-12.1-33.9-9.8L137,65.2l-8,16.7l-16.8,3.1L92.4,53c-11.6,16.4-10.3,35.5,9.7,49.7
		c8.8,6.2,18.8,6.6,28,3.3l41.9,68.2c5.9,9.6,18.8,12.2,27.9,5.5l0.1-0.1l2.6-1.9c9.1-6.6,10.7-19.6,3.4-28.2l-53-62.2
		C160.9,74.8,162.1,59.1,149.3,47.7z M188.4,171.7c-8.9-6.3,1.7-17.1,9-10.5C203.2,166.3,194.3,175.9,188.4,171.7z"/>
	<g>
		<polyline fill="#CAE5CB" points="146,96.2 140,101.5 177.7,156.7 189.2,148.5 146,97.5 		"/>
	</g>
</g>
</svg>
