<?xml version="1.0" encoding="utf-8"?>
<!-- Generator: Adobe Illustrator 18.0.0, SVG Export Plug-In . SVG Version: 6.00 Build 0)  -->
<!DOCTYPE svg PUBLIC "-//W3C//DTD SVG 1.1//EN" "http://www.w3.org/Graphics/SVG/1.1/DTD/svg11.dtd">
<svg version="1.1" id="Layer_1" xmlns="http://www.w3.org/2000/svg" xmlns:xlink="http://www.w3.org/1999/xlink" x="0px" y="0px"
	 viewBox="0 0 300 300.5" enable-background="new 0 0 300 300.5" xml:space="preserve">
<path fill="#9B5CA4" d="M9.1,102.1c89.1-216.7,370.4-48.6,269.3,136.6C199.4,383.8-50.5,246.8,9.1,102.1z"/>
<g>
	<path fill="#FFFFFF" d="M214.9,124.7c36-78.9-83.1-139.7-112.7-48.6c-6.3,19.3,2.1,40.4,14.5,54.2l-30.6,31.2
		c-23.5,23.5,12.6,53.4,31.1,24.5c4.5-7,20.3-39.4,20.3-39.4C163.8,157,201.5,154.2,214.9,124.7z M117.7,87.2
		c11-67.5,101.5-37.5,84.7,22C189.3,155.9,110.4,132.3,117.7,87.2z"/>
	<path fill="#B78BBF" d="M117.7,87.2c11-67.5,101.5-37.5,84.7,22C189.3,155.9,110.4,132.3,117.7,87.2z"/>
	<path fill="#CCAED2" d="M122.1,94.7c-0.2-40.5,37.8-47.6,60.2-31.2c2.3,1.7-22.2,61.2-56.5,45.7c-0.7-0.3-1.2-1-1.4-1.7
		C123.7,104.8,122.1,98.1,122.1,94.7z"/>
</g>
</svg>
