<?xml version="1.0" encoding="utf-8"?>
<!-- Generator: Adobe Illustrator 18.0.0, SVG Export Plug-In . SVG Version: 6.00 Build 0)  -->
<!DOCTYPE svg PUBLIC "-//W3C//DTD SVG 1.1//EN" "http://www.w3.org/Graphics/SVG/1.1/DTD/svg11.dtd">
<svg version="1.1" id="Layer_1" xmlns="http://www.w3.org/2000/svg" xmlns:xlink="http://www.w3.org/1999/xlink" x="0px" y="0px"
	 viewBox="0 0 300 281.3" enable-background="new 0 0 300 281.3" xml:space="preserve">
<path fill="#F8A126" d="M295.5,181C341.7-44.8,20.2-62.1,0.6,144.8C-14.8,306.5,264.4,331.9,295.5,181z"/>
<g>
	<g>
		<g>
			<g>
				<path fill="#FFFFFF" d="M182.1,181.9c0,0-2.4-6.3-5.4-18.4c-2.9-12.1,10.4-14.1,27.1-18.4c8.1-2,14.7-7.8,14.5-15.8
					c-0.1-4.3-1.4-5.3,1.3-8.3c7.1-7.8,18.7-8.9,19.7-21.2c2-26.6-25.6-53.3-49-61.6c-9.1-3.2-20.7-5.5-33.2-6.3
					c-4.1-0.3-8.4-0.4-12.6-0.3c-30,0.5-61.2,10.3-70.3,36.4c-3.8,10.9-2.9,34.7,5.5,43.7c9.9,10.5,27.1,5.5,27.1,5.5
					s0.8,10.7,9.8,12.1c8.8,1.4,15.3,1.2,22.6,7c7.5,5.9,13.1,14,19.4,21.1c3.3,3.7,11.4,21.2,10.2,26.9L182.1,181.9z"/>
			</g>
		</g>
		<g>
			<path fill="#FBE3B4" d="M148.5,84.4c-6,0.6-12.1,2.1-17.9,4.6c-2.9,1.2-5.7,2.7-8.3,4.3c-2.6-3.4-7.1-9.2-9.2-10.5c0,0,0,0,0,0
				c-0.5,0.1-11.7,7.1-15.2,14.2l4.2,1.8c1.2-2.5,2.7-4.9,4.5-7.1c0.8-1,4.9-5.1,5.9-5.2c0,0,0.1,0,0.1,0c2.3,0.3,5.5,5.1,7.4,8.2
				c-9.2,6.2-15.9,14.6-17.1,23.1l4.2-0.8c1.1-7.6,6.5-14.5,14.4-19.8c0,0,0,0,0,0l2.7-1.7c0,0,0,0,0,0c2.4-1.4,5-2.7,7.7-3.9
				c5.2-2.2,10.5-3.6,15.6-4.1c10.4-1,20.2,1.3,27.9,6.5l-1.6,8.3c-3.1-1.6-10.5-6.2-17.6-5.5c-0.3,0-0.7,0.1-1,0.1l0.6,4.5
				c0.4-0.1,0.8-0.1,1.2-0.2c8.2-0.8,16.9,4.3,17,4.3l1.5,0.9l5.6-14.5l-0.9-0.6C171.7,85.6,160.3,83.2,148.5,84.4z"/>
			<path fill="#FBE3B4" d="M101.1,73.1l-7.8-5.7c6.5-10.5,24.3-17.6,24.5-17.6l1.6-0.6l-6.6-13.1l-5.2,1.7l7.6,10
				c-4.9,2.1-19.5,9.1-25,19.3l-0.5,1l9,8.6L101.1,73.1z"/>
			<path fill="#FBE3B4" d="M236.6,82.2l-16,2c-0.7-2-2.3-6.3-4.8-10.8c-4.8-8.4-10.4-13.5-16.7-15l-0.8-0.2l-14.9,12.5l1.9,2.2
				l14.6-9.8c4.2,1.3,7.7,4.3,10.4,7.7l-8.8,7.7l2.7,4l8-9.1c4.1,6.2,6,12.7,6,12.8l0.3,1.2l1.2-0.1l18-1.8L236.6,82.2z"/>
			<path fill="#FBE3B4" d="M182,118l-0.9-0.3c-0.1,0-11.6-4.4-11.6-4.4s-2.1-0.8-2.7-0.8c0,0,0,0-0.1,0c-0.9,0.4-3.2,4.3-3.2,4.3
				c-0.6,0.6-3,4.2-5.3,5.1c-0.9,0.4-1.9,0.6-2.9,0.7c-3,0.3-6.6-0.6-10.3-2.4c-4.8-2.3-8.7-3.3-11.8-2.9c-0.8,0.1-1.5,0.2-2.1,0.5
				l-9.2-8.6l-4,3.3l10.5,7.1c-3.7,3.7-2.2,9-2.1,11l3.1,0.7c0,0-1.1-7.9,1.6-10c0.7-0.5,1.6-0.9,2.7-1c2.5-0.2,5.9,0.7,10.2,2.7
				c4,1.9,7.7,2.7,11,2.3c1.5-0.1,2.9-0.5,4.2-1.1c4.3-1.8,7.8-8.7,8.7-9c0,0,0.1,0,0.2,0c1.7-0.2,8,3.6,9.8,4.6
				c0.6,0.3,0.3,0.6,0.3,1c-0.3,1.5-3.4,6.9-4.1,8c-3.2,5.5-6.9,6.9-11.5,7.3c-0.6,0.1-1.2,0.1-1.8,0.1l0.4,4.9c0.3,0,0.6,0,0.8,0
				c7.9-0.8,12.1-6.5,14.5-10.8c0.3-0.5,1.7-3.1,3-5.6c0.8-1.4,1.3-2.6,1.7-3.5C182.1,119.7,183.2,118.7,182,118z"/>
			<path fill="#FBE3B4" d="M133.9,77.6c0-0.1,4.9-3.4,15-4.4c1.6-0.2,3.3-0.3,5.1-0.3l-0.2-4.8c-1.2,0-2.4,0.1-3.5,0.2
				c-8.9,0.9-14.3,4.7-16.7,6l-6.5-11.9c5.3-3.2,10.9-4.8,16.3-5.3c16.2-1.6,30.8,6.1,30.9,6.2l1.1,0.6l22.4-22.5l-5.1-2.3l-18,21.1
				c-3.8-1.8-16.8-7.5-31.4-6c-6.2,0.6-12.7,2.5-18.9,6.6l-1.1,0.7l9.4,17.1L133.9,77.6z"/>
			<path fill="#FBE3B4" d="M92.6,105.3c-0.1-0.2-13.1-12.7-6.3-25.1l-4.7-2.4c-3.4,6-2.8,13.1,1.5,20.5c2.3,3.8,5,6.8,6.4,8.2
				l-7,7.7l3.6,2.1c0,0,7.8-6.9,7.4-10C93.6,105.8,92.6,105.3,92.6,105.3z"/>
			<path fill="#FBE3B4" d="M200.6,105.3c-1.1,0.1-2.1,0-3.2-0.2c-5.1-1.2-5.7-5-6.2-11c-0.3-4-0.7-8.1-3.3-11.3
				c-6.2-7.7-18.2-12.1-22.9-12.7l0.1,5.2c4.3,0.5,15,2.5,20.5,9.3c2,2.5,2.4,6.1,2.7,9.7c0.5,5.5,1.1,11.8,8.4,13.6
				c1.7,0.4,3.3,0.5,5,0.3c6.5-0.6,13.3-5,18.1-9.5l-4-3.3C211.4,99.6,206.2,104.7,200.6,105.3z"/>
		</g>
	</g>
</g>
</svg>
