<?xml version="1.0" encoding="utf-8"?>
<!-- Generator: Adobe Illustrator 18.0.0, SVG Export Plug-In . SVG Version: 6.00 Build 0)  -->
<!DOCTYPE svg PUBLIC "-//W3C//DTD SVG 1.1//EN" "http://www.w3.org/Graphics/SVG/1.1/DTD/svg11.dtd">
<svg version="1.1" id="Layer_1" xmlns="http://www.w3.org/2000/svg" xmlns:xlink="http://www.w3.org/1999/xlink" x="0px" y="0px"
	 viewBox="0 0 412.7 193.9" enable-background="new 0 0 412.7 193.9" xml:space="preserve">
<polygon fill="#EE4F7E" points="0,192.5 3.6,1.7 408.2,0 412.7,193.9 "/>
<g>
	<g>
		<path fill="#FFFFFF" d="M77.1,108.7c-1.9,2-4.4,3.2-7.5,3.2c-2.2,0-4.2-0.6-5.8-1.5c0.1,0.7,0.1,1.5,0.1,2.3v8.8l-7.1,1.8V90.8
			c0-3.7-0.1-4.7-0.4-7.1l6.5-1.2c0.2,1,0.4,1.8,0.5,2.7c1.2-1.5,4.1-2.7,6.9-2.7c1.9,0,4,0.7,5.6,1.7c3,2,5.2,5.7,5.2,12.1
			C81,102.5,80,105.6,77.1,108.7z M72.3,91c-0.6-1.5-1.7-2.3-3.5-2.3s-3.6,0.8-4.8,2.2v13.6c1,0.8,2.6,1.7,4.1,1.7
			c3.6,0,5.1-2.4,5.1-8.8C73,94.5,72.8,92.4,72.3,91z"/>
		<path fill="#FFFFFF" d="M91.6,99.6v0.2c0,4.3,2.2,6.8,5.9,6.8c2.5,0,4.8-0.9,7.1-2.8l2.9,4.4c-3.2,2.7-6.6,3.9-10.6,3.9
			c-8.1,0-13.2-5.7-13.2-14.5c0-5.1,1.1-8.3,3.5-11.1c2.3-2.6,5.1-3.8,8.8-3.8c3.2,0,6.3,1.1,8.1,3c2.5,2.7,3.7,6.4,3.7,12.2v1.7
			H91.6L91.6,99.6L91.6,99.6z M100.2,93.9c0-2.1-0.2-3.2-0.9-4.2c-0.7-1.1-1.8-1.7-3.2-1.7c-2.8,0-4.4,2.2-4.4,6v0.1h8.5L100.2,93.9
			L100.2,93.9z"/>
		<path fill="#FFFFFF" d="M131.1,109.6c-1.9,1.6-3.9,2.2-6.1,2.2c-2.8,0-4.6-0.8-6.2-2.6c-0.2,1-0.2,1.2-0.8,2h-6.6
			c0.6-1.2,0.7-2.1,0.7-5.9v-26c0-3.4-0.1-5.3-0.5-6.9l7.5-1.8c0.2,1.9,0.2,3.1,0.2,5v6.6c0,0.8-0.1,2-0.1,2.5
			c1.4-1.6,3.4-2.2,5.9-2.2c6.9,0,11.1,5.4,11.1,14.2C136.3,102.5,134.5,106.9,131.1,109.6z M127.6,92.2c-0.6-2.4-2.1-3.6-4-3.6
			s-3.2,1.2-4.1,2.2v12.9c1,0.8,2.1,1.8,4.1,1.8c1.8,0,2.9-0.7,3.6-2.2c0.6-1.6,0.8-3,0.8-6.5C127.9,94.4,127.9,93.4,127.6,92.2z"/>
		<path fill="#FFFFFF" d="M159.7,109.6c-1.9,1.6-3.9,2.2-6.1,2.2c-2.8,0-4.6-0.8-6.2-2.6c-0.2,1-0.2,1.2-0.8,2H140
			c0.6-1.2,0.7-2.1,0.7-5.9v-26c0-3.4-0.1-5.3-0.5-6.9l7.5-1.8c0.2,1.9,0.2,3.1,0.2,5v6.6c0,0.8-0.1,2-0.1,2.5
			c1.4-1.6,3.4-2.2,5.9-2.2c6.9,0,11.1,5.4,11.1,14.2C164.9,102.5,163.2,106.9,159.7,109.6z M156.3,92.2c-0.6-2.4-2.1-3.6-4-3.6
			s-3.2,1.2-4.1,2.2v12.9c1,0.8,2.1,1.8,4.1,1.8c1.8,0,2.9-0.7,3.6-2.2c0.6-1.6,0.8-3,0.8-6.5C156.6,94.4,156.6,93.4,156.3,92.2z"/>
		<path fill="#FFFFFF" d="M176.5,111.9c-3.1,0-5.6-1.5-6.5-3.8c-0.6-1.4-0.6-2.3-0.6-6.3V80.9c0-3.7-0.1-5.9-0.4-8.4l7.5-1.7
			c0.2,1.6,0.4,3.3,0.4,7.3v21.8c0,4.8,0.1,5.4,0.5,6.2c0.2,0.5,0.9,0.8,1.5,0.8c0.2,0,0.4,0,0.8-0.1l1.2,4.4
			C179.7,111.6,178.1,111.9,176.5,111.9z"/>
		<path fill="#FFFFFF" d="M189.5,99.6v0.2c0,4.3,2.1,6.8,5.9,6.8c2.5,0,4.9-0.9,7.1-2.8l2.9,4.4c-3.2,2.7-6.6,3.9-10.6,3.9
			c-8.1,0-13.2-5.7-13.2-14.5c0-5.1,1.1-8.3,3.5-11.1c2.3-2.6,5.1-3.8,8.8-3.8c3.2,0,6.3,1.1,8.1,3c2.6,2.7,3.7,6.4,3.7,12.2v1.7
			H189.5L189.5,99.6L189.5,99.6z M198.1,93.9c0-2.1-0.2-3.2-0.9-4.2c-0.7-1.1-1.8-1.7-3.2-1.7c-2.8,0-4.4,2.2-4.4,6v0.1h8.5V93.9z"
			/>
		<path fill="#FFFFFF" d="M226.6,121.6c-3.9,0-7.1-2.3-7.1-8v-9.4c0-3.4-4.6-3.8-5.9-3.8v-6.2c1.4,0,5.9-0.4,5.9-3.8V81
			c0-5.7,3-8,7.1-8h5.8v6.2h-2.7c-3.4,0-3.6,2-3.6,3.5v8.8c0,5.1-3.1,5.4-5.4,5.7v0.1c2.3,0.2,5.4,0.6,5.4,5.7v8.8
			c0,1.5,0.2,3.5,3.6,3.5h2.7v6.2L226.6,121.6L226.6,121.6z"/>
		<path fill="#FFFFFF" d="M252,110.2c-2,1.2-4.1,1.8-6.9,1.8c-7.7,0-12.2-5.3-12.2-14.5c0-6.4,2.4-10.7,5.7-12.9
			c1.9-1.2,4.6-2.1,7-2.1c1.9,0,3.9,0.4,5.4,1.2c1,0.5,1.5,0.9,2.8,1.9l-3.5,4.8c-1.5-1.3-3-2.2-4.5-2.2c-3.3,0-4.8,2.8-4.8,9.4
			c0,3.7,0.5,5.8,1.4,7.1c0.8,1,2,1.6,3.3,1.6c1.7,0,3.2-0.7,5-2.3l0.5-0.4l3.4,4.4C253.4,109.2,252.9,109.6,252,110.2z"/>
		<path fill="#FFFFFF" d="M277.3,108c-2.1,2.4-5,3.9-9.2,3.9c-7.6,0-12.6-5.7-12.6-14.5s5-14.7,12.6-14.7c4,0,7.1,1.3,9.5,4.2
			c2.2,2.6,3.2,5.7,3.2,10.2C280.8,102,279.7,105.2,277.3,108z M271.4,89.6c-0.7-1-1.9-1.5-3.1-1.5c-1.8,0-3.1,1.1-3.8,2.8
			c-0.5,1.5-0.8,3.4-0.8,6.2c0,3.2,0.4,5.7,1,7.1c0.6,1.6,2.3,2.3,3.7,2.3c3.1,0,4.5-2.8,4.5-9.5C272.8,93.3,272.3,90.9,271.4,89.6z
			"/>
		<path fill="#FFFFFF" d="M302.3,111.3c-0.2-0.4-0.4-0.9-0.5-1.7c-1.8,1.6-4,2.3-6.5,2.3c-7.1,0-11.6-5.6-11.6-14.2
			c0-8.8,4.9-14.8,12-14.8c2,0,3.6,0.5,5,1.6c-0.1-0.6-0.2-2.5-0.2-4.2v-9.6l7.3,1.2V101c0,6.9,0.5,9.2,1,10.2L302.3,111.3
			L302.3,111.3L302.3,111.3z M300.7,90.6c-1.4-1.2-2.7-1.8-4-1.8c-3.3,0-4.7,2.8-4.7,8.9c0,6,1.2,8,5.1,8c1.4,0,2.9-0.9,3.6-1.8
			V90.6L300.7,90.6z"/>
		<path fill="#FFFFFF" d="M320.3,99.6v0.2c0,4.3,2.1,6.8,5.9,6.8c2.5,0,4.9-0.9,7.1-2.8l2.9,4.4c-3.2,2.7-6.6,3.9-10.5,3.9
			c-8,0-13.2-5.7-13.2-14.5c0-5.1,1-8.3,3.5-11.1c2.3-2.6,5.1-3.8,8.8-3.8c3.2,0,6.3,1.1,8.1,3c2.5,2.7,3.7,6.4,3.7,12.2v1.7H320.3
			L320.3,99.6L320.3,99.6z M328.9,93.9c0-2.1-0.2-3.2-0.9-4.2c-0.7-1.1-1.8-1.7-3.2-1.7c-2.8,0-4.4,2.2-4.4,6v0.1h8.5L328.9,93.9
			L328.9,93.9z"/>
		<path fill="#FFFFFF" d="M350.4,104.2v9.4c0,5.7-3,7.9-7,7.9h-5.8v-6.2h2.7c3.4,0,3.5-2,3.5-3.5v-8.8c0-5.1,3.1-5.4,5.5-5.7v-0.1
			c-2.3-0.2-5.5-0.5-5.5-5.7v-8.8c0-1.5-0.2-3.5-3.5-3.5h-2.7V73h5.9c3.7,0,6.9,2.3,6.9,8v9.4c0,3.4,4.4,3.8,5.9,3.8v6.2
			C354.8,100.4,350.4,100.8,350.4,104.2z"/>
	</g>
</g>
</svg>
