<?xml version="1.0" encoding="utf-8"?>
<!-- Generator: Adobe Illustrator 18.0.0, SVG Export Plug-In . SVG Version: 6.00 Build 0)  -->
<!DOCTYPE svg PUBLIC "-//W3C//DTD SVG 1.1//EN" "http://www.w3.org/Graphics/SVG/1.1/DTD/svg11.dtd">
<svg version="1.1"
	 id="svg2" inkscape:version="0.48.0 r9654" sodipodi:docname="2012May1_LBG_Q1_IMS.pdf" xmlns:sodipodi="http://sodipodi.sourceforge.net/DTD/sodipodi-0.dtd" xmlns:svg="http://www.w3.org/2000/svg" xmlns:cc="http://creativecommons.org/ns#" xmlns:dc="http://purl.org/dc/elements/1.1/" xmlns:inkscape="http://www.inkscape.org/namespaces/inkscape" xmlns:rdf="http://www.w3.org/1999/02/22-rdf-syntax-ns#"
	 xmlns="http://www.w3.org/2000/svg" xmlns:xlink="http://www.w3.org/1999/xlink" x="0px" y="0px" viewBox="254.5 -8.5 300 134.7"
	 enable-background="new 254.5 -8.5 300 134.7" xml:space="preserve">
<sodipodi:namedview  inkscape:pageshadow="2" inkscape:window-height="1058" inkscape:window-x="54" inkscape:window-y="-8" inkscape:window-maximized="1" fit-margin-right="5" inkscape:window-width="1858" inkscape:current-layer="g10" fit-margin-bottom="5" inkscape:pageopacity="0" id="namedview4" borderopacity="1" gridtolerance="10" inkscape:cx="14.306369" inkscape:cy="197.28782" fit-margin-left="5" bordercolor="#666666" showgrid="false" pagecolor="#ffffff" objecttolerance="10" inkscape:zoom="1" fit-margin-top="5" guidetolerance="10">
	</sodipodi:namedview>
<g>
	<path fill="#FFFFFF" d="M549.4,63.8c2.5,1.8,5.1,3.2,5.1,6.1c0,0.8-1.1,1.7-3.5,1.7c-1.8,0-3.8-0.5-4.8-1.8c-0.7-1,0.3-2.3-0.3-3.3
		c-0.5-0.8-1.7-0.4-2.4-0.8c-0.9-0.5-1-0.9-1.6-2.2c-0.7-1.5-2.9-4-5.6-6.7c-2.2-2.2-4.7-3.4-5.8-3.3c-0.8,0.1-1,0.1-1.8,0.1
		c-1.9,0-3.6,1.8-6.3,3c-1.9,0.8-3,1.3-4.3,1.5l-0.4,0.5l2.5-0.1c2.3,0,5.4-0.3,7.8-0.3c2.4,0,3.6,2.2,4.5,4.4
		c1.8,4.6,4.6,11.2,7.8,16.7c1.6,2.6,2.9,4.3,2.9,7.4c0,1-0.1,2.3-1.4,2.3c-1.8,0-6.5-1.9-6.5-4c0-1.6,1.2-2.3,1.2-3.8
		c0-1-1.5-0.8-1.8-1.8c-1.2-4.9-2.6-9.8-5.3-12.7c-1.4-1.5-1.6-2.2-3-2.2c-0.8,0-1.5,0.2-2.2,0.4c-3.8,1.4-8.9,5.7-15.3,7.6
		c-1.3,0.4-2,0.2-2.8,0c-0.7-0.2-1.4-0.4-2.6-0.1h0.2c-2,0.4-3.6,1.6-6.3,2.3c-3.8,1.1-10.4,1.6-15.7,0.9c-3.8-0.5-8.6-1.3-10.7-1.2
		c-1.6,4.6-5,10.6-10,12.9c-2.7,1.2-3.5,2.8-2.7,5.8c1,3.7,4.3,6.5,6.1,9.7c1.6,2.7,4.2,7.1,6.9,8.5c2.8,1.4,4.4,3.5,4.4,5.2
		c0,0.8-0.3,1.3-1.2,1.3h-5.5c-0.8,0-1.3-0.5-1.4-0.8c-0.8-1.4-0.2-2.7-1.2-4c-0.8-0.9-1.3-0.7-2.3-1.4c-1.7-1.6-0.4-2.5-1.7-4.5
		c-3.5-5.5-5-6.8-7.9-10.8c-1.7-2.1-3.7-3.1-3.7-5.8c0-3.3,3.3-3.9,3.3-7.3c-2.2,1.6-4.7,2.8-8.5,3.3c-0.5,0.1-1.8,1.1-2.4,1.8
		c-1.3,1.3-1.8,2.7-2,4.7c-0.4,4.5-1.3,9.1-0.8,13.6c0.8,2.9,1.3,3.9,3.7,5.5c1.5,1,3.3,2.4,3.4,4.5c0,0.6-0.2,1.3-1,1.3h-5.9
		c-0.6,0-1.1-0.4-1.2-0.8c-0.7-1.2-0.2-2-0.5-3.3c-0.6-2.7-3.7-2.6-3.7-5.4c0-0.8,0.5-1.9,0.6-3.7c0.2-3.8,1.3-10,0.2-17.5
		c-0.5-4.4,4-4.5,6.3-8.4c1.4-2.2,1-1.3,1.8-2.8c0.8-1.7,0.7-2.8,0.6-3.8c0-1.3-1.3-3.9-0.4-9.4c0.3-2.4,1.5-4.8,3.1-6.9
		c0-0.1,0-0.4-0.5-0.4c-2.3,0.2-2.3-0.4-3.9-0.4c-1.5,0-2.7,1.3-2.9,1.9c-0.8-0.3-1.1-1.2-1.1-1.7c0-0.8,0.2-1.6,1-2.4
		c0.3-0.3,0-0.5-0.4-0.5c-1.8,0-3.6,2.3-4,3.8c-1.1-0.2-1.2-1.6-1.7-1.6c-0.5,0-0.8,0.8-0.8,1.5c0,5.3,8.7,6.5,8.7,13.5
		c0,8.1-9.8,6.4-9.8,9.3c0,0.6,0.4,1.1,1.2,1.4c-0.3,0.8-1.2,1.1-2.1,1.1c-2.2,0-3.8-1.6-3.8-3.8c0-4.4,5.9-4.5,5.9-7.8
		c0-1.6-1-2.1-1.9-2.8c-5.7-4-8.8-8-8.8-14.6c0-7.1,4.9-12.5,11.3-12.5c9.3,0,9.6,10.8,18.1,11.7c3.2-2.2,6.9-3.4,10.6-3.4
		c5.5,0,7.9,1.4,13.8,1.4c2.3,0,6.3-0.7,10.9-3.8c1.8-1.2,2.5-1.4,4.1-2.8c3.7-3.2,7.1-9.3,7.1-13.8v0.2c0-1.4-0.3-2.3-1-2.3
		c-2,0-3.8,1.8-5.8,3.8c-1.3,1.3,0.7,1.9-2.2,3.5c-1,0.5-2.2-0.4-3.3-0.4c-2.3,0-3.3-2.7-3.3-5c0-1.2,0.9-1.5,1.4-2.6
		c1.2-2.3,1.1-3.1,2.2-5.3c0.7-1.5,1.8-2.5,1.8-3.6c0-0.4-0.3-0.7-0.3-1.1c0-2.3,3-3.8,3-6c0-1.3-1.4-1.8-1.8-2.8
		c-0.3-1-0.1-1.3-0.1-1.3c0.1-0.2,0.3-0.3,0.4-0.3c1.2,0,1.7,1.3,2.7,1.9c0.1-1.5-0.4-1.8-0.4-2.9c0-0.6-0.1-1.5,0.5-1.5
		c0.8,0,0.7,1,1.3,1.5c0.8,0.7,1.6,0.6,2.5,1.2c1.2,0.8,1.8,2,2.3,2.1c1.2,0.2,1.5-1.3,0.9-2.1c1.3-0.1,2.7,1,4.4,1
		c2.8,0,3.7,0.7,4.2,1.2c1.8,1.5,2.1,2.7,4,2.7c1,0,1.5-0.8,1.8-1.2c1.3,1,1.4,3.5,0,5.6c0.6,1.8,3.1,1.9,4.2,2.8
		c1.2,0.8,1,1.3,1.8,1.7c0.7,0.4,1.3,0.3,1.8,0c0.6,2.3-1.4,4.4-3.8,4.8c0.1,3,3.3,4.8,4.7,5.6c-0.8,1.8-2.3,2.4-3.7,2.8
		c0.4,1.8,2.4,4.5,1.4,6.9c-0.9-0.4-2.2,0-2.2,1.3c0,1.5,1.9,2.3-0.1,3.3c-0.9,0.5-1.1,1.8,0.6,3.1c2.2-0.6,4.3-0.5,6.7-0.5
		c1.5,0,3.5-0.4,4.8-0.4c2.5,0,4,1,5.8,3C540.5,55,544.6,60.2,549.4,63.8"/>
	<path fill="#E1E3E6" d="M434,41.3c-4,0-8.2,3.6-8.7,7.9c-0.1,0.7-0.1,1.3,0.3,1.3c1,0,2.8-5.5,6.6-5.5c1.1,0,1.3,0.4,1.3,0.8
		c0,0.8-1.2,1.4-1.2,2.4c0,0.2,0.1,0.4,0.4,0.4c0.9,0,1.6-2,5.3-2c1,0,1.8,0.1,2.7,0.3c0.2,0,0.5,0.1,0.7,0.1c0.3,0,0.4-0.2,0.3-0.8
		C440.8,43.7,438,41.3,434,41.3"/>
	<path fill="#E1E3E6" d="M493.3,11.5c-0.5,0-1.2,0.3-1.8,1c-0.7,0.9-1.8,2-2.1,2.9c-0.3,1.2,1.1,1,0.1,2.9c-1.8,3.2-2.2,3.8-3,6.1
		c-0.8,2.3-1.3,2.7-1.7,3.4c-0.3,0.4,0,0.6,0.6,0.6c0.4,0,0.9-0.1,1.4-0.3c0.2-0.1,0.3-0.1,0.5-0.1c1,0,1,1.4,0.5,2.4
		c-0.2,0.5-0.2,0.8,0,0.8c0.2,0,0.5-0.2,1-0.6c1.1-0.8-0.6-1.5-0.2-4.2c0.4-2.4,0.9-3.8,2.4-6.2c1-1.7,1.9-3,3.4-3
		c0.3,0,0.7,0.1,1.1,0.2c0.1,0.1,0.2,0.1,0.2,0.1c0.5,0,0-1.2-1-1.7c-1.1-0.4-1.3-1-0.9-2.3c0.2-1.4,0.3-2-0.3-2.2
		C493.5,11.6,493.4,11.5,493.3,11.5"/>
	<path fill="#E1E3E6" d="M541.2,86.9c0.4,0,0.5-0.6,0.5-1.1c0-1.2-0.7-2.9-1.6-3.7c-0.2,1.8-1.1,2.9-1.1,3.7
		C539,86.4,540.6,86.9,541.2,86.9"/>
	<path fill="#E1E3E6" d="M551.6,70.1c0.7,0,1.7-0.3,1.7-0.8c0-1-1.5-2.7-2.8-3.2C551.3,68,550.4,70.1,551.6,70.1"/>
	<path fill="#E1E3E6" d="M503.4,13.7c-0.3,0-0.5,0.1-0.5,0.2c0,0.2,1.3,0.7,2.9,1.7c8.2,5.4,5.7,20.2-1.8,27.4
		c-2.5,2.4-1.3,3,1.8,4.4c8.4,3.9,8.8,10.6,9.4,10.6c0.1,0,0.1-0.1,0.2-0.3c0.3-0.8,1.6-4.7-1.8-8.5c-2.6-3-3.6-2.3-2.6-4.8
		c4.1-9.9,6.7-24.9-5.6-30.2C504.7,13.8,503.9,13.7,503.4,13.7"/>
	<path fill="#E1E3E6" d="M473.6,116.5c0.7,0,0.3-1,0.1-1.4c-0.6-1-1.7-1.7-2.6-2.1c0.2,1,0.3,3.5,1.3,3.5H473.6"/>
	<path fill="#FFFFFF" d="M445.1,116.5c0.7,0,0.2-1-0.1-1.4c-0.6-1-1.8-1.6-2.7-2c0.3,1,0.4,3.4,1.4,3.4H445.1"/>
	<rect x="257.3" y="121.6" fill="#FFFFFF" width="263.7" height="4.6"/>
	<path fill="#E1E3E6" d="M491.8,45.8c0,0-0.1,0-0.2,0c-0.6,0.4-2.3,1.6-3.1,2.2c-3.7,2.6-9.3,3.8-11.5,3.8c-4.8,0-8.8-1.4-13.2-1.4
		c-13,0-17.9,10.2-17.2,16.1c0.1,0.9,0.2,1,0.6,1c0.9,0,1.7-3.5,4.9-6.6c4.8-4.5,9.9-7.1,17.3-7.1c5.3,0,7.5,1.7,7.5,2.4
		c0,1.3-2.3,1.4-2.1,2.8c0,0.3,0.9,1.1,3.2,1.1c0.5,0,1,0,1.5-0.1c5.2-0.6,6-1.7,6.9-5.7c0.4-1.8,1.7-3.8,2.9-5
		c0.8-0.8,1.5-1.5,2.3-2.8C491.9,46.2,492,45.8,491.8,45.8"/>
	<path fill="#FFFFFF" d="M287.4,34.6l3.1,8.1h-6.3L287.4,34.6z M264.4,33.4c1.5,0,3.3,0.7,3.3,2.7c0,1.7-1.3,2.9-3.2,2.9h-4.4v-5.5
		H264.4z M288.2,70.7c2.2,0,3.7,0.9,3.7,3.2c0,2.1-1.4,3.3-3.5,3.2h-3.6v-6.4H288.2z M364.2,70.8c2.4,0,3.8,1.4,3.8,3.5
		c0,2.1-1.5,3.5-4.1,3.5h-3v-6.9H364.2z M265,43c2,0,3.4,1.2,3.4,2.9c0,2.5-2.3,3.1-4.2,3.1h-4.1v-6H265z M355.4,53.4h4.7V29.1h-4.7
		V53.4z M352-3.7c4.4,0,7.6,3.3,7.6,7.7c0,4.5-3.2,7.7-7.6,7.7h-3.2V-3.7H352z M255.5-8.2v24.2H271v-4.5h-10.8V-8.2H255.5z
		 M275.1-8.2v24.2h15.5v-4.5h-10.8V-8.2H275.1z M335.9-8.2l-6.2,10.5l-6.5-10.5h-5.5l9.4,14.6l-5.9,9.7h5.3l14.6-24.2H335.9z
		 M304.4-4c4.3,0,7.8,3.5,7.8,7.9c0,4.6-3.5,8.1-7.8,8.1c-4.3,0-7.8-3.5-7.8-8.1C296.6-0.5,300.1-4,304.4-4 M313.3,70.5
		c4.3,0,7.8,3.5,7.8,7.9c0,4.6-3.5,8.1-7.8,8.1c-4.3,0-7.8-3.5-7.8-8.1C305.5,74,309.1,70.5,313.3,70.5 M368.4-1.5
		c0,3.3,2.1,5.6,6.5,7c2.7,0.9,4.9,1.6,4.9,3.7c0,2-2,2.9-3.9,2.9c-2.4,0-4.9-1-7.1-2.3v4.7c1.6,0.9,4.3,1.9,7.2,1.9
		c4.1,0,8.4-2.6,8.4-7.3c0-4.6-3.6-6.4-6.7-7.3c-4.1-1.3-4.8-2.1-4.8-3.3c0-1.7,1.5-2.5,3.9-2.5c2.2,0,4.2,0.7,6,1.5V-7
		c-2-1-4.1-1.3-6.1-1.3C371.8-8.4,368.4-5.7,368.4-1.5 M393.6,41.2c0,7.4,5.9,12.4,13,12.4c2.1,0,4.3-0.4,6.4-1V40.2h-4.5v8.9
		c-0.4,0.1-1.3,0.2-1.9,0.2c-4.9,0-8.3-3.5-8.3-8.1c0-4.8,3.5-7.9,8.5-7.9c2.1,0,3.9,0.4,5.6,1v-4.5c-1.4-0.5-3.5-0.9-5.7-0.9
		C399.4,28.9,393.6,33.8,393.6,41.2 M254.5,78.5c0,7.4,5.9,12.4,13,12.4c2.1,0,4.3-0.4,6.4-1V77.5h-4.5v8.9
		c-0.4,0.1-1.3,0.2-1.9,0.2c-4.9,0-8.3-3.4-8.3-8.1c0-4.8,3.5-7.9,8.5-7.9c2.1,0,3.9,0.4,5.6,1v-4.5c-1.4-0.5-3.5-0.9-5.7-0.9
		C260.3,66.1,254.5,71.1,254.5,78.5 M345.6,66.4v15.3c0,2.9-2,4.9-4.9,4.9c-2.9,0-5-2-5-4.9V66.4h-4.6v15.4c0,5.5,4.1,9.2,9.6,9.2
		c5.5,0,9.6-3.7,9.6-9.2V66.4H345.6z M336.5,29.1h-4.6v24.3h4.6V41.9l9.9,11.4h6.1l-10.8-12.3l10.2-12h-5.6l-9.7,11.5V29.1z
		 M356.4,66.4v24.2h4.5v-8.4h3.2c4.8,0,8.6-3.1,8.6-8c0-4.7-3.6-7.9-8.3-7.9H356.4z M294.6,53.4h5.1l-10-24.4h-4.4l-10,24.4h4.9
		l2.5-6.4h9.5L294.6,53.4z M384,29.1V45l-12.8-15.9h-3.9v24.3h4.6V36.6l13.3,16.7h3.3V29.1H384z M320.3,29.1V45l-12.8-15.9h-3.9
		v24.3h4.6V36.6l13.3,16.7h3.3V29.1H320.3z M280.2,66.4v24.2h4.6v-9.2h2.9l5.1,9.2h5.3l-5.9-10c2.7-1.2,4.4-3.7,4.4-6.7
		c0-4.8-3.5-7.5-8.2-7.5H280.2z M255.5,29.1v24.3h8.9c5.4,0,8.6-2.7,8.6-7.2c0-2.4-1.3-4.3-3.5-5.7c1.4-0.9,2.7-2.6,2.7-4.7
		c0-4.1-3-6.7-7.5-6.7H255.5z M344.2-8.2v24.2h7.8c7,0,12.4-5.3,12.4-12.2c0-6.7-5.5-12.1-12.4-12.1H344.2z M291.8,3.9
		c0,7,5.6,12.5,12.6,12.5c6.9,0,12.6-5.5,12.6-12.5c0-6.8-5.7-12.4-12.6-12.4C297.6-8.4,291.8-2.9,291.8,3.9 M300.8,78.4
		c0,7,5.6,12.5,12.6,12.5c6.9,0,12.6-5.5,12.6-12.5c0-6.8-5.7-12.4-12.6-12.4C306.5,66.1,300.8,71.6,300.8,78.4"/>
</g>
</svg>
