<?xml version="1.0" encoding="utf-8"?>
<!-- Generator: Adobe Illustrator 18.0.0, SVG Export Plug-In . SVG Version: 6.00 Build 0)  -->
<!DOCTYPE svg PUBLIC "-//W3C//DTD SVG 1.1//EN" "http://www.w3.org/Graphics/SVG/1.1/DTD/svg11.dtd">
<svg version="1.1" id="Layer_1" xmlns="http://www.w3.org/2000/svg" xmlns:xlink="http://www.w3.org/1999/xlink" x="0px" y="0px"
	 viewBox="0 0 300 48" enable-background="new 0 0 300 48" xml:space="preserve">
<g id="_x35_Kumbn.tif">
	<g>
		<path fill="#FFFFFF" d="M300,47.2c-2.2,0-4.3,0.1-6.4,0c-0.5,0-1.1-0.6-1.5-1.1c-7-9.6-14-19.2-21-28.8c-0.5-0.7-1-1.4-1.6-2
			c-0.2,0-0.3,0.1-0.5,0.1c0,5.3,0,10.6,0,15.9c0,5.3,0,10.5,0,15.9c-2.1,0-4.5,0-7.1,0c0.8-15.4,0.9-30.8,0-46.4
			c2.2,0,4.5-0.1,6.7,0.1c0.4,0,0.9,0.6,1.2,1.1c7.2,9.6,14.4,19.3,21.6,28.9c0.3,0.4,0.6,0.8,1.1,1.4c0-10.6,0-20.9,0-31.3
			c2.4,0,4.9,0,7.5,0C299.1,16.2,298.5,31.6,300,47.2z"/>
		<path fill="#FFFFFF" d="M229,0c14,0.4,24.6,12.8,22.6,26.6c-1.4,9.8-6.5,16.9-16,20.2c-10.9,3.8-22.7-1.8-27.4-12.6
			c-5.7-13.3,0.4-28.1,13.6-32.6C224.1,0.8,226.6,0.5,229,0z M243.1,23.7c-0.1-4.6-1.3-8.7-4.1-12.3c-5.4-6.9-15.6-6.6-20.6,0.7
			c-4.9,7.1-4.6,18.2,0.8,24.9c5.1,6.5,14.6,6.5,19.7,0C241.9,33.1,242.9,28.5,243.1,23.7z"/>
		<path fill="#FFFFFF" d="M161.5,47.2c-3.5,0-6.7,0-9.9,0c-0.4,0-0.9-0.4-1.2-0.7c-4.2-6-8.6-12-12.6-18.2c-0.9-1.4-0.6-3.7-0.9-5.6
			c1.4-0.2,2.4-0.3,3.3-0.5c4.2-0.8,6.4-3.7,6.5-8.2c0.1-3.6-2.3-6.4-6.2-7.3c-0.8-0.2-1.7-0.3-2.6-0.3c-1.2-0.1-2.3,0-4,0
			c0.3,13.6,0.5,27.2,0.8,40.8c-3,0-5.9,0-8.8,0c0-15.5,0-31,0-46.6c0.8,0,1.7,0.1,2.7,0.1c4.2,0,8.5-0.1,12.7,0
			c1.7,0,3.4,0.4,5,0.9c5.6,1.7,8.5,5.4,8.7,11c0.2,5.8-3,10.7-8.1,12.7c-0.5,0.2-0.9,0.3-1.6,0.6C150.8,33,156.1,40,161.5,47.2z"/>
		<path fill="#FFFFFF" d="M116.1,47.2c-3.1,0-5.9,0-8.8-0.1c-0.4,0-0.9-0.7-1.1-1.2c-1.2-3.5-2.4-7.1-3.5-10.6
			c-0.3-0.9-0.8-1.3-1.8-1.3c-4.5,0-8.9,0-13.4,0c-1,0-1.5,0.4-1.8,1.4c-1,3.5-2.1,7.1-3.1,10.6c-0.3,0.9-0.7,1.3-1.7,1.2
			c-2.1-0.1-4.3,0-6.7,0c0.2-0.5,0.3-1,0.5-1.5c5.7-14.4,11.3-29,15.7-43.9c0.3-0.9,0.6-1.1,1.5-1.1c1.9,0.1,3.9,0.1,5.8,0
			c0.8,0,1.2,0.2,1.4,1c5.4,14.8,10.9,29.6,16.4,44.5C115.8,46.4,115.9,46.7,116.1,47.2z M93.9,10.5c-2,5.9-3.8,11.4-5.7,17.2
			c4,0,7.8,0,11.8,0C97.9,21.9,95.9,16.4,93.9,10.5z"/>
		<path fill="#FFFFFF" d="M0,0.1c6.8,0.3,13.5,0.1,20,1c5.5,0.7,9.5,4,10.7,9.8c1.2,6.1-0.8,11-5.8,14.6c-3.9,2.8-8.3,4-13.2,4
			c0-1.7,0-3.3,0-5.1c1.3-0.3,2.6-0.4,3.8-0.8c5.4-1.5,8.1-5.6,7.2-10.8c-0.6-3.5-3.3-6.1-7.5-6.7c-2.2-0.3-4.5-0.1-7-0.1
			c0.3,13.7,0.5,27.3,0.8,41c-2.9,0-5.9,0-9,0C0.7,31.6,1,16.1,0,0.1z"/>
		<path fill="#FFFFFF" d="M49.6,41.3c4.8-0.2,9.5-0.3,14.2-0.5c2.3-0.1,2.4-0.1,2.2,2.2c-0.1,1.1-0.2,2.2-0.2,3.4
			c0,0.9-0.4,1.2-1.3,1.1c-6.6-0.1-13.3-0.2-19.9-0.2c-1.2,0-2.3,0.2-3.6,0.3c0.9-15.7,0.6-31.2,0-46.8c8.2,0,16.3,0,24.5,0
			c0,2.1,0,4.3,0,6.5c-5.2-0.2-10.4-0.5-15.9-0.7c0,1.9,0,3.5,0,5.1c0,2.3,0.1,4.5,0,6.8c-0.1,1.3,0.5,1.7,1.7,1.7
			c3.6-0.1,7.2-0.3,10.7-0.4c0.9,0,1.7-0.1,2.7-0.2c0,2.3,0,4.4,0,6.7c-1.6-0.1-3.1-0.2-4.6-0.2c-3-0.1-6-0.1-9.1-0.2
			c-0.8,0-1.4,0.1-1.4,1.1C49.6,31.6,49.6,36.3,49.6,41.3z"/>
		<path fill="#FFFFFF" d="M171,35.8c2.1,1.4,4.1,2.9,6.3,4.1c1.8,1,3.8,1.4,5.9,1.1c4.8-0.7,6.9-5.7,4-9.6c-1-1.4-2.4-2.5-3.7-3.6
			c-1.7-1.4-3.6-2.5-5.4-3.8c-1.5-1.1-3.1-2.3-4.4-3.6c-6.1-6-4.4-15.2,3.4-18.7c5.6-2.5,13.2-1.5,18.7,3c-1.1,2.1-2.3,4.3-3.3,6.3
			c-0.7-0.6-1.5-1.3-2.2-1.9c-2.3-2.1-4.9-3.2-8-2.5c-1.8,0.4-3.2,1.4-3.8,3.2c-0.6,1.8-0.3,3.5,1.2,4.7c2.4,1.9,4.9,3.7,7.4,5.5
			c1.9,1.4,3.9,2.5,5.6,4.1c4.3,3.8,5.1,8.7,3.7,14c-1.3,5-4.9,7.8-9.7,9c-5.8,1.5-13.9-0.6-18.5-4.6
			C169.1,40.2,170.1,37.9,171,35.8z"/>
	</g>
</g>
</svg>
