<?xml version="1.0" encoding="utf-8"?>
<!-- Generator: Adobe Illustrator 18.0.0, SVG Export Plug-In . SVG Version: 6.00 Build 0)  -->
<!DOCTYPE svg PUBLIC "-//W3C//DTD SVG 1.1//EN" "http://www.w3.org/Graphics/SVG/1.1/DTD/svg11.dtd">
<svg version="1.1" id="Layer_1" xmlns="http://www.w3.org/2000/svg" xmlns:xlink="http://www.w3.org/1999/xlink" x="0px" y="0px"
	 viewBox="0.3 156.5 841.3 282.3" enable-background="new 0.3 156.5 841.3 282.3" xml:space="preserve">
<g>
	<path fill="#FFFFFF" d="M111.4,360.2c-10.4,10.9-23.9,17.1-40.1,17.1c-11.8,0-23-2.8-31.4-7.9c0.6,3.6,0.6,7.9,0.6,12.3v46.9
		L2.5,438.8v-174c0-19.6-0.3-25.3-2.2-37.9l35.1-6.2c1.4,5.3,2.2,9.3,2.5,14c6.7-8.1,21.6-14,37-14c10.7,0,21.3,3.6,29.7,9
		c16.3,10.9,27.8,30.3,27.8,64.8C132.2,327.1,126.8,343.7,111.4,360.2z M85.3,265.4c-2.8-8.1-9-12.6-18.8-12.6s-19.1,4.2-26.1,11.5
		v73.2c5.3,4.5,13.8,8.7,21.6,8.7c19.4,0,26.9-13.2,26.9-47.7C89.2,284.2,88.1,272.7,85.3,265.4z"/>
	<path fill="#FFFFFF" d="M193.9,311.1v1.1c0,23.3,11.5,36.5,31.7,36.5c13.5,0,26.1-5.1,38.2-14.9l15.2,23.6
		c-17.4,14-35.6,20.8-56.7,20.8c-43.2,0-71-30.6-71-77.7c0-26.9,5.6-44.9,18.8-59.5c12.3-13.8,27.2-20.2,47.1-20.2
		c17.4,0,33.7,5.9,43.5,15.7c13.8,14,19.9,34.2,19.9,65.7v9H193.9z M239.9,280.8c0-11.2-1.1-17.1-4.8-22.7
		c-3.9-5.9-9.3-8.7-17.4-8.7c-14.9,0-23.6,11.8-23.6,32.6v0.6h45.5v-1.7H239.9z"/>
	<path fill="#FFFFFF" d="M413.4,365.3c-10.4,8.1-20.5,11.8-32.8,11.8c-14.6,0-25-4.5-33.4-13.8c-1.1,5.3-1.4,6.7-4.2,10.9h-35.4
		c2.8-6.7,3.9-11.2,3.9-32V202.8c0-18.5-0.6-28.6-2.5-37l40.1-9.3c1.1,10.4,1.4,16.6,1.4,26.7v35.6c0,4.5-0.3,10.9-0.8,13.2
		c7.6-8.1,18.2-12.1,32-12.1c36.8,0,59.5,29.5,59.5,76.3C441.4,326.8,431.9,350.7,413.4,365.3z M394.8,271.5
		c-2.8-12.9-11.2-19.1-21.3-19.1c-10.4,0-17.4,6.5-22.5,12.1v69.3c5.3,4.8,11.5,9.8,21.9,9.8c9.8,0,15.7-3.9,19.1-11.8
		c3.6-8.1,4.5-16.3,4.5-34.5C396.8,283.6,396.5,278,394.8,271.5z"/>
	<path fill="#FFFFFF" d="M575.6,365.3c-10.4,8.1-20.5,11.8-32.8,11.8c-14.6,0-25-4.5-33.4-13.8c-1.1,5.3-1.4,6.7-4.2,10.9h-35.4
		c2.8-6.7,3.9-11.2,3.9-32V202.8c0-18.5-0.6-28.6-2.5-37l40.1-9.3c1.1,10.4,1.4,16.6,1.4,26.7v35.6c0,4.5-0.3,10.9-0.8,13.2
		c7.6-8.1,18.2-12.1,32-12.1c36.8,0,59.5,29.5,59.5,76.3C603.4,326.8,594.1,350.7,575.6,365.3z M557.1,271.5
		c-2.8-12.9-11.2-19.1-21.3-19.1c-10.4,0-17.4,6.5-22.5,12.1v69.3c5.3,4.8,11.5,9.8,21.9,9.8c9.8,0,15.7-3.9,19.1-11.8
		c3.6-8.1,4.5-16.3,4.5-34.5C558.7,283.6,558.5,278,557.1,271.5z"/>
	<path fill="#FFFFFF" d="M674.4,377.6c-16.8,0-30.3-7.9-35.1-20.5c-2.8-7.6-3.6-12.3-3.6-33.7V211.2c0-19.6-0.6-31.7-2-45.2l40.1-9
		c1.4,8.1,2,18,2,39v117c0,25.8,0.3,29.5,2.5,33.4c1.4,2.5,4.8,4.2,7.9,4.2c1.4,0,2.2,0,4.5-0.6l6.7,23.6
		C690.9,376.2,682.8,377.6,674.4,377.6z"/>
	<path fill="#FFFFFF" d="M754.9,311.1v1.1c0,23.3,11.5,36.5,31.7,36.5c13.5,0,26.1-5.1,38.2-14.9l15.2,23.6
		c-17.4,14-35.6,20.8-56.7,20.8c-43.2,0-71-30.6-71-77.7c0-26.9,5.6-44.9,18.8-59.5c12.3-13.8,27.2-20.2,47.1-20.2
		c17.4,0,33.7,5.9,43.5,15.7c13.8,14,19.9,34.2,19.9,65.7v9H754.9z M801.2,280.8c0-11.2-1.1-17.1-4.8-22.7
		c-3.9-5.9-9.3-8.7-17.4-8.7c-14.9,0-23.6,11.8-23.6,32.6v0.6h45.5v-1.7H801.2z"/>
</g>
</svg>
