<?xml version="1.0" encoding="utf-8"?>
<!-- Generator: Adobe Illustrator 18.0.0, SVG Export Plug-In . SVG Version: 6.00 Build 0)  -->
<!DOCTYPE svg PUBLIC "-//W3C//DTD SVG 1.1//EN" "http://www.w3.org/Graphics/SVG/1.1/DTD/svg11.dtd">
<svg version="1.1" id="Layer_1" xmlns="http://www.w3.org/2000/svg" xmlns:xlink="http://www.w3.org/1999/xlink" x="0px" y="0px"
	 viewBox="0 0 982.7 1371.3" enable-background="new 0 0 982.7 1371.3" xml:space="preserve">
<path fill="#FFFFFF" d="M515.2,1324.6c4.3-8,6.1-16,9.3-23.4c3.2-7.7,6-15.5,8.9-23.3c1.1-2.9,2.6-4.7,6.1-4.6
	c11.7,0.2,23.3,0.3,35,0.2c4,0,4.8,2.4,4.8,5.4c0.1,3.2,1.2,6.7-4,7.5c-8.6,1.3-8.8,1.6-9,10.5c-0.3,14.8-0.5,29.6-0.8,44.5
	c-0.1,4.9,1.2,8,7,7.6c3.9-0.3,5.1,2.3,5.2,5.8c0,3.4,0.3,6.9-4.5,7.2c-12.8,1-25.6,0.2-38.4-0.6c-3.2-0.2-3.9-3.2-3.4-5.6
	c0.6-2.6-1-7.3,4.1-7c5.3,0.3,6.4-2.3,6.5-6.9c0.3-11.5,1.4-22.9,1-34.4c-0.1-1.6,0.5-3.9-1.5-4.3c-2-0.3-2.3,2.1-2.8,3.6
	c-6,16.2-12.2,32.4-17.7,48.8c-2.2,6.4-6.7,5.7-11.5,5.8c-4.6,0-7.8-1.2-9.3-6.3c-4.8-16.6-11.5-32.5-16-49.2c-0.4-1.6-1.2-3-2-5.1
	c-1.8,2.3-2,4.3-2,6.4c-0.4,11.5-0.7,23-1.1,34.4c-0.1,4.1,0.9,6.9,5.7,6.8c6.2-0.1,4.9,4.6,5.1,8.2c0.2,3.9-2.4,4.6-5.6,4.6
	c-8.5,0-17-0.2-25.5,0c-5.5,0.1-5.5-3.5-5.8-7.3c-0.2-3.9,1.1-6.1,5.4-5.7c5.2,0.6,7.3-1.9,7.2-6.9c-0.4-16.3,1.3-32.6,0.6-48.9
	c-0.2-4-1.8-5.9-6-6.1c-6.1-0.3-8.4-4.5-6.3-10.3c0.8-2.2,2.3-2.4,4.3-2.4c9.3-0.1,18.7-0.3,28-0.5c11.7-0.2,11.7,0.1,15,11
	c3.8,12.5,8.2,24.7,12.4,37.1C513.6,1322.1,514.2,1322.9,515.2,1324.6z"/>
<path fill="#FFFFFF" d="M797.6,1289.2c0,3.7-0.1,7.3,0,11c0.1,2.8-1.1,4.7-3.8,4.9c-2.7,0.2-6.3,1.1-7.4-2.3
	c-2.8-8.8-9-13.7-17.5-16.1c-10.3-2.9-20.7-3-30.9,0.6c-3.6,1.3-6.4,3.4-5.9,8.1c0.3,2.9,1.3,4.6,4.3,5c7.7,1.2,15.4,2.9,23.1,3.9
	c7.8,1.1,15.3,3,22.9,5.2c20.5,5.8,24.3,31.6,14,44.7c-7.9,9.9-19.5,13.5-32,14.2c-12,0.7-23.5-1.2-34.3-6.8
	c-2.2-1.1-4.1-2.2-5.8,1.4c-1.8,3.9-5.9,2-9,2c-2.9,0-3.2-2.6-3.4-4.7c-0.8-9.1-0.4-18.3,0.2-27.4c0.3-4.3,3.1-4.3,6.2-4.6
	c3.2-0.3,5.2,0.7,5.7,3.7c1,5.5,3.8,9.8,8,13.3c10.4,8.6,32.7,10.1,43.9,2.9c2.8-1.8,4.2-4.4,3.4-7.7c-0.7-3-1.4-5.5-5.6-6.5
	c-10.7-2.5-21.5-3.9-32.3-5.5c-7.6-1.1-14.8-3.5-21-8.2c-13.4-10.1-14.2-31.8-0.6-42c12.3-9.2,26.5-12.8,41.8-9.2
	c6.9,1.6,13.8,3.4,20,7.1c1.5,0.9,2.7,0.9,3.7-0.8c2.1-3.6,5.4-3.3,8.8-2.4c3.7,1,3.4,4.1,3.4,6.9c0,3.2,0,6.3,0,9.5
	C797.9,1289.2,797.8,1289.2,797.6,1289.2z"/>
<path fill="#FFFFFF" d="M0.5,1343.2c-0.2-4.5,0.3-9,0.7-13.5c0.2-2.4,1.6-3.7,3.9-3.5c2.4,0.1,5.4-0.2,6,3.1
	c2.5,13,12.4,16.8,23.4,19c6.8,1.4,13.5,1.2,20-1.9c5.2-2.5,7.5-5.3,7-10.1c-0.5-5.8-5.2-6.4-9.4-7.2c-9.3-1.8-18.7-3.1-28-4.8
	c-4.7-0.8-9.2-2.1-13.5-4.6c-14.5-8.4-13.5-33.7-1.4-41.8c16.3-10.9,33.2-12.5,50.9-3.5c3.1,1.6,5.8,3.8,8.8-0.7
	c1.3-1.9,4.4-1,6.6-0.3c2,0.7,2.2,2.8,2.1,4.6c-0.1,6.7-0.4,13.3-0.5,20c0,2-0.5,4.1-2.8,4c-2.4-0.1-5.8,1.5-6.9-2.1
	c-2.8-8.9-9.9-12.2-17.8-15c-8-2.9-15.8-1.7-23.5,0.4c-2.1,0.6-4.3,2.1-5.8,3.7c-4.1,4.3-2.4,9.5,3.6,10.6
	c7.5,1.4,15.1,2.4,22.7,3.6c8.1,1.3,16.1,2.7,23.2,7.2c14.1,9,14.6,33.9,1,43.6c-17.6,12.6-41.6,10.3-55.9,1.3
	c-2.2-1.4-2.7-0.4-3.1,1.2c-1.4,4.6-5,3.7-8.2,3.3c-3.3-0.5-3.1-3.4-3.1-5.9C0.4,1350.1,0.5,1346.6,0.5,1343.2z"/>
<path fill="#FFFFFF" d="M982.3,1292.6c0,3.7,0.1,7.3,0,11c-0.1,2.7-0.1,5.7-3.7,6.1c-3.8,0.4-7.5-0.1-9.3-4.1
	c-1.7-3.8-3.3-7.7-6.2-10.7c-8.9-9.5-20.7-11.4-32.4-9c-12.2,2.5-19.8,11.3-22.4,23.5c-2.8,13-2,25.6,7.4,36.2
	c8.2,9.3,20.8,11.8,33.3,7.2c8.3-3.1,14.9-7.9,18.5-16.2c2.4-5.4,5.4-5.1,10.8-4.4c3,0.4,3.3,2.7,2.7,5.3
	c-3.4,15.9-14.8,29.5-32.8,32.6c-13.4,2.3-26.6,1.6-38.9-4.9c-15.8-8.3-25.1-21.2-27.3-39.1c-2.1-17.4,3.3-32.1,15.8-44.2
	c5.9-5.8,13.6-8,21-10.9c17.7-6.9,33.4-2,48.5,7.2c1.5,0.9,2.3,0.7,3.1-0.9c1.7-3.7,5.2-3.3,8.2-2.7c3.1,0.6,4,3.3,4.1,6.1
	c0.1,4,0,8,0,12C982.6,1292.6,982.5,1292.6,982.3,1292.6z"/>
<path fill="#FFFFFF" d="M141.8,1363.9c-25.3,0-48.6-16.2-47.8-47.6c0.7-30.6,20.5-47.8,49.5-48.2c26-0.4,46.7,15.8,46.4,47.1
	C189.6,1345,171.2,1362.5,141.8,1363.9z M115.7,1318.2c-0.3,5.8,1.2,11.3,3.5,16.5c3.9,9,10.7,14.5,20.6,15
	c8.9,0.4,16.3-3.7,21.1-11.1c9.5-14.4,10-29.6,1.6-44.8c-6.7-12.1-25.3-15-35-5.8C118.8,1296.2,115.5,1306.6,115.7,1318.2z"/>
<path fill="#FFFFFF" d="M223.9,1324.7c0,5.5,0,11,0,16.5c0,3.7,1.4,5.9,5.6,5.9c5.7,0,7,1.6,6.7,7.2c-0.1,3-1.5,4.6-4.7,4.5
	c-9.3-0.1-18.6-0.1-28,0c-4,0-5.5-1.9-5.6-5.9c0-3.7,0.7-6.3,5.1-6.2c5.4,0.2,6.7-2.7,6.8-7.8c0.1-14.8,0.7-29.6,1-44.4
	c0.2-6.5-1-8-7.3-8.8c-4.2-0.5-4.6-3-4.4-6.3c0.1-3.3,0.9-6,5-6c7.8,0,15.7-0.1,23.5,0c5,0,7.4,4,10.1,7.3
	c10.5,12.7,20.9,25.4,31.4,38c0.9,1,1.5,3.1,3.4,2.2c1.4-0.7,0.6-2.4,0.6-3.7c0-8.3,0-16.6-0.1-25c0-3.9-1-6.5-6-6.6
	c-5.1-0.1-6.6-2.6-6.1-7.6c0.4-4.6,3.4-5,7-4.9c8.8,0.2,17.7,0.3,26.5,0c5.2-0.1,6.1,2.8,6.1,6.9c0,4-1.9,5.8-5.9,5.6
	c-5.1-0.3-6.6,2.5-6.7,7.1c-0.3,19.3-0.7,38.6-1.2,57.9c-0.1,2.7,1.5,6.2-2.7,7.7c-4.7,1.7-11.5,0.7-14-2.3
	c-13.7-16.6-27.5-33.3-41.2-49.9c-0.9-1.1-1.9-2.3-3.2-2c-1.6,0.4-1.2,2.2-1.3,3.4c-0.1,5.7,0,11.3,0,17
	C224.3,1324.7,224.1,1324.7,223.9,1324.7z"/>
<path fill="#FFFFFF" d="M669.1,1314.9c0-7.5-0.1-15,0.1-22.5c0.1-3.7-1.6-5-4.9-5.4c-6.2-0.7-8.6-4.8-6.5-10.8
	c0.8-2.2,2.4-2.7,4.3-2.7c10.8,0.1,21.6,0.2,32.5,0.5c4.5,0.1,3.8,3.6,4,6.6c0.2,3.4-0.2,6.4-4.3,6.4c-8.8,0-8.5,3.1-8.6,9.9
	c-0.3,14-0.2,28-0.9,42c-0.8,16.2-10.4,26-26.2,28.3c-9.8,1.4-19.6,1.5-29.3-0.6c-17.6-3.9-26.9-13.8-27-31.3
	c-0.1-12.2,0.1-24.3,0.6-36.5c0.1-2.2-0.1-4.3-0.2-6.5c-0.2-3.7-1.8-5.9-5.8-5.9c-5.1,0.1-6.3-2.7-6.2-7.4c0.1-5,2.9-5.7,6.8-5.6
	c12.3,0.1,24.7,0.2,37,0.1c4.7,0,5.8,2.4,6,6.5c0.2,4.3-1.4,7.2-5.8,6.6c-6.7-1-7.1,3-7.1,7.7c-0.3,14.8-0.7,29.6-0.7,44.5
	c0,8.6,5.7,14.7,14.1,15.9c4.7,0.7,9.3,0.2,13.9-0.7c8.7-1.6,13.1-7.9,13.6-16.1c0.5-7.6,0.1-15.3,0.1-23
	C668.7,1314.9,668.9,1314.9,669.1,1314.9z"/>
<path fill="#FFFFFF" d="M328.8,1273.3c6,0,12,0,18,0c2.7,0,5.4,0.4,5.2,3.9c-0.1,3.1,2.4,7.3-3.1,8.6c-2.9,0.7-2.7,2.8-1.6,4.6
	c3.2,5.6,6.6,11.1,10.1,16.5c1.3,2,3.2,2.5,4.8,0.1c3.6-5.4,7.1-10.8,10.6-16.2c1.3-2,2-3.7-1.2-5c-4.5-1.9-3-6.4-2.8-9.7
	c0.2-3.1,3.5-2.6,6.1-2.6c8.8,0,17.6-0.4,26.5-0.1c5.7,0.2,5.9,3.3,5.9,7.4c0,4.1-2,5.7-5.9,5.4c-4.2-0.2-7.4,1.6-9.7,5
	c-7.8,11.2-16,22.1-23.3,33.6c-3.8,6-2.1,13.3-1.8,20c0.1,2.6,3,2.5,5.2,2.6c5.8,0.2,8.4,4.2,6.6,9.7c-0.7,2.2-2.4,3-4.6,2.9
	c-11.6-0.1-23.3-0.2-34.9-0.3c-3.5,0-6.5-0.5-6.6-5.4c-0.2-4.8,1.1-7.4,6.2-7.2c4.2,0.2,6-2.1,5.9-6.2c0-3.5,0.2-7,0.1-10.5
	c-0.1-3.2-0.7-6.3-3.7-8.3c-2.4-1.6-2.3-4.7-3.8-6.8c-5.2-7.7-10.2-15.5-15.3-23.3c-2.2-3.3-4.8-5.7-9.2-5.9
	c-4.4-0.2-6.2-2.5-5.9-7.3c0.3-5,2.6-5.7,6.7-5.4C318.4,1273.6,323.6,1273.3,328.8,1273.3C328.8,1273.3,328.8,1273.3,328.8,1273.3z"
	/>
<path fill="#FFFFFF" d="M844,1274.2c6.8,0,13.6,0.1,20.5,0c4.6-0.1,5,2.9,5.1,6.3c0.1,3.5,0.3,6.9-4.5,7.3c-1.5,0.1-3,0.4-4.5,0.4
	c-3,0.1-4.2,2-4.2,4.5c-0.3,17.6-0.5,35.3-0.7,52.9c0,3.3,1.3,5,4.9,5.5c2.9,0.4,7.1-0.5,7.9,4.3c0.8,5.1,0.8,10-7.1,9.8
	c-12.3-0.3-24.6-0.2-36.9-0.8c-5-0.2-6.1-3-6.2-7.2c-0.1-4,1.4-6.5,5.8-6.3c5.3,0.2,7.1-2.3,7.1-7.5c-0.1-15.6,0.4-31.3,0.5-46.9
	c0-7.5-0.5-7.8-7.7-9.2c-4.3-0.8-5.5-3.2-4.9-9.3c0.4-3.8,2.8-4.4,5.9-4.3c6.3,0.1,12.6,0,19,0C844,1273.8,844,1274,844,1274.2z"/>
<path fill="#FFFFFF" d="M715.6,951.3c0-4-2.2-5.4-5.2-3.1c-7.8,6.1-16.3,11.4-20.6,21c-1.4,3.1-3.7,5.2-6.5,7.3
	c-3.9,2.9-7.2,6.6-10.7,10c-1.1,1.1-1.7,2.7-0.8,4.1c1,1.6,2.5,0.4,3.6-0.2c2.3-1.3,4.6-2.7,6.7-4.3c5.9-4.2,9.1-11.2,15.5-15.1
	c5-3,8.4-8.2,13.1-11.4C714.4,957.3,714.9,954.4,715.6,951.3z M156,827.7c4.7-0.8,9.1-1.5,13.4-2.4c1.3-0.3,2.6-1,2.2-2.8
	c-0.3-1.4-1.6-1.9-2.6-1.8c-5.6,0.5-11.2,1.2-16.7,1.9c-1,0.1-2,0.8-2.1,1.9c-0.1,1.4,1,2,2.2,2.3C153.7,827.3,155,827.5,156,827.7z
	 M392.5,1088.6c5.7,0,9.4-2.3,9.3-6c0-1.9-0.5-3.1-2.9-3c-5.9,0.4-10.9,3.2-10.7,6.1C388.4,1088.7,390.5,1088.6,392.5,1088.6z
	 M296,869.2c5.3,0.2,8.5-2.8,12.4-2.5c0.9,0.1,2.2,0,2.2-1.3c0.1-1.2-1.1-1.5-1.9-2c-4.1-2.9-8.4-3.4-12.9-0.9
	c-2.1,1.2-6.5,0.2-6.1,3.3c0.3,2.5,4.5,2.7,7.1,3.4C297,869.3,297.2,869.3,296,869.2z M731.2,928.9c0.1-1.2,0.1-2.4-1-3.1
	c-1-0.7-2-0.3-2.6,0.5c-3.1,3.9-6,7.8-8.2,12.3c-0.5,1.1-0.4,2.4,1.5,2.2C723.8,940.4,731,932.1,731.2,928.9z M471.8,1072.6
	c2.1-0.1,5.2-1.1,6.2-4.1c0.6-1.7-1.8-3-3.8-2.9c-2.7,0.3-5.8,0-6.3,4C467.6,1072,468.8,1072.6,471.8,1072.6z M543.2,24.7
	c2.8,0,5.4,0.1,5.5-2.8c0-2-1.7-3.6-4.1-3.5c-2.5,0.1-5.3,1.1-5.6,3.4C538.7,24.5,541.6,24.7,543.2,24.7z M565.6,15.7
	c-1.9,0.4-4.9,0.5-4.9,2.8c0,2,2.9,2.8,5.1,3c2,0.2,3.8-1,3.9-2.9C569.7,16.6,567.8,15.7,565.6,15.7z"/>
<path fill="#FFFFFF" d="M715.6,951.3c-0.7,3-1.2,6-4.9,8.5c-4.7,3.2-8.2,8.3-13.1,11.4c-6.4,3.9-9.6,10.9-15.5,15.1
	c-2.2,1.5-4.4,3-6.7,4.3c-1,0.6-2.6,1.7-3.6,0.2c-0.9-1.4-0.3-3,0.8-4.1c3.5-3.4,6.8-7.2,10.7-10c2.8-2.1,5.1-4.2,6.5-7.3
	c4.2-9.6,12.8-14.9,20.6-21C713.3,946,715.6,947.4,715.6,951.3z"/>
<path fill="#FFFFFF" d="M156,827.7c-1.1-0.2-2.4-0.5-3.6-0.8c-1.1-0.3-2.3-0.9-2.2-2.3c0.1-1.1,1.1-1.7,2.1-1.9
	c5.6-0.7,11.1-1.4,16.7-1.9c1.1-0.1,2.4,0.4,2.6,1.8c0.4,1.7-0.9,2.5-2.2,2.8C165.1,826.3,160.7,826.9,156,827.7z"/>
<path fill="#FFFFFF" d="M392.5,1088.6c-2,0-4.1,0.1-4.3-2.8c-0.1-3,4.9-5.8,10.7-6.1c2.3-0.1,2.8,1.1,2.9,3
	C401.9,1086.3,398.2,1088.7,392.5,1088.6z"/>
<path fill="#FFFFFF" d="M296,869.2c1.3,0.1,1.1,0.1,0.9,0.1c-2.7-0.7-6.8-1-7.1-3.4c-0.4-3.2,4-2.2,6.1-3.3c4.5-2.5,8.8-2,12.9,0.9
	c0.8,0.6,1.9,0.9,1.9,2c-0.1,1.3-1.3,1.4-2.2,1.3C304.4,866.4,301.3,869.4,296,869.2z"/>
<path fill="#FFFFFF" d="M731.1,928.9c-0.2,3.3-7.4,11.5-10.4,11.9c-1.8,0.2-2-1.1-1.5-2.2c2.1-4.5,5.1-8.4,8.2-12.3
	c0.7-0.8,1.6-1.1,2.6-0.5C731.3,926.5,731.2,927.7,731.1,928.9z"/>
<path fill="#FFFFFF" d="M471.8,1072.6c-3,0-4.2-0.6-3.9-3c0.4-4,3.6-3.8,6.3-4c2-0.2,4.4,1.1,3.8,2.9
	C477,1071.5,473.9,1072.6,471.8,1072.6z"/>
<path fill="#FFFFFF" d="M543.2,24.7c-1.6-0.1-4.5-0.2-4.2-2.9c0.3-2.3,3.1-3.3,5.6-3.4c2.4-0.1,4.1,1.5,4.1,3.5
	C548.7,24.8,546,24.7,543.2,24.7z"/>
<path fill="#FFFFFF" d="M565.6,15.7c2.2,0,4.1,0.9,4,2.9c0,1.9-1.9,3.1-3.9,2.9c-2.1-0.2-5-1-5.1-3
	C560.7,16.2,563.7,16.1,565.6,15.7z"/>
<path fill="#FFFFFF" d="M650.8,975.7c2-1.2,3.2-1.9,4.6-0.6C654.2,976.5,652.8,975.9,650.8,975.7z"/>
<path fill="#FFFFFF" d="M953.8,429.7c-0.3-2.8-2.5-3.1-4.7-3.5c-1.1-0.2-1.7-1.2-1.9-2.2c-0.7-4.9-2-9.9-0.4-14.8
	c1.2-3.6,1.8-7.5,0.7-10.8c-1.9-5.4-1.4-10.8-1.8-16.2c-0.1-1,0-2.1-0.3-3c-3.1-8.6-3.6-17.5-3.6-26.5c0-2.7,0.5-5,2.3-7.3
	c4.1-5.3,2.4-11.9-3.6-14.7c-3-1.4-2.5-4-2.9-6.3c-0.4-2.3,0.4-3.8,2.7-4.6c1.8-0.6,3.4-1.5,3-3.9c-1.4-8.3-3.3-16.6-5.7-24.7
	c-0.4-1.3-1-3.4-2.6-3.2c-1.7,0.2-2.2,2.2-2.6,3.8c-0.5,2.2,0.6,4.8-1.3,7.2c-2-3.7-0.2-7.4-2.1-10.6c-3.9-6.6-6.4-13.6-7.3-21.2
	c-0.6-5.5-3.6-9.1-8.9-10.5c-1-0.2-2.5-0.2-2.5-1.2c-0.2-3.8-3.4-5.9-4.6-9.2c-3.2-8.6-9.3-15.6-13.6-23.7c-3.4-6.3-4-13.1-6.3-19.5
	c-0.3-0.7-0.3-2,1.3-2.7c2.3,2.2,4.2,4.6,5.5,7.8c1.9,4.9,4.5,9.5,7,14.1c0.8,1.4,2,3,3.9,2.6c2.2-0.5,2-2.8,2.5-4.5
	c0.4-1.5-0.2-2.9-1.1-4.2c-4.4-6.2-7.3-13.4-13.6-18.1c-2.6-2-3.9-5.3-5.6-8.2c-1.4-2.4-2.9-4.9-4.6-7.1c-1.5-1.9-3.4-3.5-5.4-0.2
	c-1,1.7-2.2,1.8-3.5,0.1c-0.9-1.2-2.1-2.1-3.3-3.4c4.4-1.3,4.4-4.2,3-7.8c-4.5-11.4-12.8-20.2-20.3-29.7c-2.6-3.4-6.3-5.9-7.6-10.2
	c-0.6-1.9-2.1-2.9-3.9-3.5c-3.8-1.3-7-2.9-7-7.8c0-1.2-1.3-2.9-2.5-3.6c-5-3-8.2-7.8-12-11.9c-3.7-4-11.6-3.3-11.7-10.9
	c0-0.2-0.5-0.3-0.8-0.5c-3.2-2.7-5.8-5.8-8.5-9c-2.5-2.9-5.1-6.3-8.4-7.6c-5.1-1.9-8.5-5.6-12.4-8.9c-8.2-6.9-15.2-15.9-27.3-16.4
	c-0.6,0-1.2-0.6-1.6-1.1c-3.5-4.4-8.5-6.7-13.4-9c-2.3-1.1-4.7-2.6-6.8-0.3c-2,2.2,0.6,3.9,1.6,5.7c0.7,1.3,2.3,2.3,1.3,3.9
	c-0.9,1.5-2.7,1.3-4.1,0.9c-7.7-2.2-14.5-6.3-20-11.8c-4.6-4.6-8.4-9.3-15.8-8.3c-1.9,0.3-4-0.5-5.8-1.1c-2.1-0.7-4.1-1.3-6.3-0.3
	c-2.5,1.1-3.7,0.5-4.8-2.2c-1.6-3.8-3.9-7.5-9.1-7.1c-2,0.2-3-1.2-3.7-2.8c-1.1-2.5-2.7-4.7-5.6-3.6c-3,1.1-6.6,1.9-6.7,6.4
	c0,1.6-0.6,3.3-1,5.1c-3.6-4.1-2.2-8.6-2.4-12.9c-0.1-1.5,0.3-3.3-1.6-3.8c-2-0.5-2,1.7-2.9,2.7c-5.4,5.2-4.6,16.5-15.8,16
	c-0.9,0-1.8,1.4-2.8,2c-1,0.6-2.1,1.1-3.1-0.5c0.4-0.5,1-0.9,1.3-1.4c1.1-1.9,3.4-3.9,1.5-6.2c-1.9-2.3-4.5-1.6-6.8-0.1
	c-1.4,1-3,1.3-4.7,1.5c-1.3,0.1-2.9,0.7-3.8-0.4c-1.2-1.6,0.8-2.2,1.4-3.2c1.2-2,2.7-3.8,3.8-5.8c1.7-3.1,2-6.6-0.5-9.3
	c-2.5-2.7-5.1-1.1-7.4,1c-1.9,1.9-3.4,0.7-4.5-0.9c-1.7-2.5-3.9-4.4-6.8-4.5c-2.6-0.1-6.7-0.5-3.9,4.4c0.7,1.2,0.3,1.7-0.6,2.4
	c-4.5,3.5-4.5,3.4,0,7.4c1.3,1.1,3.6,2.5,1.7,4.4c-4.1,4.3-7.8,8.9-14.9,8.6c-9.5-0.4-19,0-28.5,0.2c-1.7,0-4.1-0.1-4.4,2.3
	c-0.2,2,2,2.9,3.4,3.2c4,0.7,4.8,3,5.7,6.6c0.9,3.7-0.1,3.5-2.9,3.8c-5,0.5-8.9-2.7-13.4-3.5c-3.4-0.6-7.1-0.5-7.8,3.2
	c-0.9,4.5-3.3,3.3-5.8,2.6c-2.9-0.8-5.5-2.6-8.6-2.1c-2.7,0.4-7-0.2-7,3c0,2.8,4.1,3.2,7,3.3c14.9,0.5,27.9,6.9,40.5,14
	c4.6,2.6,9.1,4.1,14.5,4.5c7.7,0.5,15.8,0.5,22.9,6.9c-6.4,0.6-12.1,0.8-17.3-0.7c-5.6-1.6-11.2-1.2-16.8-1.4c-1.3,0-3,0-3.4,1.4
	c-0.5,1.8,1.5,1.8,2.5,2.6c1.1,0.8,3.6,0.8,1.7,3.4c-1.3,1.8-2.3,3.6-4.6,1.9c-2.9-2-5-0.7-7.9,0.9c1.1,0.4,1.5,0.8,1.9,0.8
	c2.8,0.1,4.1,1.4,4.1,4.4c0,3.5-2.3,3.2-4.6,3.7c-7.7,1.8-15.1-1.3-23.5-0.9c2.7-3.1,1.2-4.9-0.5-7c-3.6-4.3-7.5-3.2-11.6-1.1
	c-1.4,0.7-2.8,1.5-2.7,3.2c0.1,1.5,1.7,2.1,2.9,2.4c2.9,0.7,5.8,1.2,8.7,1.7c-1,0.9-2,1.3-2.9,1.3c-5.5-0.5-9.7,0.5-11.4,6.8
	c-0.5,1.8-2.5,5.4-5.3,4.4c-8.7-3-17.8,3.5-26.4-1.2c-1.6-0.9-5.1-0.6-5.7,1.6c-0.7,2.5,1.5,4.7,4,5.6c2.6,1,5.5,1.4,9,2.3
	c-3.7,0.4-6.4,1.4-6.7,4.6c-0.4,4.9-2.9,3.4-5.8,2.6c-6.8-2-13.6-3.8-20.5-5.5c-1.6-0.4-3.7-0.3-4.4,1.5c-0.7,2.1,1.4,2.8,2.9,3.3
	c7.8,2.5,10,11.9,17.8,14.4c0.2,0.1,0.3,0.6,0.3,0.9c1,3.5,3.7,4.5,6.8,5.9c4.7,2,9.9,2.7,14.7,4.6c-3.6,1.5-7.1,0.7-10.6,1
	c-3.8,0.3-5.5,1.9-5.1,6.1c0.4,3.5,3.2,5.7,3.8,9.4c-6.3,0.3-12.4-0.5-18.3-1.7c-1.5-0.3-3-1-4.1,0.6c-1.4,2,0.9,2.6,1.6,3.6
	c1.5,2.1,3.7,3.2,6,4.3c4.4,2.3,8.9,4.7,7.5,11.1c-0.4,1.7,0.4,3.2,1.9,4.3c0.9,0.6,2.2,1.2,1.3,2.7c-0.7,1.2-1.8,2.5-3.1,2.1
	c-7.1-2.4-15.9,0.1-21.5-5.3c-9.1-8.7-19.1,1.6-28-2.9c-0.1,0-0.3,0.1-0.4,0.2c-3,2.9-6.6,2.7-10.3,2.3c-2-0.2-4.1,0.1-4.6,2
	c-0.6,2.2,1.8,2.8,3.4,3.5c7.4,2.9,14.4,6.8,22.4,8.2c1.8,0.3,2.4,1.5,3.2,2.8c3.4,5.5,7.3,10.2,15.2,9.8
	c-8.5,6.8-17.5,6.8-26.7,5.5c-5.9-0.8-10.9,2-16.3,3.4c-8,2-9,3.8-3.8,10.3c1.8,2.2,1.6,3-1.1,3.7c-2.2,0.6-5.2,0.9-5.3,3.7
	c-0.1,3.7-2,4.9-5.2,5.4c-2.7,0.4-3.5,2.1-1.2,3.9c5.5,4.3,8,10.9,12.8,15.6c2.3,2.3,2.3,4.6,0.6,7.2c-2.3,3.6-1.1,6.5,2.2,8.3
	c3.7,2,7.1,4.9,11.7,5.1c3.2,0.2,3.3,2.9,3,5.3c-0.4,2.8-2.4,2.7-4.6,2.1c-2.1-0.6-4.1-1.2-6.2-1.9c-3.5-1.1-7-2.2-10.7-0.8
	c-0.8,0.3-2.6,0.2-1.9,1.5c2.1,4.2,1.6,9,3.9,13.3c2.6,4.8,7.1,9,7.4,14.8c0.1,2.7,0.9,4.6,3.2,5.7c3.1,1.5,3.3,3.7,2.2,6.6
	c-2.5,6.5-1.6,8.6,4.6,11.9c5.6,3,11.9,4.5,17.3,7.6c13.6,7.6,28.3,12.2,43.1,16.9c5.4,1.7,10.9,2.8,16,5.5
	c18.1,9.6,37.2,16.9,56.8,22.7c5.9,1.7,11.6,4,17.1,6.8c10.1,5.1,19.9,10.8,29.8,16.3c11.6,6.4,22.6,13.5,30.6,24.7
	c8.8,12.2,16.4,24.8,20.8,39.2c2.6,8.6,5,17.3,4.3,26.4c-0.7,8.5-1.6,16.9-1.6,25.4c0.1,12.3-4.5,23.4-9.4,34.1
	c-6.5,14.2-13.1,28.4-20.6,42.2c-7.5,13.8-14.8,27.9-24.1,40.5c-7.2,9.8-15.5,19-24.2,27.7c-13.8,13.9-27.7,27.7-42.4,40.7
	c-10.4,9.2-22.7,15.6-34.2,23.1c-5.7,3.7-11,7.9-17.2,10.9c-13.7,6.5-28.5,10.1-42.6,15.3c-3.8,1.4-7.2,4-11.7,4
	c-15.2,0.2-30.3,0.7-45.5,1.2c-1.6,0.1-3.5,0-4.9,0.7c-5.4,2.9-11.3,2.7-17.1,2.9c-8.5,0.3-17-0.4-25.3,2.4
	c-5.1,1.7-10.4,2.1-15.8,1.9c-3.3-0.1-6.7-0.1-10,0c-1.9,0.1-4.1,0.9-4,2.9c0.1,1.7,2.3,2.4,4,2.2c5-0.4,9.6,0.9,14.2,2.4
	c3.7,1.2,7.5,1.4,11.3,1.6c13.6,0.7,27-3.8,40.6-2.1c0.8,0.1,1.6-0.4,2.4-0.4c7.8,0,15.7,0,23.7,0c-2.1,3.6-5,5.4-9.3,5.3
	c-5.8-0.1-11.8-0.6-17.4,1.1c-11.4,3.4-23.4,2.8-34.8,6c-5.3,1.5-11.2,0.9-16.9,1.4c-13.4,1.2-26.6,3.5-40.2,3.5
	c-16.5,0.1-33-0.9-49.4,1c-2.4,0.3-4.9,0.4-6.3,2.4c-3.9,5.4-8.8,8.9-15.6,9.3c-1.8,0.1-4.4,1.6-3.3,3.4c2.8,4.2-0.6,4-2.7,5.7
	c-3.3,2.6-6.9,3-10.8,2.9c-2.5-0.1-5,0.4-7.2,1.6c-0.7,0.4-1.5,0.8-1.6,1.8c0,1.3,1,1.9,1.9,1.9c10.1,0.2,16.8,9.7,28.1,8.7
	c-1.6,1.9-2.4,2.9-3.3,3.9c-1.2,1.3-0.9,2.9,0.5,3.3c7.2,2,13.1,7.2,21.5,6.8c22.6-0.9,45.2-0.9,67.8-1.2c2.3,0,4.9-0.6,6.6,1.5
	c3.1,3.9,6.6,3,9.6,0.6c4.7-3.8,9.8-2,14.8-2.2c1,0,2.1,0.4,2.2,1.6c0.2,1.5-0.9,2-2.2,2.1c-3.1,0.2-5.9,1.1-8.4,2.9
	c-2.3,1.7-2,3.7,0.5,4.5c3.9,1.2,8.4,3.2,12,2.3c10.8-2.6,21.6-0.6,32.3-1.6c9.9-0.9,19.8-0.3,29.5-3.6c5.3-1.8,11.2-2,18.1-0.3
	c-5.4,3.6-10.2,5.4-15.6,5.5c-3.7,0.1-7.5-0.4-10.9,0.6c-12,3.4-24.2,4-36.5,3.5c-4.8-0.2-9.2,0.3-13.4,2.9
	c-3.1,1.9-6.5,3.4-10.3,3.3c-1.5,0-4.3-0.3-3.9,2.3c0.3,2.2,2.4,3.3,4.6,2.6c3.2-0.9,6.3-0.3,9.3,0.5c3.5,0.9,6.9,0.9,10.3-0.4
	c2.9-1.1,6-0.9,8.9-0.5c2.4,0.4,5.3,2.7,3.3,4.6c-3.8,3.6-7.5,7.8-12.7,9.4c-12.2,3.7-24.2,7.8-35.4,14c-1.9,1-3.8,2.2-6.1,2.1
	c-9.7-0.3-19,3.1-28.7,3.5c-5.9,0.2-11.9,0.5-17.7,2.7c-4.4,1.7-8.8,1.2-12.9-1.4c-1.4-0.9-2.9-1.5-4.7-1.3
	c-7.2,0.9-14.4,1.5-21.6,3.4c-14.1,3.8-29,2.3-43.4,5c-5.8,1.1-11.8,1.9-16.1,5.9c-3.4,3.2-6.7,4.4-10.7,3.5
	c-3.9-0.8-7.6,0.2-11.4,0.4c-2.9,0.1-4.5,1.8-4.5,4.9c0,2.7-0.3,5.2,3.2,6.3c3.7,1.2,7.5,1.2,11.3,1.6c1.3,0.1,2.8,0.4,3.1,2
	c0.3,1.2,0.3,2.5-1.1,3c-3.5,1.3-4.8,4.2-5.8,7.5c-0.4,1.2-1.5,2.8-2.5,2.9c-6.3,0.9-11.1,5.3-17.1,6.7c-5.5,1.3-6.4,3-4.3,8.2
	c1,2.5,0.2,3.7-1.6,4.9c-2.5,1.6-5.2,2.9-7.5,4.8c-2.5,2.1-2.9,5.1,0.4,6.3c3.7,1.5,4,3.1,2.2,6.2c-0.5,0.8,0,2.1-0.4,2.9
	c-2.2,5.1-0.5,11.6-4.8,15.9c-3.2,3.2-1.2,4,1.6,4.7c1.3,0.3,2.7,0,4,0.2c10,1.5,19.3-3.1,29.1-3.4c13.3-0.4,26.4-3,39.4-5.5
	c7.2-1.4,14.3-3.1,21.7-2.3c1.1,0.1,4.1,0,2.4,2.1c-2.4,3.1-0.9,3.5,1.6,4.2c1.3,0.4,2.3,1.2,2.5,2.9c-3.6,1.1-7.3,0.5-10.9,0.4
	c-9-0.3-18-0.2-26.9,1.5c-4.2,0.8-8.3,2.5-12.7,2.4c-13-0.2-25.8,1.7-38.6,4c-2.2,0.4-3.4,1.7-4.5,3.4c4.3,1.6,4.2,6.4,6.6,9.4
	c0.2,0.2,0.6,0.2,0.9,0.3c3,1.1,5.9,1,8.7-0.6c2.3-1.3,4.7-1.8,7.2-1.6c2.3,0.1,2.8,1,1.6,3.2c-1.6,3-4.4,3.3-7.2,3.6
	c-1.5,0.2-3.1,0.3-3.7,2c-0.6,1.8,0.2,3.2,1.6,4.4c1.1,1,2.1,1.8,2.4,3.5c2.4,11.5,3.8,12.5,15.3,11.2c1.7-0.2,3.3-0.4,5-0.3
	c1.2,0,2.6,0.1,3.1,1.7c-2.4,1.1-4.8,0.5-7.1,0.8c-2.4,0.4-6.1,0.8-5.8,3.5c0.6,5.6-2.2,7.7-6.7,9.1c-1.8,0.6-2.8,2.5-1,3.9
	c3.5,2.7,7.1,6,12.1,3.5c2.8-1.4,5.8-1.2,8.8-1.2c13-0.2,26-0.5,39-0.4c20.2,0.1,40.2-2,60.2-3.3c8.7-0.5,17.3-1.1,25.8-2.8
	c5.3-1.1,10.4-0.3,15.7,3.1c-5,1.6-9.2,3.1-13.7,3.4c-10.5,0.5-21.2,0.3-30.8,6c-1.4,0.8-3.5,1.1-3.3,3.1c0.2,1.7,2.1,1.9,3.6,2.1
	c9.2,1.1,18.3,1.6,27.1-2.1c2.2-0.9,4.5-1,6.9-0.9c8.5,0.3,16.9,0.7,24.8-3.5c1.8-0.9,4.2-0.9,6.4-0.9c4.7,0.2,9.3-0.6,13.6-2.4
	c2.8-1.2,5.7-1.6,8.7-1.8c11.9-0.5,23-3.2,32.6-11.4c-4.9-0.1-9.5-4-13.8-1.4c-4.5,2.7-8.7,2.2-13.5,2c1.4-2.5,1.8-5.7,5.4-5.4
	c3.3,0.3,5.7-1.4,8.1-3.2c3.2-2.5,6.9-4.1,10.9-4.7c3.4-0.5,6.3-2,9.4-3c8.1-2.6,15.4-6.9,23.2-9.9c6.4-2.5,13-3.8,19.3-6.6
	c5.7-2.5,11.4-4.9,17.1-7.6c4.6-2.2,9.6-3.1,14.7-0.5c-4.5,0.7-8.1,3.7-12.2,4.7c-6,1.5-10.5,4.6-14.5,9c-4,4.6-7.7,9.8-14.2,10.9
	c-5.6,1-10.9,2.6-16.2,4.8c-5.4,2.3-10.3,5.6-17.5,7c4.4,2.8,7.7,2.6,10.5,1.7c5.4-1.6,10.8-2.3,16.3-2.1c6,0.2,11.2-2.9,16.9-3.6
	c-1.8,0.9-3.8,1.6-4.6,3.5c-0.7,1.6-1.8,3.4-0.4,5.2c1.2,1.5,3.1,1.6,4.6,1c7-2.5,14.5-2,21.4-5.8c7.6-4.2,15.9-7.9,24.9-8.7
	c1.7-0.2,2.9-1.3,4.3-2.3c7.2-5.4,10.6-6.3,16.8-4.3c-1.1,0.7-2,1.4-3,1.9c-1.9,1-1.8,2.1-0.3,3.3c2.9,2.5,9.2,1,12.3-3.2
	c3.4-4.5-2.2-3.9-3.3-5.8c-0.1-0.1-0.1-0.3-0.2-0.7c4.1-1.1,8.1-3.1,11.6,1.5c1.2,1.5,3.5,1.1,5.2,0.4c2.9-1.2,5.8-2.6,8.5-4.2
	c9.6-5.5,19.1-11.2,30.9-10.2c3.2,0.3,6.1-1.2,8.9-2.8c4.3-2.3,7.8-5.5,11.2-8.8c5.1-4.8,11.4-7.8,16.9-12c8-5.9,8.1-5.8,12.9-4.3
	c-1.8,1.6-3.6,3-5.2,4.7c-1,1.1-3.5,1.8-2.3,3.8c1.2,2,3.3,1.9,5.3,0.9c4.9-2.2,9.2-5.4,13.5-8.4c1.7-1.2,2-3,1-4.4
	c-3.8-5-0.6-7.5,3.2-9.9c7.3-4.6,14.2-9.7,20.3-15.8c3-3,6.5-5.5,11.7-4.8c-2.7,2.7-4.9,5.4-7.6,7.4c-5.3,3.9-10.8,7.6-16.4,11
	c-3,1.8-4.9,5-4,7.1c1.5,3.4,4.5,0.4,6.7-0.6c1.5-0.6,3.1-1.5,4.2-2.7c8.5-9.8,21.2-13.7,31-21.7c11.6-9.4,23.7-18.2,33.8-29.2
	c7.9-8.6,15-17.9,22.2-27.1c3.6-4.6,8.1-8.7,11.1-13.7c3.7-6,8.2-10.8,13.4-15.6c1.7,3.5-0.1,5.2-1.8,7.1c-1.9,2.1-2.1,5.2-0.5,6.9
	c2.1,2.1,3.9-0.7,5.1-2.3c5.6-7.2,11.2-14.4,16.2-21.9c2.6-3.9,7-7.1,7.6-12c0.6-5.1,2.9-8.6,7-11.4c2.4-1.7,5-3.3,5.9-6.5
	c2.3-8.2,4.7-16.3,7.2-24.4c2.4-7.8,7.4-14.4,8.8-22.6c0.6-3.4,3.7-5.8,7-7.3c0.8-0.4,1.6-0.8,2.1,0.2c0.2,0.4-0.1,1.3-0.4,1.8
	c-4.2,5.4-6.1,11.9-8.9,18c-0.9,1.9-0.8,3.8,1,4.9c1.7,1,3.6,0.2,4.8-1.3c0.9-1.2,1.6-2.5,2.4-3.8c3.8-6.2,6.5-13,12.2-17.9
	c8.9-7.6,12.6-18.5,16.3-28.9c3.3-9.6,7.5-18.8,10.6-28.5c0.8-2.5,1.7-5,2.8-7.4c0.9-2.1,2.4-4.5,4.8-4.8c6.7-0.7,8.3-6.3,10.3-10.9
	c3.3-7.6,7.9-14.4,10.9-22c3.5-8.8,9.4-16.9,5.9-27.3c-0.6-1.9-0.4-4.6,0.4-6.4c5.2-10.9,10.6-21.7,16-32.5c0.4-0.8,1.5-1.5,2.3-1.6
	c1-0.2,1.5,1.1,1.2,1.7c-1.9,3.7-1,8.3-3.6,11.5c-1.7,2.1-2.5,4.2-2.4,6.8c0.1,2.7-0.6,5.3-2,7.6c-2.4,3.9-2.7,8.7-5.5,12.6
	c-1.1,1.6-0.5,4.5-0.5,6.8c0,1.5,0.9,2.7,2.3,2.9c1.4,0.2,1.9-1.2,2.3-2.3c1.8-4.6,3.7-9.2,5.3-13.9c0.6-1.8,1.3-2.7,3.5-2.7
	c4.3-0.1,8.1-4.9,9.5-9.2c1.9-5.5,2-11.7,6.3-16.5c2.2-2.5,4-6,4.3-9.3c0.8-7.3,1.9-14.5,2.9-21.8c0.2-1.2,0.4-2.5-0.8-3.1
	c-1.5-0.7-1.9,1-2.6,1.7c-1.1,1.1-1.3,3.4-3.6,2.5c-2-0.8-3.2-2.5-3.2-4.6c-0.1-2.8,0.2-5.7,0.2-8.5c0-2.9,1.4-4.4,4.2-4.4
	c4.9,0.1,6.8-3.1,7.3-7.1c0.7-6,1.8-11.7,3.5-17.6c2.4-8.5,6.3-17.2,5-26.5c-0.5-3.7,1.9-7,2.3-10.5c1.1-8.7,7-17.2,1.6-26.4
	c-0.7-1.3-0.8-3.5-0.2-4.9c2.1-4.6,1.7-9.4,1.4-14.2c-0.2-3.6,0.4-6.7,2.8-9.7c2.5-3.2,3.6-7,3.3-11.2c-0.2-3.5,0.2-7,0.1-10.5
	c-0.1-3.3,0.5-5.7,4.6-5.1c1.3,0.2,2.5-0.5,2.9-1.6C954.7,438.7,954.2,434.2,953.8,429.7z M235.1,1012c-1.4,0.1-2.5-0.5-2.7-2.3
	c-0.2-1.9,0.9-2.9,2.5-3.1c5.5-0.7,11.1-0.5,17.4,0C247.2,1013.3,240.9,1011.6,235.1,1012z M410.8,1019.8c-1.9,1.4-3.8,2.4-6.5,1.8
	c-6.9-1.5-12.6,1.6-16.8,6.4c-5.5,6.4-12.4,10-20.2,11.9c-13.4,3.3-26.3,8.3-39.5,12.1c-7,2-13.8,4.9-21.2,5.2
	c-6.1,0.3-11.6,3-17.5,3.7c-2.5,0.3-4.4,0.1-5.7-2.7c-1.3-2.9-4.1-2.9-6.9-2.2c-5.9,1.4-11.7,1-18.3,0.7c3-4.7,7.6-3.8,11-5.2
	c13.2-5.5,27.8-6.3,41.2-11.4c3.2-1.2,6.5-1.3,9.9-1.2c12.1,0.3,23.9-1.5,35.6-4c2.8-0.6,4.8-2.3,7-3.7c6.7-4.5,14.9-4.2,22.1-7.4
	c3.4-1.5,5.8-3.9,8.3-5.9c5-4.2,11.4-1.8,16.6-4.4c0.7-0.4,1.7,0.2,1.8,1.2C411.7,1016.5,412.5,1018.5,410.8,1019.8z M542,993
	c-10.5,6.4-20.3,14.1-30.2,21.4c-5.3,3.9-11.5,5.6-17.4,8.2c-1.1,0.5-1.9,0.3-2.7-0.5c-3.7-4.1-7-1.6-10.4,0.6
	c-3.6,2.3-6.9,5.1-11.2,6.1c-1.1,0.3-2.2,0.2-3.4,0.2c4.5-6.1,10.5-9.8,16.6-13.4c4.4-2.6,8.9-4.9,14.2-5.6c10.4-1.3,18.8-7.4,27-13
	c10-6.9,21.2-11.5,31.2-18.2c7.4-4.9,14.5-10.2,22-14.9c2.5-1.6,4.7-2.2,7.7-1.5C571.1,973.2,557.1,983.8,542,993z M650.8,975.7
	c2-1.2,3.2-1.9,4.6-0.6C654.2,976.5,652.8,975.9,650.8,975.7z M829,764.5c-0.8-0.1-1-0.7-0.9-1.4c0-0.6,0.1-1.4,1-1.4
	c0.9,0,0.9,0.7,0.9,1.4C830,763.7,829.9,764.4,829,764.5z M842.2,736.8c0,3.7-2.5,6.4-4,9.4c-2.1,4.3-3.6,9-7.1,12.8
	c-1.7-2.3-1.3-4.5-0.5-6.1c2.9-5.6,5.9-11.1,8-17.1c0.4-1,1.3-2.6,2.9-2.1C842.7,734.1,842.2,735.7,842.2,736.8z"/>
</svg>
