<?xml version="1.0" encoding="utf-8"?>
<!-- Generator: Adobe Illustrator 18.0.0, SVG Export Plug-In . SVG Version: 6.00 Build 0)  -->
<!DOCTYPE svg PUBLIC "-//W3C//DTD SVG 1.1//EN" "http://www.w3.org/Graphics/SVG/1.1/DTD/svg11.dtd">
<svg version="1.1" id="Layer_1" xmlns="http://www.w3.org/2000/svg" xmlns:xlink="http://www.w3.org/1999/xlink" x="0px" y="0px"
	 viewBox="0 0 600 159.4" enable-background="new 0 0 600 159.4" xml:space="preserve">
<g>
	<path fill="#2B93D1" d="M62.9,115.1c-5.8,6.1-13.4,9.6-22.7,9.6c-6.6,0-12.9-1.7-17.7-4.5c0.3,2,0.3,4.5,0.3,7v26.5l-21.4,5.6V61.2
		c0-11.1-0.2-14.3-1.3-21.4l19.7-3.5c0.8,3,1.3,5.3,1.5,8c3.8-4.6,12.3-8,20.9-8c6,0,12.1,2,16.8,5.1c9.1,6.1,15.8,17.1,15.8,36.7
		C74.6,96.4,71.7,105.7,62.9,115.1z M48.3,61.5c-1.7-4.6-5.1-7.1-10.6-7.1c-5.5,0-10.8,2.3-14.8,6.5v41.3c3,2.5,7.8,5,12.3,5
		c10.9,0,15.3-7.5,15.3-26.9C50.4,72.2,49.8,65.7,48.3,61.5z"/>
	<path fill="#2B93D1" d="M107.3,87.4v0.7c0,13.1,6.5,20.6,17.9,20.6c7.6,0,14.8-2.8,21.6-8.5l8.6,13.3c-9.8,8-20.1,11.8-32,11.8
		c-24.4,0-40.1-17.2-40.1-44c0-15.3,3.2-25.4,10.6-33.7c7-7.8,15.4-11.4,26.7-11.4c9.8,0,19.1,3.3,24.5,9c7.8,8,11.3,19.4,11.3,37.2
		v5.1H107.3z M133.4,70.2c0-6.3-0.7-9.6-2.7-12.8c-2.2-3.3-5.3-5-9.8-5c-8.5,0-13.3,6.6-13.3,18.4v0.3h25.7V70.2z"/>
	<path fill="#2B93D1" d="M227.2,117.9c-5.8,4.6-11.6,6.6-18.6,6.6c-8.3,0-14.1-2.5-18.9-7.8c-0.7,3-0.8,3.8-2.3,6.1h-19.9
		c1.7-3.8,2.2-6.3,2.2-18.1V26.2c0-10.4-0.3-16.1-1.5-20.9L190.8,0c0.7,5.8,0.8,9.3,0.8,15.1v20.1c0,2.5-0.2,6.1-0.5,7.5
		c4.3-4.6,10.3-6.8,18.1-6.8c20.7,0,33.7,16.6,33.7,43.1C242.9,96.2,237.6,109.6,227.2,117.9z M216.7,65
		c-1.7-7.3-6.3-10.8-12.1-10.8c-5.8,0-9.8,3.6-12.6,6.8v39.1c3,2.7,6.5,5.5,12.4,5.5c5.5,0,9-2.2,10.8-6.6c2-4.6,2.5-9.1,2.5-19.6
		C217.7,71.8,217.5,68.7,216.7,65z"/>
	<path fill="#2B93D1" d="M314.4,117.9c-5.8,4.6-11.6,6.6-18.6,6.6c-8.3,0-14.1-2.5-18.9-7.8c-0.7,3-0.8,3.8-2.3,6.1h-19.9
		c1.7-3.8,2.2-6.3,2.2-18.1V26.2c0-10.4-0.3-16.1-1.5-20.9L278.1,0c0.7,5.8,0.8,9.3,0.8,15.1v20.1c0,2.5-0.2,6.1-0.5,7.5
		c4.3-4.6,10.3-6.8,18.1-6.8c20.7,0,33.7,16.6,33.7,43.1C330.2,96.2,324.9,109.6,314.4,117.9z M304,65c-1.7-7.3-6.3-10.8-12.1-10.8
		c-5.8,0-9.8,3.6-12.6,6.8v39.1c3,2.7,6.5,5.5,12.4,5.5c5.5,0,9-2.2,10.8-6.6c2-4.6,2.5-9.1,2.5-19.6C305,71.8,304.8,68.7,304,65z"
		/>
	<path fill="#2B93D1" d="M365.7,124.9c-9.5,0-17.1-4.5-19.7-11.6c-1.7-4.3-2-7-2-19.1V30.9c0-11.1-0.3-17.9-1.2-25.5l22.7-5.1
		c0.8,4.6,1.2,10.1,1.2,22.1v66.2c0,14.6,0.2,16.6,1.5,18.9c0.8,1.5,2.7,2.3,4.5,2.3c0.8,0,1.3,0,2.5-0.3l3.8,13.3
		C375.2,124.1,370.5,124.9,365.7,124.9z"/>
	<path fill="#2B93D1" d="M405.4,87.4v0.7c0,13.1,6.5,20.6,17.9,20.6c7.6,0,14.8-2.8,21.6-8.5l8.6,13.3c-9.8,8-20.1,11.8-32,11.8
		c-24.4,0-40.1-17.2-40.1-44c0-15.3,3.2-25.4,10.6-33.7c7-7.8,15.4-11.4,26.7-11.4c9.8,0,19.1,3.3,24.5,9c7.8,8,11.3,19.4,11.3,37.2
		v5.1H405.4z M431.4,70.2c0-6.3-0.7-9.6-2.7-12.8c-2.2-3.3-5.3-5-9.8-5c-8.5,0-13.3,6.6-13.3,18.4v0.3h25.7V70.2z"/>
	<path fill="#2B93D1" d="M486.3,125.6c-8.1,0-14.6-6.6-14.6-14.8c0-8,6.5-14.4,14.4-14.4c8.1,0,14.8,6.5,14.8,14.4
		C500.9,118.9,494.3,125.6,486.3,125.6z"/>
	<path fill="#2B93D1" d="M529.1,28.4c-7.5,0-13.6-6.1-13.6-13.8s6.3-13.8,13.9-13.8c7.5,0,13.4,6.1,13.4,13.8S536.7,28.4,529.1,28.4
		z M518,122.9V39.5l22.2-3.5v86.9H518z"/>
	<path fill="#2B93D1" d="M581.9,124.9c-11.3,0-20.2-5-22.9-12.4c-1.3-3.6-1.5-5.3-1.5-13.1V53.2h-8.5V38h8.5c0-8.3,0-13.8,0.8-20.1
		l22.6-5.6c-0.8,7.8-1.3,17.1-1.3,25.7h19.9l-5.6,15.3h-14.3v42.6c0,10.8,2,13.6,9.6,13.6c2,0,4-0.5,8-1.7l2.8,13.3
		C593.5,123.7,587.7,124.9,581.9,124.9z"/>
</g>
</svg>
