<?xml version="1.0" encoding="utf-8"?>
<!-- Generator: Adobe Illustrator 18.0.0, SVG Export Plug-In . SVG Version: 6.00 Build 0)  -->
<!DOCTYPE svg PUBLIC "-//W3C//DTD SVG 1.1//EN" "http://www.w3.org/Graphics/SVG/1.1/DTD/svg11.dtd">
<svg version="1.1" id="Layer_1" xmlns="http://www.w3.org/2000/svg" xmlns:xlink="http://www.w3.org/1999/xlink" x="0px" y="0px"
	 viewBox="0 0 866 299.6" enable-background="new 0 0 866 299.6" xml:space="preserve">
<g>
	<path d="M224.6,0c0,50,0,99.7,0,149.7c-19.1,0.3-35.8,6.6-49.9,19.2c-14.1,12.6-22.1,28.6-24.9,47.4c-3.5-22.6-14-40.8-32.9-53.6
		c-19.1-12.9-40-16.2-62.2-10.2c-19.6,5.3-34.6,17.2-44.9,34.7C3.2,198.8-0.2,211.2,0,224.9c75,0,149.7,0,224.6,0
		c0,25,0,49.8,0,74.6c24.5,1.9,61.7-15.1,72.5-54.7c5.1-18.8,3.4-37.1-5.7-54.4c-12.3-23.4-32.1-36.4-58.2-40.5
		c22.5-3.3,40.6-13.8,53.4-32.5c12.9-18.9,16.3-39.7,10.6-61.8c-5-19.2-16.3-34.1-33.2-44.6C252.2,3.6,239.1-0.2,224.6,0z"/>
	<path d="M224.6,0c14.5-0.2,27.5,3.5,39.5,11c16.9,10.5,28.2,25.4,33.2,44.6c5.7,22.1,2.3,42.9-10.6,61.8
		c-12.8,18.7-30.9,29.1-53.4,32.5c26,4.2,45.8,17.2,58.2,40.5c9.1,17.3,10.8,35.6,5.7,54.4c-10.8,39.6-48.1,56.5-72.5,54.7
		c0-24.7,0-49.5,0-74.6c-74.9,0-149.6,0-224.6,0c-0.2-13.7,3.2-26.1,9.9-37.6c10.3-17.6,25.2-29.4,44.9-34.7
		c22.1-6,43.1-2.7,62.2,10.2c18.9,12.8,29.5,31,32.9,53.6c2.8-18.8,10.8-34.7,24.9-47.4c14.1-12.6,30.7-18.9,49.9-19.2
		C224.6,99.8,224.6,50,224.6,0z"/>
</g>
<g>
	<path d="M413.8,168h16.6v55.2h-10.7v-37.3c0-1.1,0-2.6,0-4.5c0-1.9,0-3.4,0-4.5l-10.5,46.3h-11.2l-10.4-46.3c0,1,0,2.5,0,4.5
		c0,1.9,0,3.4,0,4.5v37.3h-10.7V168h16.8l10,43.4L413.8,168z"/>
	<path d="M469.6,218.1c-3.4,4.2-8.7,6.4-15.7,6.4c-7,0-12.2-2.1-15.7-6.4s-5.2-9.4-5.2-15.3c0-5.9,1.7-11,5.2-15.3
		c3.4-4.3,8.7-6.5,15.7-6.5c7,0,12.2,2.2,15.7,6.5c3.4,4.3,5.2,9.4,5.2,15.3C474.8,208.8,473.1,213.9,469.6,218.1z M461.1,212.2
		c1.7-2.2,2.5-5.4,2.5-9.5s-0.8-7.2-2.5-9.4c-1.7-2.2-4.1-3.3-7.2-3.3c-3.1,0-5.5,1.1-7.2,3.3c-1.7,2.2-2.5,5.3-2.5,9.4
		s0.8,7.2,2.5,9.5c1.7,2.2,4.1,3.3,7.2,3.3C457,215.6,459.4,214.5,461.1,212.2z"/>
	<path d="M502.2,182.3h11.4l-14.7,40.8h-11.2L473,182.3h12l8.5,30.1L502.2,182.3z"/>
	<path d="M527.6,177.5h-10.8v-9.8h10.8V177.5z M516.8,182.3h10.8v40.8h-10.8V182.3z"/>
	<path d="M564.7,184.7c2.7,2.2,4,5.9,4,11v27.5h-10.9v-24.8c0-2.1-0.3-3.8-0.9-4.9c-1-2.1-3-3.1-5.9-3.1c-3.6,0-6.1,1.5-7.4,4.6
		c-0.7,1.6-1,3.7-1,6.2v22.1h-10.7v-40.7h10.3v5.9c1.4-2.1,2.7-3.6,3.9-4.5c2.2-1.6,5-2.5,8.3-2.5
		C558.6,181.4,562,182.5,564.7,184.7z"/>
	<path d="M594.2,182.3c2.6,1.1,4.7,3,6.3,5.9v-5.9h10.4V221c0,5.3-0.9,9.2-2.7,11.9c-3,4.6-8.9,6.9-17.5,6.9c-5.2,0-9.5-1-12.8-3.1
		c-3.3-2-5.1-5.1-5.5-9.2H584c0.3,1.2,0.8,2.1,1.5,2.7c1.1,1,3.1,1.5,5.8,1.5c3.8,0,6.4-1.3,7.7-3.9c0.8-1.6,1.3-4.4,1.3-8.3v-2.6
		c-1,1.7-2.1,3.1-3.3,3.9c-2.1,1.6-4.9,2.4-8.3,2.4c-5.2,0-9.4-1.8-12.6-5.5c-3.1-3.7-4.7-8.7-4.7-14.9c0-6.1,1.5-11.2,4.5-15.3
		c3-4.1,7.3-6.2,12.8-6.2C590.9,181.4,592.6,181.7,594.2,182.3z M597.8,211.5c1.7-1.9,2.6-4.9,2.6-9c0-3.9-0.8-6.8-2.4-8.8
		s-3.8-3-6.5-3c-3.7,0-6.3,1.8-7.7,5.3c-0.7,1.9-1.1,4.2-1.1,6.9c0,2.4,0.4,4.5,1.2,6.3c1.4,3.4,4,5.2,7.8,5.2
		C594,214.4,596.1,213.4,597.8,211.5z"/>
	<path d="M674.9,173.8c1.7,2.3,2.5,5.2,2.5,8.4c0,3.4-0.9,6.1-2.6,8.1c-1,1.1-2.4,2.2-4.2,3.1c2.8,1,4.9,2.6,6.4,4.9
		c1.4,2.2,2.1,4.9,2.1,8.1c0,3.3-0.8,6.2-2.5,8.8c-1,1.7-2.3,3.2-3.9,4.3c-1.8,1.3-3.8,2.3-6.2,2.8s-5,0.7-7.8,0.7h-24.8V168h26.7
		C667.3,168.1,672.1,170,674.9,173.8z M644.9,177.5v12.2h13.4c2.4,0,4.3-0.5,5.8-1.4c1.5-0.9,2.2-2.5,2.2-4.8c0-2.6-1-4.3-3-5.1
		c-1.7-0.6-3.9-0.9-6.5-0.9H644.9z M644.9,198.8v14.7h13.4c2.4,0,4.3-0.3,5.6-1c2.4-1.2,3.6-3.5,3.6-6.9c0-2.9-1.2-4.8-3.5-5.9
		c-1.3-0.6-3.1-0.9-5.5-0.9H644.9z"/>
	<path d="M706.3,181.4c0.1,0,0.4,0,0.9,0.1v10.9c-0.7-0.1-1.3-0.1-1.8-0.2c-0.5,0-0.9,0-1.3,0c-4.3,0-7.2,1.4-8.6,4.2
		c-0.8,1.6-1.2,4-1.2,7.3v19.5h-10.7v-40.8h10.2v7.1c1.6-2.7,3.1-4.6,4.3-5.6c2-1.7,4.6-2.5,7.8-2.5
		C706,181.4,706.1,181.4,706.3,181.4z"/>
	<path d="M725,198.3c2-0.2,3.4-0.6,4.3-0.9c1.5-0.6,2.3-1.7,2.3-3c0-1.7-0.6-2.8-1.8-3.5c-1.2-0.6-2.9-1-5.2-1
		c-2.6,0-4.4,0.6-5.4,1.9c-0.8,0.9-1.3,2.2-1.5,3.7h-10.3c0.2-3.6,1.2-6.5,3-8.8c2.8-3.6,7.7-5.4,14.6-5.4c4.5,0,8.5,0.9,11.9,2.7
		s5.2,5.1,5.2,10v18.7c0,1.3,0,2.9,0.1,4.7c0.1,1.4,0.3,2.3,0.6,2.8s0.9,0.9,1.6,1.2v1.6h-11.6c-0.3-0.8-0.5-1.6-0.7-2.3
		c-0.1-0.7-0.2-1.5-0.3-2.5c-1.5,1.6-3.2,3-5.1,4.1c-2.3,1.3-4.9,2-7.8,2c-3.7,0-6.8-1.1-9.2-3.2s-3.6-5.1-3.6-9
		c0-5,1.9-8.6,5.8-10.9c2.1-1.2,5.3-2.1,9.4-2.6L725,198.3z M731.5,203.3c-0.7,0.4-1.4,0.8-2.1,1c-0.7,0.3-1.6,0.5-2.9,0.7l-2.4,0.4
		c-2.3,0.4-3.9,0.9-4.9,1.5c-1.7,1-2.5,2.5-2.5,4.5c0,1.8,0.5,3.1,1.5,3.9s2.3,1.2,3.7,1.2c2.3,0,4.5-0.7,6.4-2c2-1.3,3-3.8,3.1-7.4
		V203.3z"/>
	<path d="M779.8,184.7c2.7,2.2,4,5.9,4,11v27.5h-10.9v-24.8c0-2.1-0.3-3.8-0.9-4.9c-1-2.1-3-3.1-5.9-3.1c-3.6,0-6.1,1.5-7.4,4.6
		c-0.7,1.6-1,3.7-1,6.2v22.1h-10.7v-40.7h10.3v5.9c1.4-2.1,2.7-3.6,3.9-4.5c2.2-1.6,5-2.5,8.3-2.5
		C773.6,181.4,777.1,182.5,779.8,184.7z"/>
	<path d="M810.7,183c1.9,1.1,3.5,2.6,4.7,4.5V168h10.8v55.1h-10.4v-5.6c-1.5,2.4-3.3,4.2-5.2,5.3s-4.4,1.6-7.3,1.6
		c-4.8,0-8.8-1.9-12-5.8c-3.3-3.9-4.9-8.8-4.9-14.8c0-7,1.6-12.4,4.8-16.4s7.5-6,12.9-6C806.6,181.4,808.8,181.9,810.7,183z
		 M813.3,212c1.6-2.2,2.4-5.2,2.4-8.7c0-5-1.3-8.6-3.8-10.7c-1.5-1.3-3.3-1.9-5.4-1.9c-3.1,0-5.4,1.2-6.9,3.5s-2.2,5.3-2.2,8.8
		c0,3.8,0.7,6.8,2.2,9c1.5,2.3,3.7,3.4,6.8,3.4C809.5,215.4,811.7,214.3,813.3,212z"/>
	<path d="M839.6,210.1c0.2,1.9,0.7,3.2,1.5,4c1.3,1.4,3.8,2.1,7.4,2.1c2.1,0,3.8-0.3,5-0.9c1.2-0.6,1.9-1.6,1.9-2.8
		c0-1.2-0.5-2.1-1.5-2.7c-1-0.6-4.7-1.7-11.2-3.2c-4.6-1.1-7.9-2.6-9.8-4.3c-1.9-1.7-2.8-4.1-2.8-7.3c0-3.8,1.5-7,4.4-9.7
		c3-2.7,7.1-4.1,12.5-4.1c5.1,0,9.3,1,12.5,3c3.2,2,5.1,5.5,5.5,10.5h-10.7c-0.2-1.4-0.5-2.5-1.2-3.3c-1.2-1.4-3.2-2.2-6-2.2
		c-2.3,0-4,0.4-5,1.1c-1,0.7-1.5,1.6-1.5,2.5c0,1.2,0.5,2.1,1.6,2.7c1,0.6,4.8,1.6,11.1,3c4.2,1,7.4,2.5,9.6,4.5
		c2.1,2,3.1,4.6,3.1,7.7c0,4-1.5,7.3-4.5,9.9c-3,2.6-7.7,3.8-14,3.8c-6.4,0-11.2-1.4-14.2-4.1c-3.1-2.7-4.6-6.2-4.6-10.3H839.6z"/>
</g>
</svg>
