<?xml version="1.0" encoding="utf-8"?>
<!-- Generator: Adobe Illustrator 18.0.0, SVG Export Plug-In . SVG Version: 6.00 Build 0)  -->
<!DOCTYPE svg PUBLIC "-//W3C//DTD SVG 1.1//EN" "http://www.w3.org/Graphics/SVG/1.1/DTD/svg11.dtd">
<svg version="1.1" id="Layer_1" xmlns="http://www.w3.org/2000/svg" xmlns:xlink="http://www.w3.org/1999/xlink" x="0px" y="0px"
	 viewBox="271 257.7 300 79.7" enable-background="new 271 257.7 300 79.7" xml:space="preserve">
<g>
	<path fill="#FFFFFF" d="M302.4,315.3c-2.9,3.1-6.7,4.8-11.4,4.8c-3.3,0-6.5-0.9-8.9-2.3c0.2,1,0.2,2.3,0.2,3.5v13.3l-10.7,2.8
		v-49.1c0-5.6-0.1-7.2-0.7-10.7l9.9-1.8c0.4,1.5,0.7,2.7,0.8,4c1.9-2.3,6.2-4,10.5-4c3,0,6.1,1,8.4,2.6c4.6,3.1,7.9,8.6,7.9,18.4
		C308.3,305.9,306.8,310.6,302.4,315.3z M295.1,288.5c-0.9-2.3-2.6-3.6-5.3-3.6s-5.4,1.2-7.4,3.3v20.7c1.5,1.3,3.9,2.5,6.2,2.5
		c5.5,0,7.7-3.8,7.7-13.5C296.2,293.8,295.9,290.6,295.1,288.5z"/>
	<path fill="#FFFFFF" d="M324.6,301.4v0.4c0,6.6,3.3,10.3,9,10.3c3.8,0,7.4-1.4,10.8-4.3l4.3,6.7c-4.9,4-10.1,5.9-16,5.9
		c-12.2,0-20.1-8.6-20.1-22c0-7.7,1.6-12.7,5.3-16.9c3.5-3.9,7.7-5.7,13.4-5.7c4.9,0,9.6,1.7,12.3,4.5c3.9,4,5.7,9.7,5.7,18.6v2.6
		L324.6,301.4L324.6,301.4z M337.7,292.8c0-3.2-0.4-4.8-1.4-6.4c-1.1-1.7-2.7-2.5-4.9-2.5c-4.3,0-6.7,3.3-6.7,9.2v0.2h12.9
		L337.7,292.8L337.7,292.8z"/>
	<path fill="#FFFFFF" d="M384.6,316.7c-2.9,2.3-5.8,3.3-9.3,3.3c-4.2,0-7.1-1.3-9.5-3.9c-0.4,1.5-0.4,1.9-1.2,3.1h-10
		c0.9-1.9,1.1-3.2,1.1-9.1v-39.3c0-5.2-0.2-8.1-0.8-10.5l11.3-2.7c0.4,2.9,0.4,4.7,0.4,7.6v10.1c0,1.3-0.1,3.1-0.3,3.8
		c2.2-2.3,5.2-3.4,9.1-3.4c10.4,0,16.9,8.3,16.9,21.6C392.4,305.8,389.8,312.5,384.6,316.7z M379.3,290.2c-0.9-3.7-3.2-5.4-6.1-5.4
		s-4.9,1.8-6.3,3.4v19.6c1.5,1.4,3.3,2.8,6.2,2.8c2.8,0,4.5-1.1,5.4-3.3c1-2.3,1.3-4.6,1.3-9.8C379.8,293.6,379.7,292.1,379.3,290.2
		z"/>
	<path fill="#FFFFFF" d="M428.2,316.7c-2.9,2.3-5.8,3.3-9.3,3.3c-4.2,0-7.1-1.3-9.5-3.9c-0.4,1.5-0.4,1.9-1.2,3.1h-10
		c0.9-1.9,1.1-3.2,1.1-9.1v-39.3c0-5.2-0.2-8.1-0.8-10.5l11.4-2.7c0.4,2.9,0.4,4.7,0.4,7.6v10.1c0,1.3-0.1,3.1-0.3,3.8
		c2.2-2.3,5.2-3.4,9.1-3.4c10.4,0,16.9,8.3,16.9,21.6C436.1,305.8,433.4,312.5,428.2,316.7z M423,290.2c-0.9-3.7-3.2-5.4-6.1-5.4
		s-4.9,1.8-6.3,3.4v19.6c1.5,1.4,3.3,2.8,6.2,2.8c2.8,0,4.5-1.1,5.4-3.3c1-2.3,1.3-4.6,1.3-9.8C423.5,293.6,423.4,292.1,423,290.2z"
		/>
	<path fill="#FFFFFF" d="M453.8,320.2c-4.8,0-8.6-2.3-9.9-5.8c-0.9-2.2-1-3.5-1-9.6v-31.7c0-5.6-0.2-9-0.6-12.8l11.4-2.6
		c0.4,2.3,0.6,5.1,0.6,11.1V302c0,7.3,0.1,8.3,0.8,9.5c0.4,0.8,1.4,1.2,2.3,1.2c0.4,0,0.7,0,1.3-0.2l1.9,6.7
		C458.6,319.8,456.2,320.2,453.8,320.2z"/>
	<path fill="#FFFFFF" d="M473.7,301.4v0.4c0,6.6,3.3,10.3,9,10.3c3.8,0,7.4-1.4,10.8-4.3l4.3,6.7c-4.9,4-10.1,5.9-16,5.9
		c-12.2,0-20.1-8.6-20.1-22c0-7.7,1.6-12.7,5.3-16.9c3.5-3.9,7.7-5.7,13.4-5.7c4.9,0,9.6,1.7,12.3,4.5c3.9,4,5.7,9.7,5.7,18.6v2.6
		L473.7,301.4L473.7,301.4z M486.7,292.8c0-3.2-0.4-4.8-1.4-6.4c-1.1-1.7-2.7-2.5-4.9-2.5c-4.3,0-6.7,3.3-6.7,9.2v0.2h12.9
		L486.7,292.8L486.7,292.8z"/>
	<path fill="#FFFFFF" d="M514.2,320.5c-4.1,0-7.3-3.3-7.3-7.4c0-4,3.3-7.2,7.2-7.2c4.1,0,7.4,3.3,7.4,7.2
		C521.5,317.2,518.2,320.5,514.2,320.5z"/>
	<path fill="#FFFFFF" d="M535.6,271.9c-3.8,0-6.8-3.1-6.8-6.9s3.2-6.9,7-6.9c3.8,0,6.7,3.1,6.7,6.9S539.4,271.9,535.6,271.9z
		 M530,319.2v-41.7l11.1-1.8v43.5H530z"/>
	<path fill="#FFFFFF" d="M562,320.2c-5.7,0-10.1-2.5-11.5-6.2c-0.7-1.8-0.8-2.7-0.8-6.6v-23.1h-4.3v-7.6h4.3c0-4.2,0-6.9,0.4-10.1
		l11.3-2.8c-0.4,3.9-0.7,8.6-0.7,12.9h10l-2.8,7.7h-7.2v21.3c0,5.4,1,6.8,4.8,6.8c1,0,2-0.3,4-0.9l1.4,6.7
		C567.8,319.6,564.9,320.2,562,320.2z"/>
</g>
</svg>
