<?xml version="1.0" encoding="utf-8"?>
<!-- Generator: Adobe Illustrator 17.1.0, SVG Export Plug-In . SVG Version: 6.00 Build 0)  -->
<!DOCTYPE svg PUBLIC "-//W3C//DTD SVG 1.1//EN" "http://www.w3.org/Graphics/SVG/1.1/DTD/svg11.dtd">
<svg version="1.1" id="Layer_1" xmlns="http://www.w3.org/2000/svg" xmlns:xlink="http://www.w3.org/1999/xlink" x="0px" y="0px"
	 width="169px" height="60px" viewBox="190 0 169 60" enable-background="new 190 0 169 60" xml:space="preserve">
<g>
	<g>
		<path fill="#FFFFFF" d="M214,43.2c-2.1,2.3-5,3.5-8.4,3.5c-2.4,0-4.8-0.6-6.5-1.7c0.1,0.7,0.1,1.7,0.1,2.6v9.8l-7.9,2.1V23.1
			c0-4.1-0.1-5.3-0.5-7.9l7.3-1.3c0.3,1.1,0.5,2,0.6,3c1.4-1.7,4.5-3,7.7-3c2.2,0,4.5,0.7,6.2,1.9c3.4,2.3,5.8,6.3,5.8,13.6
			C218.4,36.2,217.3,39.7,214,43.2z M208.6,23.2c-0.6-1.7-1.9-2.6-3.9-2.6s-4,0.9-5.5,2.4v15.3c1.1,0.9,2.9,1.8,4.5,1.8
			c4,0,5.7-2.8,5.7-9.9C209.4,27.2,209.2,24.8,208.6,23.2z"/>
		<path fill="#FFFFFF" d="M230.5,32.9v0.3c0,4.8,2.4,7.6,6.6,7.6c2.8,0,5.5-1,8-3.1l3.2,4.9c-3.6,3-7.4,4.4-11.8,4.4
			c-9,0-14.8-6.4-14.8-16.3c0-5.7,1.2-9.4,3.9-12.5c2.6-2.9,5.7-4.2,9.9-4.2c3.6,0,7.1,1.2,9.1,3.3c2.9,3,4.2,7.2,4.2,13.8V33
			L230.5,32.9L230.5,32.9z M240.2,26.5c0-2.3-0.3-3.5-1-4.7c-0.8-1.2-2-1.8-3.6-1.8c-3.1,0-4.9,2.4-4.9,6.8v0.1h9.5V26.5L240.2,26.5
			z"/>
		<path fill="#FFFFFF" d="M274.9,44.2c-2.1,1.7-4.3,2.4-6.9,2.4c-3.1,0-5.2-0.9-7-2.9c-0.3,1.1-0.3,1.4-0.9,2.3h-7.4
			c0.6-1.4,0.8-2.3,0.8-6.7v-29c0-3.8-0.1-6-0.6-7.7l8.4-2c0.3,2.1,0.3,3.4,0.3,5.6v7.4c0,0.9-0.1,2.3-0.2,2.8
			c1.6-1.7,3.8-2.5,6.7-2.5c7.7,0,12.5,6.1,12.5,15.9C280.7,36.2,278.7,41.1,274.9,44.2z M271,24.5c-0.6-2.7-2.3-4-4.5-4
			c-2.2,0-3.6,1.3-4.7,2.5v14.5c1.1,1,2.4,2,4.6,2c2,0,3.3-0.8,4-2.4c0.7-1.7,0.9-3.4,0.9-7.2C271.4,27,271.3,25.9,271,24.5z"/>
		<path fill="#FFFFFF" d="M307.1,44.2c-2.1,1.7-4.3,2.4-6.9,2.4c-3.1,0-5.2-0.9-7-2.9c-0.3,1.1-0.3,1.4-0.9,2.3h-7.4
			c0.6-1.4,0.8-2.3,0.8-6.7v-29c0-3.8-0.1-6-0.6-7.7l8.4-2c0.3,2.1,0.3,3.4,0.3,5.6v7.4c0,0.9-0.1,2.3-0.2,2.8
			c1.6-1.7,3.8-2.5,6.7-2.5c7.7,0,12.5,6.1,12.5,15.9C312.9,36.2,311,41.1,307.1,44.2z M303.3,24.5c-0.6-2.7-2.3-4-4.5-4
			c-2.1,0-3.6,1.3-4.7,2.5v14.5c1.1,1,2.4,2,4.6,2c2,0,3.3-0.8,4-2.4c0.7-1.7,0.9-3.4,0.9-7.2C303.6,27,303.6,25.9,303.3,24.5z"/>
		<path fill="#FFFFFF" d="M326.2,46.8c-3.5,0-6.3-1.7-7.3-4.3c-0.6-1.6-0.7-2.6-0.7-7.1V11.9c0-4.1-0.1-6.6-0.4-9.4l8.4-1.9
			c0.3,1.7,0.4,3.7,0.4,8.2v24.5c0,5.4,0.1,6.1,0.6,7c0.3,0.6,1,0.9,1.7,0.9c0.3,0,0.5,0,0.9-0.1l1.4,4.9
			C329.7,46.5,327.9,46.8,326.2,46.8z"/>
		<path fill="#FFFFFF" d="M340.8,32.9v0.3c0,4.8,2.4,7.6,6.6,7.6c2.8,0,5.5-1,8-3.1l3.2,4.9c-3.6,3-7.4,4.4-11.8,4.4
			c-9,0-14.8-6.4-14.8-16.3c0-5.7,1.2-9.4,3.9-12.5c2.6-2.9,5.7-4.2,9.9-4.2c3.6,0,7.1,1.2,9.1,3.3c2.9,3,4.2,7.2,4.2,13.8V33
			L340.8,32.9L340.8,32.9z M350.5,26.5c0-2.3-0.3-3.5-1-4.7c-0.8-1.2-2-1.8-3.6-1.8c-3.1,0-4.9,2.4-4.9,6.8v0.1h9.5V26.5L350.5,26.5
			z"/>
	</g>
</g>
</svg>
