<?xml version="1.0" encoding="utf-8"?>
<!-- Generator: Adobe Illustrator 18.0.0, SVG Export Plug-In . SVG Version: 6.00 Build 0)  -->
<!DOCTYPE svg PUBLIC "-//W3C//DTD SVG 1.1//EN" "http://www.w3.org/Graphics/SVG/1.1/DTD/svg11.dtd">
<svg version="1.1" id="Layer_1" xmlns="http://www.w3.org/2000/svg" xmlns:xlink="http://www.w3.org/1999/xlink" x="0px" y="0px"
	 viewBox="0 0 300 138.1" enable-background="new 0 0 300 138.1" xml:space="preserve">
<path fill-rule="evenodd" clip-rule="evenodd" fill="#FFFFFF" d="M32.1,47.1c0.1-1.2,0.5-2.5-0.5-3.2c-1.1-0.7-4.6-1.1-5.9,1.1
	C24.5,47.1,5.4,74.1,2.6,77.5c-2.8,3.4-4.3,9.4,0.7,11.2c5,1.8,6.8-0.9,8.2-2.6c1.4-1.7,10.2-19.4,11.7-21.2c1.5-1.8,3.6-1.2,3.6,0
	c0,1.2,1.2,15.5,7.8,20.3s14,5.7,22-1.4c1.4-1.2,2-0.5,2.7,0.5c0.7,1.1,5,6.6,12.4,4.1c7.5-2.5,13.7-7.8,17.8-12.1
	c-1.1,4.4-1.2,10.7,1.1,12.6c2.3,2,9.1,4.2,15.3-2c0.7-0.7,3.9-2.3,2.1,1.1c-1.8,3.4-15.5,30.9-18,35.6c-2.5,4.6-5,10.8-0.4,13.7
	c4.6,2.8,8.9-1.7,10.5-5.3c1.6-3.7,16.2-39.5,19.2-45.9c3-6.4,11.4-21.6,21.7-27.2c6.2-3.4,11-1.6,7.6,2.7
	c-3.4,4.3-8.2,10.5-10.3,15.1c-2.1,4.6-4.1,12.4,3,15.1c7.1,2.7,15.1-3.8,19.7-8c1.8-1.6,2.5-1.2,1.6,0.9c-0.9,2.1-1.6,8.2,2.3,8.5
	c3.9,0.4,6.6-2,8.4-6c1.8-4.1,6.6-16.6,19.6-26c6.4-4.6,14.6-4.1,11.2,1.1c-3.4,5.2-10.3,12.3-11.9,16.4c-1.6,4.1-3,11.2,3.4,14
	c6.4,2.8,14.6-0.3,21.7-7.5c1.4-1.4,2.5-0.5,2.5,1.8c0,2.3,4.3,8.7,12.1,6.6c7.8-2.1,15.2-8.3,18.3-11c1.6-1.4,2,0,1.8,2.1
	c-0.2,2.1,1.4,9.4,6.4,10.1c5,0.7,13-2.3,15.5-5.7c2.5-3.4,0.2-8.7-3.2-7.6c-3.4,1.1-7.1,3-6.8-0.9c0.4-3.9,3.7-13.3,5.5-16.5
	c1.8-3.2,4.8-8.3-0.5-10.5c-3.8-1.6-5.3-1.1-6.4,0.2c-1.1,1.2-2.7,0.5-3.9-0.7c-1.2-1.2-9.9-4.2-16.4-1.4
	c-6.4,2.8-8.2,4.1-13.9,10.8c-5.7,6.8-13.3,17.2-17.2,19.4c-3.9,2.1-9.6,1.4-6.8-3.6c2.8-5,13.6-17.3,13.5-22.8
	c-0.1-5.5-5.6-11.6-14.9-8.2c-6.4,2.3-12.1,5.7-13.5,7.1c-1.5,1.4-2.1,0.4-0.7-1.9c1.4-2.3,19.2-35.7,22.9-42.5
	c3.7-6.8,1.2-11.6-4.8-9.4c-6,2.1-7.1,5.3-8.7,8.7c-1.6,3.4-19.6,44.6-23.3,50.3c-3.7,5.7-16.2,19-18.8,20.8
	c-2.7,1.8-10.5,3.6-5.7-4.4c4.8-8,16.3-19.6,10.3-26.5c-4.3-4.9-8.3-4.3-13.6-2.6c-5.3,1.8-11.1,6.7-12.7,8.1
	c-1.6,1.4-2.7,1.6-2.1-0.9c0.5-2.5,1.1-7.1-4.1-6.6c-4.4,0.5-4.4,3.1-5.3,5c-0.9,1.8-5,13.9-9.2,19c-4.3,5.2-11.9,11-12.3,5.7
	c-0.4-5.3,3.6-13.9,5.9-17.4c2.3-3.6,2.7-7.8-0.5-9.1c-3.2-1.2-5.9-0.7-6.8,0.7c-0.9,1.4-0.4,0.9-2.5-0.7
	c-2.1-1.6-10.6-6.6-20.1-0.7c-9.4,5.9-15.1,14.4-18.1,23.6c-5,4.6-6.2,5.7-11,5.2c-4.8-0.5-10.7-7.7-12-15.6
	c2.7-0.5,10.6-2.8,17.3-6.3c6.6-3.5,21.5-11.7,20.9-29.8C73.7,9,54.2,2.5,38.2,7.7c-16,5.2-28.1,16.1-32.1,22.6
	c-4,6.6-1.7,11.6,3.7,10.8c5.4-0.8,5.8-5.8,8.5-10c2.7-4.2,11.3-14.4,22.3-15c11-0.6,24.5-0.1,19.1,22.7
	c-2.7,11.4-19.8,15.2-23.9,15.8c0-2.5,0-3.8-0.3-5.6C35,47.3,34.8,46.5,32.1,47.1L32.1,47.1z M91.5,63.5c-1.6,1.6-6.2,7.3-10,10.9
	c-3.8,3.6-11.7,6.2-11.3-0.5c0.4-6.7,4.8-13,9.3-15C84,56.8,91,58.4,91.5,63.5L91.5,63.5z M253.6,67.4c-1.6,1.6-6.2,7.3-10,10.9
	c-3.8,3.6-11.7,6.2-11.3-0.5c0.4-6.7,4.8-13,9.3-15C246.1,60.7,253,62.4,253.6,67.4L253.6,67.4z M290.4,88.5v-7.6h2.9
	c0.7,0,1.3,0.1,1.6,0.2c0.3,0.1,0.6,0.4,0.8,0.7c0.2,0.3,0.3,0.7,0.3,1.2c0,0.6-0.2,1-0.5,1.4c-0.3,0.4-0.8,0.6-1.3,0.7
	c0.3,0.2,0.5,0.4,0.7,0.6c0.2,0.2,0.5,0.6,0.8,1.2l0.8,1.5h-1.6l-1-1.6c-0.4-0.6-0.6-1-0.7-1.1c-0.1-0.2-0.3-0.3-0.4-0.3
	c-0.1-0.1-0.4-0.1-0.7-0.1h-0.3v3.2H290.4L290.4,88.5L290.4,88.5z M291.8,84.1h1c0.7,0,1.1,0,1.2-0.1c0.2-0.1,0.3-0.2,0.4-0.3
	c0.1-0.2,0.1-0.3,0.1-0.6c0-0.3-0.1-0.5-0.2-0.6c-0.1-0.2-0.3-0.3-0.5-0.3c-0.1,0-0.4,0-1,0h-1.1V84.1L291.8,84.1L291.8,84.1z
	 M300,84.7c0-3.8-3.1-6.9-6.9-6.9c-3.8,0-6.9,3.1-6.9,6.9s3.1,6.9,6.9,6.9C296.9,91.6,300,88.5,300,84.7L300,84.7z M299.1,84.7
	c0-3.3-2.7-6-6-6s-6,2.7-6,6s2.7,6,6,6S299.1,88.1,299.1,84.7L299.1,84.7z"/>
</svg>
