<?xml version="1.0" encoding="utf-8"?>
<!-- Generator: Adobe Illustrator 18.0.0, SVG Export Plug-In . SVG Version: 6.00 Build 0)  -->
<!DOCTYPE svg PUBLIC "-//W3C//DTD SVG 1.1//EN" "http://www.w3.org/Graphics/SVG/1.1/DTD/svg11.dtd">
<svg version="1.1" id="Layer_1" xmlns="http://www.w3.org/2000/svg" xmlns:xlink="http://www.w3.org/1999/xlink" x="0px" y="0px"
	 viewBox="0 0 358.6 58.9" enable-background="new 0 0 358.6 58.9" xml:space="preserve">
<g>
	<path fill="#FFFFFF" d="M34,45.4h-7.6l-2.8-10.8c-0.7-2.5-1.4-5.5-1.8-7.6l-0.5-3.1c-0.2,1.4-0.2,1.8-0.7,4.1
		c-0.6,2.7-2,8.1-2.7,11.1l-1.6,6.5H8.6L0,14.4l8.2-0.9l2.6,12.1c0.7,3.3,1.6,8.5,1.8,9.8c0.4-2.4,1.3-7.4,2.3-10.9l3-10.6h7.7
		L28,24.3c1.2,5.2,2.2,10.1,2.3,11.1c0.2-1.4,0.9-6.3,1.7-10.3l2.4-11.2H43L34,45.4z"/>
	<path fill="#FFFFFF" d="M53.7,32.2v0.2c0,4.9,2.4,7.6,6.6,7.6c2.8,0,5.5-1,8-3.1l3.2,4.9c-3.6,3-7.4,4.4-11.9,4.4
		c-9,0-14.9-6.4-14.9-16.3c0-5.7,1.2-9.4,3.9-12.5c2.6-2.9,5.7-4.2,9.9-4.2c3.6,0,7.1,1.2,9.1,3.3c2.9,3,4.2,7.2,4.2,13.8v1.9H53.7z
		 M63.3,25.8c0-2.3-0.2-3.6-1-4.7c-0.8-1.2-2-1.8-3.6-1.8c-3.1,0-4.9,2.5-4.9,6.8v0.1h9.5V25.8z"/>
	<path fill="#FFFFFF" d="M112.6,47c-1.9-0.8-3.6-2.2-4.4-3.8c-0.6,0.6-1.3,1.2-1.9,1.7c-1.5,1.1-3.7,1.7-6.3,1.7
		c-7,0-10.8-3.6-10.8-9.8c0-7.4,5.1-10.8,15.1-10.8c0.6,0,1.2,0,1.8,0.1v-1.3c0-3.5-0.7-4.7-3.7-4.7c-2.6,0-5.7,1.3-9.1,3.6
		l-3.5-5.9c1.7-1,2.9-1.7,5.1-2.6c3.1-1.3,5.7-1.8,8.6-1.8c5.3,0,8.9,2,10.1,5.5c0.4,1.3,0.6,2.3,0.6,5.7l-0.2,10.6
		c-0.1,3.4,0.2,4.9,3,7L112.6,47z M105.6,31.6c-5.7,0-7.7,1-7.7,4.8c0,2.5,1.5,4.1,3.6,4.1c1.5,0,3.1-0.8,4.3-2.2l0.1-6.8H105.6z"/>
	<path fill="#FFFFFF" d="M137.9,21.1c-0.8-0.4-1.5-0.6-2.4-0.6c-1.8,0-3.5,0.9-5,2.6v22.3h-8.2v-21c0-4.2-0.5-7.4-1.2-9.2l7.4-2
		c0.7,1.3,1.2,2.7,1.3,4.5c1.8-2.4,4.3-4.5,7.4-4.5c1.2,0,1.8,0.1,3.1,0.7L137.9,21.1z"/>
	<path fill="#FFFFFF" d="M150.2,32.2v0.2c0,4.9,2.4,7.6,6.6,7.6c2.8,0,5.5-1,8-3.1l3.2,4.9c-3.6,3-7.4,4.4-11.9,4.4
		c-9,0-14.9-6.4-14.9-16.3c0-5.7,1.2-9.4,3.9-12.5c2.6-2.9,5.7-4.2,9.9-4.2c3.6,0,7.1,1.2,9.1,3.3c2.9,3,4.2,7.2,4.2,13.8v1.9H150.2
		z M159.9,25.8c0-2.3-0.2-3.6-1-4.7c-0.8-1.2-2-1.8-3.6-1.8c-3.1,0-4.9,2.5-4.9,6.8v0.1h9.5V25.8z"/>
	<g>
		<path fill="#FFFFFF" d="M213.8,42.6c-2.1,2.3-5,3.5-8.4,3.5c-2.4,0-4.8-0.6-6.5-1.7c0.1,0.7,0.1,1.7,0.1,2.6v9.8l-7.9,2.1V22.6
			c0-4.1-0.1-5.3-0.5-7.9l7.3-1.3c0.3,1.1,0.5,2,0.6,3c1.4-1.7,4.5-3,7.7-3c2.2,0,4.5,0.7,6.2,1.9c3.4,2.3,5.8,6.3,5.8,13.6
			C218.2,35.6,217.1,39.1,213.8,42.6z M208.4,22.7c-0.6-1.7-1.9-2.6-3.9-2.6s-4,0.9-5.5,2.4v15.3c1.1,0.9,2.9,1.8,4.5,1.8
			c4,0,5.7-2.8,5.7-9.9C209.2,26.7,209,24.3,208.4,22.7z"/>
		<path fill="#FFFFFF" d="M230.2,32.3v0.3c0,4.8,2.4,7.6,6.6,7.6c2.8,0,5.5-1,8-3.1L248,42c-3.6,3-7.4,4.4-11.8,4.4
			c-9,0-14.8-6.4-14.8-16.3c0-5.7,1.2-9.4,3.9-12.5c2.6-2.9,5.7-4.2,9.9-4.2c3.6,0,7.1,1.2,9.1,3.3c2.9,3,4.2,7.2,4.2,13.8v1.9
			L230.2,32.3L230.2,32.3z M239.9,26c0-2.3-0.3-3.5-1-4.7c-0.8-1.2-2-1.8-3.6-1.8c-3.1,0-4.9,2.4-4.9,6.8v0.1h9.5L239.9,26L239.9,26
			z"/>
		<path fill="#FFFFFF" d="M274.6,43.6c-2.1,1.7-4.3,2.4-6.9,2.4c-3.1,0-5.2-0.9-7-2.9c-0.3,1.1-0.3,1.4-0.9,2.3h-7.4
			c0.6-1.4,0.8-2.3,0.8-6.7v-29c0-3.8-0.1-6-0.6-7.7l8.4-2c0.3,2.1,0.3,3.4,0.3,5.6V13c0,0.9-0.1,2.3-0.2,2.8
			c1.6-1.7,3.8-2.5,6.7-2.5c7.7,0,12.5,6.1,12.5,15.9C280.4,35.6,278.4,40.5,274.6,43.6z M270.7,24c-0.6-2.7-2.3-4-4.5-4
			s-3.6,1.3-4.7,2.5V37c1.1,1,2.4,2,4.6,2c2,0,3.3-0.8,4-2.4c0.7-1.7,0.9-3.4,0.9-7.2C271.1,26.5,271,25.4,270.7,24z"/>
		<path fill="#FFFFFF" d="M306.8,43.6c-2.1,1.7-4.3,2.4-6.9,2.4c-3.1,0-5.2-0.9-7-2.9c-0.3,1.1-0.3,1.4-0.9,2.3h-7.4
			c0.6-1.4,0.8-2.3,0.8-6.7v-29c0-3.8-0.1-6-0.6-7.7l8.4-2c0.3,2.1,0.3,3.4,0.3,5.6V13c0,0.9-0.1,2.3-0.2,2.8
			c1.6-1.7,3.8-2.5,6.7-2.5c7.7,0,12.5,6.1,12.5,15.9C312.6,35.6,310.7,40.5,306.8,43.6z M303,24c-0.6-2.7-2.3-4-4.5-4
			c-2.1,0-3.6,1.3-4.7,2.5V37c1.1,1,2.4,2,4.6,2c2,0,3.3-0.8,4-2.4c0.7-1.7,0.9-3.4,0.9-7.2C303.3,26.5,303.3,25.4,303,24z"/>
		<path fill="#FFFFFF" d="M325.8,46.2c-3.5,0-6.3-1.7-7.3-4.3c-0.6-1.6-0.7-2.6-0.7-7.1V11.4c0-4.1-0.1-6.6-0.4-9.4l8.4-1.9
			c0.3,1.7,0.4,3.7,0.4,8.2v24.5c0,5.4,0.1,6.1,0.6,7c0.3,0.6,1,0.9,1.7,0.9c0.3,0,0.5,0,0.9-0.1l1.4,4.9
			C329.3,45.9,327.5,46.2,325.8,46.2z"/>
		<path fill="#FFFFFF" d="M340.4,32.3v0.3c0,4.8,2.4,7.6,6.6,7.6c2.8,0,5.5-1,8-3.1l3.2,4.9c-3.6,3-7.4,4.4-11.8,4.4
			c-9,0-14.8-6.4-14.8-16.3c0-5.7,1.2-9.4,3.9-12.5c2.6-2.9,5.7-4.2,9.9-4.2c3.6,0,7.1,1.2,9.1,3.3c2.9,3,4.2,7.2,4.2,13.8v1.9
			L340.4,32.3L340.4,32.3z M350.1,26c0-2.3-0.3-3.5-1-4.7c-0.8-1.2-2-1.8-3.6-1.8c-3.1,0-4.9,2.4-4.9,6.8v0.1h9.5L350.1,26L350.1,26
			z"/>
	</g>
</g>
</svg>
