<?xml version="1.0" encoding="utf-8"?>
<!-- Generator: Adobe Illustrator 18.0.0, SVG Export Plug-In . SVG Version: 6.00 Build 0)  -->
<!DOCTYPE svg PUBLIC "-//W3C//DTD SVG 1.1//EN" "http://www.w3.org/Graphics/SVG/1.1/DTD/svg11.dtd">
<svg version="1.1" id="Layer_1" xmlns="http://www.w3.org/2000/svg" xmlns:xlink="http://www.w3.org/1999/xlink" x="0px" y="0px"
	 viewBox="158 74.3 600 105.2" enable-background="new 158 74.3 600 105.2" xml:space="preserve">
<g>
	<g>
		<path fill="#E95080" d="M199.5,150.2c-3.8,4-8.9,6.3-15,6.3c-4.4,0-8.5-1.1-11.7-3c0.2,1.3,0.2,3,0.2,4.6v17.5l-14.1,3.7v-64.8
			c0-7.3-0.1-9.4-0.9-14.1l13-2.3c0.5,2,0.9,3.5,1,5.3c2.5-3.1,8.1-5.3,13.8-5.3c3.9,0,8,1.3,11.1,3.4c6,4,10.4,11.3,10.4,24.2
			C207.3,137.9,205.3,144,199.5,150.2z M189.9,114.9c-1.1-3.1-3.4-4.7-7-4.7c-3.6,0-7.1,1.5-9.7,4.3v27.2c2,1.6,5.1,3.3,8.1,3.3
			c7.2,0,10.1-4.9,10.1-17.7C191.3,121.9,190.9,117.6,189.9,114.9z"/>
		<path fill="#E95080" d="M228.6,132v0.4c0,8.6,4.3,13.6,11.8,13.6c5,0,9.7-1.9,14.2-5.6l5.7,8.8c-6.5,5.3-13.2,7.8-21.1,7.8
			c-16.1,0-26.5-11.4-26.5-29c0-10.1,2.1-16.7,7-22.2c4.6-5.1,10.2-7.6,17.6-7.6c6.5,0,12.6,2.2,16.2,5.9c5.1,5.3,7.4,12.8,7.4,24.5
			v3.4L228.6,132L228.6,132L228.6,132z M245.8,120.6c0-4.2-0.4-6.3-1.8-8.4c-1.4-2.2-3.5-3.3-6.5-3.3c-5.6,0-8.8,4.4-8.8,12.1v0.2
			h17L245.8,120.6L245.8,120.6z"/>
		<path fill="#E95080" d="M307.5,152.1c-3.8,3.1-7.7,4.4-12.3,4.4c-5.5,0-9.3-1.6-12.5-5.1c-0.4,2-0.5,2.5-1.5,4h-13.1
			c1.1-2.5,1.4-4.2,1.4-11.9V91.6c0-6.9-0.2-10.6-1-13.8l15-3.5c0.4,3.8,0.5,6.1,0.5,10v13.2c0,1.6-0.1,4-0.3,4.9
			c2.8-3.1,6.8-4.5,11.9-4.5c13.7,0,22.2,10.9,22.2,28.5C317.9,137.8,314.4,146.6,307.5,152.1z M300.6,117.2c-1.1-4.8-4.2-7.1-8-7.1
			c-3.8,0-6.5,2.4-8.3,4.5v25.8c2,1.7,4.3,3.6,8.2,3.6c3.6,0,5.9-1.4,7.1-4.4c1.3-3.1,1.6-6,1.6-12.9
			C301.2,121.7,301.1,119.6,300.6,117.2z"/>
		<path fill="#E95080" d="M364.8,152.1c-3.8,3.1-7.7,4.4-12.3,4.4c-5.5,0-9.3-1.6-12.5-5.1c-0.4,2-0.5,2.5-1.5,4h-13.1
			c1.1-2.5,1.4-4.2,1.4-11.9V91.6c0-6.9-0.2-10.6-1-13.8l15-3.5c0.4,3.8,0.5,6.1,0.5,10v13.2c0,1.6-0.1,4-0.3,4.9
			c2.8-3.1,6.8-4.5,11.9-4.5c13.7,0,22.2,10.9,22.2,28.5C375.2,137.8,371.7,146.6,364.8,152.1z M357.9,117.2c-1.1-4.8-4.2-7.1-8-7.1
			s-6.5,2.4-8.3,4.5v25.8c2,1.7,4.3,3.6,8.2,3.6c3.6,0,5.9-1.4,7.1-4.4c1.3-3.1,1.6-6,1.6-12.9C358.6,121.7,358.5,119.6,357.9,117.2
			z"/>
		<path fill="#E95080" d="M398.4,156.7c-6.2,0-11.3-3-13-7.7c-1.1-2.8-1.3-4.6-1.3-12.6V94.6c0-7.3-0.2-11.8-0.8-16.9l15-3.4
			c0.5,3.1,0.8,6.7,0.8,14.6v43.7c0,9.6,0.1,10.9,1,12.5c0.5,1,1.8,1.5,3,1.5c0.5,0,0.9,0,1.6-0.2l2.5,8.8
			C404.7,156.1,401.6,156.7,398.4,156.7z"/>
		<path fill="#E95080" d="M424.4,132v0.4c0,8.6,4.3,13.6,11.8,13.6c5,0,9.7-1.9,14.2-5.6l5.7,8.8c-6.5,5.3-13.2,7.8-21.1,7.8
			c-16.1,0-26.5-11.4-26.5-29c0-10.1,2.1-16.7,7-22.2c4.6-5.1,10.2-7.6,17.6-7.6c6.5,0,12.6,2.2,16.2,5.9c5.1,5.3,7.4,12.8,7.4,24.5
			v3.4L424.4,132L424.4,132L424.4,132z M441.6,120.6c0-4.2-0.4-6.3-1.7-8.4c-1.4-2.2-3.5-3.3-6.5-3.3c-5.6,0-8.8,4.4-8.8,12.1v0.2
			h17V120.6z"/>
		<path fill="#E95080" d="M498.6,176.1c-7.8,0-14.1-4.6-14.1-16v-18.8c0-6.8-9.1-7.6-11.8-7.6v-12.5c2.7,0,11.8-0.8,11.8-7.5V94.8
			c0-11.4,6-15.9,14.1-15.9h11.5v12.5h-5.4c-6.7,0-7.1,4-7.1,7V116c0,10.2-6.3,10.9-10.9,11.4v0.2c4.6,0.3,10.9,1.1,10.9,11.3v17.7
			c0,3,0.4,7,7.1,7h5.4v12.5L498.6,176.1L498.6,176.1z"/>
		<path fill="#E95080" d="M549.3,153.2c-3.9,2.3-8.3,3.5-13.7,3.5c-15.4,0-24.4-10.7-24.4-28.9c0-12.9,4.9-21.4,11.5-25.9
			c3.7-2.5,9.2-4.2,13.9-4.2c3.7,0,7.8,0.9,10.8,2.5c2.1,1.1,3.1,1.9,5.5,3.9l-7.1,9.6c-3-2.7-6.1-4.4-8.9-4.4
			c-6.6,0-9.5,5.7-9.5,18.8c0,7.3,1,11.7,2.8,14.1c1.5,2,4,3.2,6.6,3.2c3.4,0,6.5-1.4,10.1-4.6l0.9-0.8l6.7,8.9
			C552.2,151.2,551.2,152,549.3,153.2z"/>
		<path fill="#E95080" d="M600,148.8c-4.3,4.8-9.9,7.8-18.5,7.8c-15.2,0-25.2-11.4-25.2-29c0-17.6,10.1-29.3,25.2-29.3
			c8,0,14.2,2.7,19,8.4c4.5,5.2,6.5,11.4,6.5,20.5C607,136.8,604.8,143.3,600,148.8z M588.1,112c-1.4-1.9-3.7-3-6.3-3
			c-3.5,0-6.3,2.2-7.6,5.7c-1,3-1.5,6.9-1.5,12.5c0,6.5,0.7,11.3,1.9,14.1c1.3,3.1,4.6,4.6,7.4,4.6c6.3,0,9.1-5.7,9.1-18.9
			C591,119.5,590,114.6,588.1,112z"/>
		<path fill="#E95080" d="M650,155.4c-0.4-0.9-0.7-1.8-0.9-3.3c-3.6,3.2-7.9,4.7-12.9,4.7c-14.2,0-23.2-11.1-23.2-28.5
			c0-17.5,9.7-29.5,24-29.5c4,0,7.2,1,10,3.2c-0.2-1.2-0.4-5-0.4-8.3V74.4l14.6,2.3v58.2c0,13.8,1.1,18.3,2.1,20.5L650,155.4
			L650,155.4L650,155.4z M646.7,114.1c-2.7-2.4-5.4-3.6-8-3.6c-6.6,0-9.4,5.5-9.4,17.9c0,12,2.5,16,10.2,16c2.7,0,5.8-1.9,7.2-3.6
			L646.7,114.1L646.7,114.1z"/>
		<path fill="#E95080" d="M686,132v0.4c0,8.6,4.3,13.6,11.8,13.6c5,0,9.7-1.9,14.2-5.6l5.7,8.8c-6.5,5.3-13.2,7.8-21.1,7.8
			c-16.1,0-26.5-11.4-26.5-29c0-10.1,2.1-16.7,7-22.2c4.6-5.1,10.2-7.6,17.6-7.6c6.5,0,12.6,2.2,16.2,5.9c5.1,5.3,7.4,12.8,7.4,24.5
			v3.4L686,132L686,132L686,132z M703.2,120.6c0-4.2-0.4-6.3-1.8-8.4c-1.4-2.2-3.5-3.3-6.5-3.3c-5.6,0-8.8,4.4-8.8,12.1v0.2h17
			L703.2,120.6L703.2,120.6z"/>
		<path fill="#E95080" d="M746.2,141.3v18.9c0,11.4-6,15.9-14.1,15.9h-11.5v-12.5h5.4c6.7,0,7.1-4,7.1-7V139
			c0-10.2,6.3-10.9,10.9-11.4v-0.2c-4.6-0.3-10.9-1.1-10.9-11.3V98.4c0-3-0.4-7-7.1-7h-5.4V78.9h11.8c7.4,0,13.8,4.6,13.8,16v18.8
			c0,6.8,8.8,7.5,11.8,7.5v12.5C755,133.7,746.2,134.5,746.2,141.3z"/>
	</g>
</g>
</svg>
