<?xml version="1.0" encoding="utf-8"?>
<!-- Generator: Adobe Illustrator 18.0.0, SVG Export Plug-In . SVG Version: 6.00 Build 0)  -->
<!DOCTYPE svg PUBLIC "-//W3C//DTD SVG 1.1//EN" "http://www.w3.org/Graphics/SVG/1.1/DTD/svg11.dtd">
<svg version="1.1" id="Layer_1" xmlns="http://www.w3.org/2000/svg" xmlns:xlink="http://www.w3.org/1999/xlink" x="0px" y="0px"
	 viewBox="0 0 300 72.7" enable-background="new 0 0 300 72.7" xml:space="preserve">
<g>
	<path fill="#FFFFFF" d="M9.5,58.4L14.5,45l4.7,13.4H9.5z M24,71.9h4.5L16.8,39.6h-4.5L0,71.9h4.6L8.2,62h12.3L24,71.9z M45.5,65
		c0,2.6-2.1,4-5.8,4c-2.9,0-4.9-0.8-6-2.7l-4.4,0.8c1.7,3.5,5.2,5.1,10.2,5.1c6.7,0,10.3-3.7,10.3-7.7c0-5.1-4.7-6.5-10.1-7.6
		C37,56.4,34,55.4,34,53.1c0-1.7,1.6-3.6,4.8-3.6c3.3,0,5.3,2.2,5.6,3.1l3.8-1.6c-1.8-3.3-5.3-4.7-8.9-4.7c-5.7,0-9.4,2.8-9.4,7.2
		c0,5.1,4.3,6,8.5,7C42,61.4,45.5,62.3,45.5,65z M58.8,39.6l-4.2,1.8v6h-3.9v3.4h3.9v15.8c-0.1,3.2-0.1,5.5,4.7,5.5
		c1.6,0,3.3-0.3,4-0.4v-3.4c-0.8,0.3-1.9,0.6-2.7,0.6c-1.8,0-1.8-1.2-1.8-4.1V50.8h4.5v-3.4h-4.5V39.6z M67,47.3v24.5h4.1V60.6
		c0-2.1-0.1-4.6,1-6.4c1.3-2.2,3.3-3,7.4-3v-4.3c-1.7,0.1-6.1,0.2-8.4,4.8v-4.4H67z M103.9,39.6v4h18.3l-18.4,24.1v4.2h23.7V68
		h-18.7l18.3-24.4v-4H103.9z M153.4,47.3v24.5h4.1V58c0-1.8,0-3.7,1.8-5.5c1.3-1.3,2.9-1.9,4.7-1.9c2.2,0,4.5,1,5.3,3.4
		c0.3,0.8,0.3,1.6,0.3,4v13.9h4.1V57.3c0-2.1,0-3.6-0.4-5c-1.2-4-4.9-5.6-8.1-5.6c-1.5,0-5.4,0.4-7.6,4.4v-3.7H153.4z M217.3,65.9
		c-0.9,1.7-2.5,3.2-5.7,3.2c-2.8,0-7.4-1.7-7.4-9.8c0-2.2,0.4-9.9,7.2-9.9c3.4,0,5,1.9,5.7,3.5l3.9-1.6c-2.4-4-6.7-4.9-9.7-4.9
		c-7.8,0-11.6,6.3-11.6,13.2c0,6,3.3,12.7,11.9,12.7c5,0,7.8-2.4,9.4-4.8L217.3,65.9z M133.5,57.1h13c-0.4-6.4-4.1-7.5-6.5-7.5
		C136.4,49.6,134,52.1,133.5,57.1z M149.9,67.2c-1.4,2.4-4.1,5.1-9.5,5.1c-7.2,0-11.4-4.9-11.4-13.2c0-9.2,6.1-12.7,11.3-12.7
		c4.5,0,8.8,2.5,10.3,8.6c0.5,2.1,0.5,3.9,0.5,5h-17.6c-0.1,4.1,1.6,9.3,7.4,9.2c2.4,0,4-1.1,5.1-2.8L149.9,67.2z M180.3,57.1h13
		c-0.4-6.4-4.1-7.5-6.5-7.5C183.3,49.6,180.8,52.1,180.3,57.1z M196.7,67.2c-1.4,2.4-4.1,5.1-9.5,5.1c-7.2,0-11.4-4.9-11.4-13.2
		c0-9.2,6.1-12.7,11.2-12.7c4.5,0,8.8,2.5,10.3,8.6c0.5,2.1,0.5,3.9,0.5,5h-17.6c-0.1,4.1,1.6,9.3,7.4,9.2c2.4,0,4-1.1,5.1-2.8
		L196.7,67.2z M243.5,71.9l-4.3,0c0,0-0.4-1.7-0.5-3.6c-1.2,1.3-3.5,4-8.2,4c-4.8,0-8.3-2.8-8.3-7c0-1.3,0.4-2.6,1.1-3.7
		c1.4-2.1,4-3.7,11.3-4.3l3.9-0.3v-0.6c0-2.5,0-6.8-5.5-6.8c-3.4,0-4.6,1.7-5,3.2l-3.8-1.6c0.1-0.1,0.1-0.3,0.2-0.4
		c1.5-2.7,4.3-4.4,8.4-4.4c2.3,0,5.2,0.6,7.1,2.1c2.7,2.1,2.7,6.2,2.7,6.2l0.2,12.6C242.8,67.2,243,70.8,243.5,71.9z M237.9,65.1
		c0.6-1.4,0.7-1.9,0.7-5.5c-1.6,0.3-3.8,0.6-6.4,1.1c-4.6,1-5.3,2.7-5.3,4.4c0,2,1.6,3.6,4.6,3.6C234.2,68.8,236.7,67.7,237.9,65.1z
		 M101,71.9l-4.3,0c0,0-0.4-1.7-0.5-3.6c-1.2,1.3-3.6,4-8.2,4c-4.8,0-8.3-2.8-8.3-7c0-1.3,0.4-2.6,1.1-3.7c1.4-2.1,4-3.7,11.3-4.3
		l3.9-0.3v-0.6c0-2.5,0-6.8-5.5-6.8c-3.4,0-4.6,1.7-5,3.2l-3.8-1.6c0.1-0.1,0.1-0.3,0.2-0.4c1.5-2.7,4.3-4.4,8.5-4.4
		c2.3,0,5.2,0.6,7.1,2.1c2.7,2.1,2.7,6.2,2.7,6.2l0.2,12.6C100.3,67.2,100.4,70.8,101,71.9z M95.3,65.1c0.6-1.4,0.7-1.9,0.7-5.5
		c-1.6,0.3-3.8,0.6-6.4,1.1c-4.6,1-5.3,2.7-5.3,4.4c0,2,1.6,3.6,4.6,3.6C91.7,68.8,94.1,67.7,95.3,65.1z"/>
	<path fill="#FFFFFF" d="M270.3,51.2c-0.6,0.4-1.3,0.8-1.9,1.2c-7.4-4.1-23.3-12-24.7-12.7c-1.5-0.8-4-1.8-3.7-4.2
		c0.5-3.4,6.4-11,8.9-14C262.6,4.7,268.8-0.5,272.9,0c4.3,0.6,6.8,5.1,7,26.1c-2.4-0.7-5.1-1.5-7.9-2.2c-0.2-3.1-0.8-7.7-1-9.3
		c-0.2-1.8-0.6-2.5-1.3-2.6c-0.8-0.1-2.8,1.8-4.6,3.7c-0.8,0.8-3.2,3.2-5.7,5.8c-2.1-0.1-3.6,0.3-4.4,1.4c-0.6,0.8-0.8,2-0.4,3.4
		c-1.4,1.4-2.6,2.6-3.3,3.3c-2.9,2.9-5.9,5.2-6,6.4c-0.1,0.9,1.3,1.9,3.4,3.2C253.5,42.2,265.9,48.9,270.3,51.2z M289.5,30.2
		c-4.8-1.7-16.8-6.1-29.4-7.8c-4.3-0.6-6.1,1-4.3,5.1c1.8,4.1,6.3,10.9,11.1,16c4.8,5.1,10,6.5,11.6-1.4c0.1-0.3,0.1-0.6,0.2-0.8
		c0.4-2,0.7-4,0.8-5.7c-2.1-1-4.5-2-6.9-3c0.1,1.8,0.3,4.9,0.5,7.3c0,0.3,0,0.6,0,0.9c0.1,3.9-1.2,3.9-3.4,2.3
		c-2.6-1.8-10.5-12.3-11.4-16.9c0-0.3,0.1-0.3,0.3-0.3c0.1,0,0.1,0,0.2,0.1c0,0,0,0,0,0l0,0c1.8,0.7,7.7,3,13.8,5.6
		c2.4,1,4.8,2.1,7,3c2.1,1,4.1,1.9,5.5,2.6c2.6,1.4,3.6,2.3,2.5,3.5c-5.4,5.5-24.4,13.4-31,23.1c0,0,0,0-0.1,0.1
		c-0.1,0.1-0.1,0.2-0.2,0.3c0,0,0,0.1-0.1,0.1c-0.3,0.6-0.8,1.6-0.9,2.9c-0.3,2.1,0.8,4.1,3.9,4.9c0.8,0.2,1.6,0.4,2.6,0.5
		c0.2,0,0.4,0,0.5,0c5.8,0.3,21-3,25.7-5.1c4.8-2.1,3.3-4.2,2-5.3c-1-0.8-6.4-3.8-8.9-5.2c-0.7,0.4-1.2,0.8-1.9,1.2
		c4.4,2.7,6.1,4,7.2,4.8c0.4,0.3,0.2,0.7-0.4,0.7c-0.2,0-0.3,0-0.5,0c-4.2,0.3-12.1,0.8-15.8,1c-0.5,0-1.2,0.1-1.5,0.1
		c0.9-0.9,2-1.6,2.5-2c7.9-5.6,21.1-13.4,25-16.8C298.5,43.7,306.4,36.1,289.5,30.2z"/>
</g>
</svg>
