<?xml version="1.0" encoding="utf-8"?>
<!-- Generator: Adobe Illustrator 18.0.0, SVG Export Plug-In . SVG Version: 6.00 Build 0)  -->
<!DOCTYPE svg PUBLIC "-//W3C//DTD SVG 1.1//EN" "http://www.w3.org/Graphics/SVG/1.1/DTD/svg11.dtd">
<svg version="1.1" id="Layer_1" xmlns="http://www.w3.org/2000/svg" xmlns:xlink="http://www.w3.org/1999/xlink" x="0px" y="0px"
	 viewBox="0 0 300 299.6" enable-background="new 0 0 300 299.6" xml:space="preserve">
<g>
	<path fill="#FFFFFF" d="M224.6,0c0,50,0,99.7,0,149.7c-19.1,0.3-35.8,6.6-49.9,19.2c-14.1,12.6-22.1,28.6-24.9,47.4
		c-3.5-22.6-14-40.8-32.9-53.6c-19.1-12.9-40-16.2-62.2-10.2c-19.6,5.3-34.6,17.2-44.9,34.7C3.2,198.8-0.2,211.2,0,224.9
		c75,0,149.7,0,224.6,0c0,25,0,49.8,0,74.6c24.5,1.9,61.7-15.1,72.5-54.7c5.1-18.8,3.4-37.1-5.7-54.4
		c-12.3-23.4-32.1-36.4-58.2-40.5c22.5-3.3,40.6-13.8,53.4-32.5c12.9-18.9,16.3-39.7,10.6-61.8c-5-19.2-16.3-34.1-33.2-44.6
		C252.2,3.6,239.1-0.2,224.6,0z"/>
	<path fill="#FFFFFF" d="M224.6,0c14.5-0.2,27.5,3.5,39.5,11c16.9,10.5,28.2,25.4,33.2,44.6c5.7,22.1,2.3,42.9-10.6,61.8
		c-12.8,18.7-30.9,29.1-53.4,32.5c26,4.2,45.8,17.2,58.2,40.5c9.1,17.3,10.8,35.6,5.7,54.4c-10.8,39.6-48.1,56.5-72.5,54.7
		c0-24.7,0-49.5,0-74.6c-74.9,0-149.6,0-224.6,0c-0.2-13.7,3.2-26.1,9.9-37.6c10.3-17.6,25.2-29.4,44.9-34.7
		c22.1-6,43.1-2.7,62.2,10.2c18.9,12.8,29.5,31,32.9,53.6c2.8-18.8,10.8-34.7,24.9-47.4c14.1-12.6,30.7-18.9,49.9-19.2
		C224.6,99.8,224.6,50,224.6,0z"/>
</g>
</svg>
