<?xml version="1.0" encoding="utf-8"?>
<!-- Generator: Adobe Illustrator 18.0.0, SVG Export Plug-In . SVG Version: 6.00 Build 0)  -->
<!DOCTYPE svg PUBLIC "-//W3C//DTD SVG 1.1//EN" "http://www.w3.org/Graphics/SVG/1.1/DTD/svg11.dtd">
<svg version="1.1" id="Layer_1" xmlns="http://www.w3.org/2000/svg" xmlns:xlink="http://www.w3.org/1999/xlink" x="0px" y="0px"
	 viewBox="428.9 345.5 300 52.5" enable-background="new 428.9 345.5 300 52.5" xml:space="preserve">
<g>
	<g>
		<path fill="#FFFFFF" d="M449.7,383.5c-1.9,2-4.5,3.1-7.5,3.1c-2.2,0-4.2-0.6-5.9-1.5c0.1,0.6,0.1,1.5,0.1,2.3v8.8l-7,1.9v-32.4
			c0-3.6-0.1-4.7-0.5-7.1l6.5-1.1c0.2,1,0.5,1.8,0.5,2.6c1.2-1.5,4-2.6,6.9-2.6c2,0,4,0.6,5.6,1.7c3,2,5.2,5.6,5.2,12.1
			C453.6,377.3,452.6,380.4,449.7,383.5z M444.9,365.8c-0.6-1.5-1.7-2.3-3.5-2.3c-1.8,0-3.6,0.8-4.9,2.1v13.6c1,0.8,2.5,1.6,4,1.6
			c3.6,0,5.1-2.4,5.1-8.9C445.6,369.3,445.4,367.2,444.9,365.8z"/>
		<path fill="#FFFFFF" d="M464.2,374.4v0.2c0,4.3,2.2,6.8,5.9,6.8c2.5,0,4.8-1,7.1-2.8l2.9,4.4c-3.2,2.6-6.6,3.9-10.6,3.9
			c-8.1,0-13.2-5.7-13.2-14.5c0-5.1,1.1-8.4,3.5-11.1c2.3-2.5,5.1-3.8,8.8-3.8c3.2,0,6.3,1.1,8.1,2.9c2.5,2.7,3.7,6.4,3.7,12.2v1.7
			H464.2L464.2,374.4L464.2,374.4z M472.8,368.7c0-2.1-0.2-3.1-0.9-4.2c-0.7-1.1-1.8-1.7-3.2-1.7c-2.8,0-4.4,2.2-4.4,6.1v0.1h8.5
			L472.8,368.7L472.8,368.7z"/>
		<path fill="#FFFFFF" d="M503.7,384.4c-1.9,1.6-3.9,2.2-6.1,2.2c-2.8,0-4.6-0.8-6.2-2.6c-0.2,1-0.2,1.2-0.8,2H484
			c0.6-1.2,0.7-2.1,0.7-5.9v-26c0-3.4-0.1-5.3-0.5-6.9l7.5-1.8c0.2,1.9,0.2,3,0.2,5v6.6c0,0.8,0,2-0.1,2.4c1.4-1.5,3.4-2.2,5.9-2.2
			c6.9,0,11.1,5.5,11.1,14.2C508.9,377.3,507.1,381.7,503.7,384.4z M500.2,367c-0.5-2.4-2.1-3.6-4-3.6c-1.9,0-3.2,1.2-4.1,2.2v12.9
			c1,0.9,2.1,1.8,4.1,1.8c1.8,0,3-0.7,3.6-2.2c0.6-1.5,0.8-3,0.8-6.4C500.5,369.2,500.5,368.2,500.2,367z"/>
		<path fill="#FFFFFF" d="M532.3,384.4c-1.9,1.6-3.8,2.2-6.1,2.2c-2.8,0-4.6-0.8-6.2-2.6c-0.2,1-0.2,1.2-0.8,2h-6.5
			c0.5-1.2,0.7-2.1,0.7-5.9v-26c0-3.4-0.1-5.3-0.5-6.9l7.5-1.8c0.2,1.9,0.2,3,0.2,5v6.6c0,0.8,0,2-0.1,2.4c1.4-1.5,3.4-2.2,6-2.2
			c6.8,0,11.1,5.5,11.1,14.2C537.5,377.3,535.8,381.7,532.3,384.4z M528.9,367c-0.6-2.4-2.1-3.6-4-3.6c-1.9,0-3.2,1.2-4.2,2.2v12.9
			c1,0.9,2.2,1.8,4.1,1.8c1.8,0,3-0.7,3.5-2.2c0.7-1.5,0.8-3,0.8-6.4C529.2,369.2,529.2,368.2,528.9,367z"/>
		<path fill="#FFFFFF" d="M549.1,386.7c-3.1,0-5.7-1.5-6.5-3.9c-0.6-1.4-0.7-2.3-0.7-6.3v-20.9c0-3.6-0.1-5.9-0.4-8.4l7.5-1.7
			c0.2,1.5,0.4,3.4,0.4,7.3v21.9c0,4.8,0.1,5.5,0.5,6.2c0.2,0.5,0.9,0.8,1.5,0.8c0.2,0,0.5,0,0.8-0.1l1.2,4.4
			C552.3,386.4,550.7,386.7,549.1,386.7z"/>
		<path fill="#FFFFFF" d="M562.1,374.4v0.2c0,4.3,2.1,6.8,5.9,6.8c2.5,0,4.9-1,7.1-2.8l2.8,4.4c-3.2,2.6-6.6,3.9-10.5,3.9
			c-8,0-13.2-5.7-13.2-14.5c0-5.1,1-8.4,3.5-11.1c2.3-2.5,5.1-3.8,8.8-3.8c3.2,0,6.3,1.1,8.1,2.9c2.5,2.7,3.7,6.4,3.7,12.2v1.7
			H562.1L562.1,374.4L562.1,374.4z M570.7,368.7c0-2.1-0.2-3.1-0.8-4.2c-0.7-1.1-1.8-1.7-3.2-1.7c-2.8,0-4.4,2.2-4.4,6.1v0.1h8.5
			V368.7z"/>
		<path fill="#FFFFFF" d="M599.2,396.4c-3.9,0-7-2.3-7-8V379c0-3.4-4.5-3.8-5.9-3.8V369c1.3,0,5.9-0.4,5.9-3.8v-9.5c0-5.7,3-8,7-8
			h5.8v6.2h-2.7c-3.4,0-3.6,2-3.6,3.5v8.8c0,5.1-3.1,5.4-5.4,5.7v0.1c2.3,0.1,5.4,0.6,5.4,5.6v8.9c0,1.5,0.2,3.5,3.6,3.5h2.7v6.2
			H599.2L599.2,396.4z"/>
		<path fill="#FFFFFF" d="M624.6,385c-1.9,1.1-4.1,1.8-6.8,1.8c-7.7,0-12.2-5.4-12.2-14.5c0-6.5,2.5-10.7,5.8-13
			c1.9-1.2,4.6-2.1,7-2.1c1.8,0,3.9,0.4,5.4,1.2c1,0.5,1.5,0.9,2.8,1.9l-3.6,4.8c-1.5-1.4-3-2.2-4.4-2.2c-3.3,0-4.8,2.9-4.8,9.4
			c0,3.6,0.5,5.9,1.4,7.1c0.8,1,2,1.6,3.3,1.6c1.7,0,3.2-0.7,5-2.3l0.5-0.4l3.3,4.4C626,384,625.5,384.4,624.6,385z"/>
		<path fill="#FFFFFF" d="M649.9,382.8c-2.1,2.4-5,3.9-9.2,3.9c-7.6,0-12.6-5.7-12.6-14.5c0-8.8,5.1-14.6,12.6-14.6
			c4,0,7.1,1.4,9.5,4.2c2.2,2.6,3.2,5.7,3.2,10.2C653.4,376.8,652.3,380,649.9,382.8z M644,364.4c-0.7-1-1.8-1.5-3.2-1.5
			c-1.8,0-3.1,1.1-3.8,2.9c-0.5,1.5-0.8,3.4-0.8,6.2c0,3.2,0.3,5.6,0.9,7c0.7,1.6,2.3,2.3,3.7,2.3c3.1,0,4.5-2.9,4.5-9.5
			C645.4,368.1,644.9,365.7,644,364.4z"/>
		<path fill="#FFFFFF" d="M674.9,386.1c-0.2-0.4-0.4-0.9-0.5-1.6c-1.8,1.6-4,2.4-6.5,2.4c-7.1,0-11.6-5.6-11.6-14.2
			c0-8.8,4.9-14.8,12-14.8c2,0,3.6,0.5,5,1.6c-0.1-0.6-0.2-2.5-0.2-4.2v-9.6l7.3,1.2v29.1c0,6.9,0.6,9.1,1.1,10.2L674.9,386.1
			L674.9,386.1L674.9,386.1z M673.3,365.4c-1.4-1.2-2.7-1.8-4-1.8c-3.3,0-4.7,2.8-4.7,8.9c0,6,1.2,8,5.1,8c1.4,0,2.9-0.9,3.6-1.8
			V365.4L673.3,365.4z"/>
		<path fill="#FFFFFF" d="M692.9,374.4v0.2c0,4.3,2.1,6.8,5.9,6.8c2.5,0,4.9-1,7.1-2.8l2.9,4.4c-3.2,2.6-6.6,3.9-10.6,3.9
			c-8,0-13.2-5.7-13.2-14.5c0-5.1,1.1-8.4,3.5-11.1c2.3-2.5,5.1-3.8,8.8-3.8c3.2,0,6.3,1.1,8.1,2.9c2.5,2.7,3.7,6.4,3.7,12.2v1.7
			H692.9L692.9,374.4L692.9,374.4z M701.5,368.7c0-2.1-0.2-3.1-0.9-4.2c-0.7-1.1-1.8-1.7-3.2-1.7c-2.8,0-4.4,2.2-4.4,6.1v0.1h8.5
			L701.5,368.7L701.5,368.7z"/>
		<path fill="#FFFFFF" d="M723,379v9.5c0,5.7-3,7.9-7.1,7.9h-5.8v-6.2h2.7c3.3,0,3.5-2,3.5-3.5v-8.8c0-5.1,3.2-5.5,5.5-5.7v-0.1
			c-2.3-0.1-5.5-0.5-5.5-5.6v-8.9c0-1.5-0.2-3.5-3.5-3.5h-2.7v-6.2h5.9c3.7,0,6.9,2.3,6.9,8v9.4c0,3.4,4.4,3.8,5.9,3.8v6.2
			C727.4,375.2,723,375.6,723,379z"/>
	</g>
</g>
</svg>
