<?xml version="1.0" encoding="utf-8"?>
<!-- Generator: Adobe Illustrator 18.0.0, SVG Export Plug-In . SVG Version: 6.00 Build 0)  -->
<!DOCTYPE svg PUBLIC "-//W3C//DTD SVG 1.1//EN" "http://www.w3.org/Graphics/SVG/1.1/DTD/svg11.dtd">
<svg version="1.1" id="Layer_1" xmlns="http://www.w3.org/2000/svg" xmlns:xlink="http://www.w3.org/1999/xlink" x="0px" y="0px"
	 viewBox="0 0 361.5 193.9" enable-background="new 0 0 361.5 193.9" xml:space="preserve">
<polygon fill="#3899E6" points="361.5,1.5 358.4,192.2 3.9,193.9 0,0 "/>
<g>
	<path fill="#FFFFFF" d="M102.6,108.6c-1.9,2-4.4,3.2-7.5,3.2c-2.2,0-4.3-0.6-5.8-1.5c0.1,0.7,0.1,1.5,0.1,2.3v8.7l-7.1,1.8V90.9
		c0-3.7-0.1-4.7-0.4-7.1l6.5-1.2c0.3,1,0.4,1.7,0.5,2.6c1.3-1.5,4.1-2.6,6.9-2.6c2,0,4,0.7,5.5,1.7c3,2,5.2,5.6,5.2,12.1
		C106.5,102.5,105.5,105.5,102.6,108.6z M97.8,91c-0.6-1.5-1.7-2.3-3.5-2.3c-1.8,0-3.6,0.8-4.9,2.1v13.6c1,0.8,2.6,1.6,4.1,1.6
		c3.6,0,5-2.5,5-8.9C98.5,94.5,98.3,92.4,97.8,91z"/>
	<path fill="#FFFFFF" d="M117.2,99.5v0.2c0,4.3,2.1,6.8,5.9,6.8c2.5,0,4.9-0.9,7.1-2.8l2.8,4.4c-3.2,2.6-6.6,3.9-10.5,3.9
		c-8,0-13.2-5.7-13.2-14.5c0-5,1.1-8.4,3.5-11.1c2.3-2.6,5.1-3.8,8.8-3.8c3.2,0,6.3,1.1,8.1,3c2.6,2.6,3.7,6.4,3.7,12.3v1.7
		L117.2,99.5L117.2,99.5z M125.8,93.8c0-2.1-0.2-3.2-0.9-4.2c-0.7-1.1-1.7-1.6-3.2-1.6c-2.8,0-4.4,2.2-4.4,6.1v0.1h8.5L125.8,93.8
		L125.8,93.8z"/>
	<path fill="#FFFFFF" d="M156.8,109.6c-1.9,1.5-3.8,2.2-6.1,2.2c-2.7,0-4.6-0.8-6.2-2.6c-0.2,1-0.3,1.3-0.8,2h-6.6
		c0.6-1.3,0.7-2.1,0.7-6V79.3c0-3.4-0.1-5.3-0.5-6.9l7.4-1.7c0.2,1.9,0.3,3.1,0.3,5v6.6c0,0.8-0.1,2-0.2,2.5c1.4-1.5,3.4-2.2,6-2.2
		c6.8,0,11.1,5.5,11.1,14.2C161.9,102.4,160.2,106.8,156.8,109.6z M153.3,92.1c-0.6-2.4-2.1-3.6-4-3.6c-1.9,0-3.2,1.2-4.2,2.2v12.9
		c1,0.9,2.1,1.8,4.1,1.8c1.8,0,3-0.7,3.6-2.2c0.7-1.5,0.8-3,0.8-6.5C153.6,94.4,153.6,93.3,153.3,92.1z"/>
	<path fill="#FFFFFF" d="M185.5,109.6c-1.9,1.5-3.8,2.2-6.1,2.2c-2.7,0-4.6-0.8-6.2-2.6c-0.2,1-0.3,1.3-0.8,2h-6.6
		c0.6-1.3,0.7-2.1,0.7-6V79.3c0-3.4-0.1-5.3-0.5-6.9l7.5-1.7c0.2,1.9,0.3,3.1,0.3,5v6.6c0,0.8-0.1,2-0.2,2.5c1.4-1.5,3.4-2.2,6-2.2
		c6.8,0,11.1,5.5,11.1,14.2C190.7,102.4,188.9,106.8,185.5,109.6z M182.1,92.1c-0.6-2.4-2.1-3.6-4-3.6s-3.2,1.2-4.2,2.2v12.9
		c1,0.9,2.1,1.8,4.1,1.8c1.8,0,3-0.7,3.6-2.2c0.7-1.5,0.8-3,0.8-6.5C182.4,94.4,182.3,93.3,182.1,92.1z"/>
	<path fill="#FFFFFF" d="M202.4,111.9c-3.1,0-5.6-1.5-6.5-3.8c-0.6-1.4-0.7-2.3-0.7-6.3V80.9c0-3.7-0.1-5.9-0.4-8.4l7.5-1.7
		c0.3,1.5,0.4,3.3,0.4,7.3v21.8c0,4.8,0.1,5.5,0.5,6.2c0.3,0.5,0.9,0.8,1.5,0.8c0.3,0,0.4,0,0.8-0.1l1.3,4.4
		C205.5,111.6,204,111.9,202.4,111.9z"/>
	<path fill="#FFFFFF" d="M215.5,99.5v0.2c0,4.3,2.1,6.8,5.9,6.8c2.5,0,4.9-0.9,7.1-2.8l2.8,4.4c-3.2,2.6-6.6,3.9-10.5,3.9
		c-8,0-13.2-5.7-13.2-14.5c0-5,1.1-8.4,3.5-11.1c2.3-2.6,5.1-3.8,8.8-3.8c3.2,0,6.3,1.1,8.1,3c2.6,2.6,3.7,6.4,3.7,12.3v1.7
		L215.5,99.5L215.5,99.5z M224,93.8c0-2.1-0.2-3.2-0.9-4.2c-0.7-1.1-1.7-1.6-3.2-1.6c-2.8,0-4.4,2.2-4.4,6.1v0.1h8.5L224,93.8
		L224,93.8z"/>
	<path fill="#FFFFFF" d="M242.1,112.1c-2.7,0-4.8-2.2-4.8-4.9c0-2.6,2.1-4.7,4.7-4.7c2.7,0,4.9,2.1,4.9,4.7
		C247,109.9,244.8,112.1,242.1,112.1z"/>
	<path fill="#FFFFFF" d="M256.2,80.1c-2.5,0-4.5-2-4.5-4.5s2.1-4.5,4.6-4.5c2.5,0,4.4,2,4.4,4.5S258.8,80.1,256.2,80.1z
		 M252.6,111.2V83.7l7.3-1.2v28.6H252.6z"/>
	<path fill="#FFFFFF" d="M273.6,111.9c-3.7,0-6.7-1.6-7.5-4.1c-0.4-1.2-0.5-1.7-0.5-4.3V88.2h-2.8v-5h2.8c0-2.7,0-4.5,0.3-6.6
		l7.4-1.8c-0.3,2.6-0.4,5.6-0.4,8.5h6.6l-1.8,5h-4.7v14c0,3.6,0.7,4.5,3.2,4.5c0.7,0,1.3-0.2,2.6-0.6l0.9,4.4
		C277.5,111.5,275.6,111.9,273.6,111.9z"/>
</g>
</svg>
