<?xml version="1.0" encoding="utf-8"?>
<!-- Generator: Adobe Illustrator 18.0.0, SVG Export Plug-In . SVG Version: 6.00 Build 0)  -->
<!DOCTYPE svg PUBLIC "-//W3C//DTD SVG 1.1//EN" "http://www.w3.org/Graphics/SVG/1.1/DTD/svg11.dtd">
<svg version="1.1" id="Layer_1" xmlns="http://www.w3.org/2000/svg" xmlns:xlink="http://www.w3.org/1999/xlink" x="0px" y="0px"
	 viewBox="0 0 98.2 29.2" enable-background="new 0 0 98.2 29.2" xml:space="preserve">
<g>
	<path fill-rule="evenodd" clip-rule="evenodd" fill="#FFFFFF" d="M0,14.6C0,6.5,6.5,0,14.6,0s14.6,6.5,14.6,14.6
		s-6.5,14.6-14.6,14.6S0,22.7,0,14.6z M14.3,19.6c-1.4,0-2.6-0.1-3.4-0.3c-0.9-0.2-1.5-0.7-1.8-1.5c-0.3-0.8-0.5-1.9-0.5-3.5
		c0-0.9,0.1-1.7,0.2-2.5c0.1-0.8,0.2-1.5,0.3-2l0.1-0.5c0,0,0,0,0,0C9.1,9.1,9,9,8.9,9L7,8.7c0,0,0,0,0,0c-0.1,0-0.3,0.1-0.3,0.2
		c0,0.1-0.1,0.2-0.1,0.5c-0.1,0.6-0.2,1.1-0.3,1.9c-0.1,0.8-0.2,1.6-0.2,2.6c0,0,0,0.2,0,1.8c0,1.6,0.3,2.9,0.8,3.8
		c0.5,1,1.4,1.6,2.6,2.1c1.2,0.4,2.9,0.6,5,0.6h0.3c2.1,0,3.8-0.2,5-0.6c1.2-0.4,2.1-1.1,2.6-2.1c0.5-1,0.8-2.2,0.8-3.8
		c0-1.6,0-1.8,0-1.8c0-0.9-0.1-1.8-0.2-2.6c-0.1-0.8-0.2-1.3-0.3-1.9c-0.1-0.3-0.1-0.4-0.1-0.5c0-0.1-0.1-0.2-0.3-0.2c0,0,0,0,0,0
		L20.3,9C20.1,9,20,9.1,20,9.3c0,0,0,0,0,0l0.1,0.5c0.1,0.5,0.2,1.2,0.3,2c0.1,0.8,0.1,1.6,0.2,2.5c0,1.6-0.1,2.8-0.5,3.5
		c-0.3,0.8-1,1.3-1.8,1.5c-0.8,0.2-1.9,0.3-3.4,0.3H14.3z"/>
	<g>
		<path fill="#FFFFFF" d="M91,15.5c0-2.5,0.7-4.3,3.6-4.3c2.9,0,3.6,1.8,3.6,4.3c0,2.5-0.7,4.3-3.6,4.3C91.7,19.8,91,18,91,15.5z
			 M96.4,15.5c0-1.7-0.2-2.7-1.8-2.7c-1.5,0-1.8,1-1.8,2.7c0,1.7,0.2,2.7,1.8,2.7C96.2,18.2,96.4,17.2,96.4,15.5z"/>
		<path fill="#FFFFFF" d="M41.1,19.4c0,0.1,0.1,0.1,0.2,0.1H42c0.1,0,0.2-0.1,0.2-0.2v-7.6c0-0.1-0.1-0.2-0.2-0.2h-1.3
			c-0.1,0-0.2,0.1-0.2,0.2v6.1c-0.4,0.2-1,0.5-1.9,0.5c-0.9,0-1.3-0.4-1.3-1.2v-5.3c0-0.1-0.1-0.2-0.2-0.2h-1.3
			c-0.1,0-0.2,0.1-0.2,0.2v5.5c0,1.6,0.7,2.6,2.8,2.6c0.9,0,1.8-0.3,2.6-0.8L41.1,19.4L41.1,19.4z"/>
		<path fill="#FFFFFF" d="M56.2,13.8c0-1.5-0.8-2.6-2.7-2.6c-0.9,0-1.9,0.3-2.6,0.8c-0.3-0.5-1-0.8-2.1-0.8c-0.8,0-1.8,0.3-2.5,0.8
			l-0.2-0.5v0c0-0.1-0.1-0.1-0.2-0.1h-0.7c-0.1,0-0.2,0.1-0.2,0.2v7.6c0,0.1,0.1,0.2,0.2,0.2h1.3c0.1,0,0.2-0.1,0.2-0.2v-6.1
			c0.4-0.2,1-0.5,1.7-0.5c0.7,0,1.2,0.3,1.2,1l0,5.5c0,0.1,0.1,0.2,0.2,0.2h1.3c0.1,0,0.2-0.1,0.2-0.2l0-6.1
			c0.4-0.2,0.9-0.5,1.7-0.5c0.7,0,1.2,0.3,1.2,1v5.5c0,0.1,0.1,0.2,0.2,0.2H56c0.1,0,0.2-0.1,0.2-0.2V13.8z"/>
		<path fill="#FFFFFF" d="M60.4,18.9c0.7,0.5,1.5,0.8,2.6,0.8c2.4,0,3.2-1.6,3.2-4.3c0-2.6-0.9-4.3-3.2-4.3c-0.8,0-1.6,0.3-2.2,0.6
			V9.4c0-0.1-0.1-0.2-0.2-0.2h-1.3c-0.1,0-0.2,0.1-0.2,0.2v9.9c0,0.1,0.1,0.2,0.2,0.2h0.7c0.1,0,0.2,0,0.2-0.1v0L60.4,18.9z
			 M62.6,18.2c-0.9,0-1.4-0.3-1.8-0.5v-4.5c0.3-0.2,0.9-0.5,1.8-0.5c1.6,0,1.8,1.2,1.8,2.7C64.4,17,64.2,18.2,62.6,18.2z"/>
		<path fill="#FFFFFF" d="M73,12.9c-0.2,0-0.4,0-0.6,0c-1,0-1.7,0.2-2.1,0.5v6c0,0.1-0.1,0.2-0.2,0.2h-1.3c-0.1,0-0.2-0.1-0.2-0.2
			v-7.6c0-0.1,0.1-0.2,0.2-0.2h0.7c0.1,0,0.2,0,0.2,0.1v0l0.2,0.5c0.6-0.5,1.5-0.8,2.6-0.8c0.2,0,0.5,0,0.6,0.1h0
			c0.1,0,0.2,0.2,0.2,0.3v1C73.3,12.7,73.1,12.9,73,12.9C73,12.9,73,12.9,73,12.9"/>
		<path fill="#FFFFFF" d="M77.6,15.8c-0.8,0.1-1.3,0.4-1.3,1.2c0,0.6,0.3,1.2,1.3,1.2c0.7,0,1.2-0.2,1.7-0.5v-2.1L77.6,15.8z
			 M79.8,18.9c-0.6,0.5-1.6,0.8-2.5,0.8c-2.1,0-2.8-1.3-2.8-2.6c0-1.8,1.1-2.5,3-2.6l1.8-0.1V14c0-0.8-0.4-1.2-1.6-1.2
			c-0.9,0-1.6,0.2-2.2,0.4c0,0,0,0-0.1,0c-0.1,0-0.2-0.1-0.2-0.2v-1.1c0-0.1,0.1-0.2,0.2-0.2h0c0.6-0.2,1.6-0.4,2.5-0.4
			c2.7,0,3.3,1.2,3.3,2.9v5.2c0,0.1-0.1,0.2-0.2,0.2h-0.7c-0.1,0-0.2,0-0.2-0.1v0L79.8,18.9z"/>
		<path fill="#FFFFFF" d="M89,17.9C89.1,17.9,89.1,17.9,89,17.9c0.2,0,0.3,0.1,0.3,0.2v1.1c0,0.1-0.1,0.2-0.1,0.2l0,0
			c-0.6,0.2-1.3,0.3-2.1,0.3c-2.9,0-3.8-1.7-3.8-4.3c0-2.5,0.9-4.3,3.8-4.3c0.8,0,1.5,0.1,2.1,0.3l0,0c0.1,0,0.2,0.1,0.2,0.2v1.1
			c0,0.1-0.1,0.2-0.2,0.2c0,0-0.1,0-0.1,0l0,0c-0.5-0.2-1-0.3-1.8-0.3c-1.6,0-2,1.1-2,2.6c0,1.6,0.5,2.6,2,2.6
			C88,18.2,88.6,18.1,89,17.9"/>
	</g>
</g>
</svg>
