<?xml version="1.0" encoding="utf-8"?>
<!-- Generator: Adobe Illustrator 18.0.0, SVG Export Plug-In . SVG Version: 6.00 Build 0)  -->
<!DOCTYPE svg PUBLIC "-//W3C//DTD SVG 1.1//EN" "http://www.w3.org/Graphics/SVG/1.1/DTD/svg11.dtd">
<svg version="1.1" id="Layer_1" xmlns="http://www.w3.org/2000/svg" xmlns:xlink="http://www.w3.org/1999/xlink" x="0px" y="0px"
	 viewBox="0 0 300 100.6" enable-background="new 0 0 300 100.6" xml:space="preserve">
<g>
	<path fill="#6B7482" d="M39.7,72.6c-3.7,3.9-8.5,6.1-14.3,6.1c-4.2,0-8.2-1-11.2-2.8c0.2,1.3,0.2,2.8,0.2,4.4V97l-13.5,3.6V38.6
		c0-7-0.1-9-0.8-13.5l12.5-2.2c0.5,1.9,0.8,3.3,0.9,5c2.4-2.9,7.7-5,13.2-5c3.8,0,7.6,1.3,10.6,3.2c5.8,3.9,9.9,10.8,9.9,23.1
		C47.1,60.8,45.2,66.7,39.7,72.6z M30.4,38.8c-1-2.9-3.2-4.5-6.7-4.5c-3.5,0-6.8,1.5-9.3,4.1v26.1c1.9,1.6,4.9,3.1,7.7,3.1
		c6.9,0,9.6-4.7,9.6-17C31.8,45.5,31.4,41.4,30.4,38.8z"/>
	<path fill="#6B7482" d="M69.1,55.1v0.4c0,8.3,4.1,13,11.3,13c4.8,0,9.3-1.8,13.6-5.3l5.4,8.4c-6.2,5-12.7,7.4-20.2,7.4
		c-15.4,0-25.3-10.9-25.3-27.7c0-9.6,2-16,6.7-21.2c4.4-4.9,9.7-7.2,16.8-7.2c6.2,0,12,2.1,15.5,5.6c4.9,5,7.1,12.2,7.1,23.4v3.2
		H69.1z M85.5,44.3c0-4-0.4-6.1-1.7-8.1c-1.4-2.1-3.3-3.1-6.2-3.1c-5.3,0-8.4,4.2-8.4,11.6v0.2h16.2V44.3z"/>
	<path fill="#6B7482" d="M147.3,74.4c-3.7,2.9-7.3,4.2-11.7,4.2c-5.2,0-8.9-1.6-11.9-4.9c-0.4,1.9-0.5,2.4-1.5,3.9h-12.6
		c1-2.4,1.4-4,1.4-11.4V16.5c0-6.6-0.2-10.2-0.9-13.2L124.4,0c0.4,3.7,0.5,5.9,0.5,9.5v12.7c0,1.6-0.1,3.9-0.3,4.7
		c2.7-2.9,6.5-4.3,11.4-4.3c13.1,0,21.2,10.5,21.2,27.2C157.3,60.7,153.9,69.2,147.3,74.4z M140.7,41c-1-4.6-4-6.8-7.6-6.8
		c-3.7,0-6.2,2.3-8,4.3v24.7c1.9,1.7,4.1,3.5,7.8,3.5c3.5,0,5.6-1.4,6.8-4.2c1.3-2.9,1.6-5.8,1.6-12.3
		C141.4,45.3,141.3,43.3,140.7,41z"/>
	<path fill="#6B7482" d="M205.1,74.4c-3.7,2.9-7.3,4.2-11.7,4.2c-5.2,0-8.9-1.6-11.9-4.9c-0.4,1.9-0.5,2.4-1.5,3.9h-12.6
		c1-2.4,1.4-4,1.4-11.4V16.5c0-6.6-0.2-10.2-0.9-13.2L182.2,0c0.4,3.7,0.5,5.9,0.5,9.5v12.7c0,1.6-0.1,3.9-0.3,4.7
		c2.7-2.9,6.5-4.3,11.4-4.3c13.1,0,21.2,10.5,21.2,27.2C215,60.7,211.7,69.2,205.1,74.4z M198.5,41c-1-4.6-4-6.8-7.6-6.8
		c-3.7,0-6.2,2.3-8,4.3v24.7c1.9,1.7,4.1,3.5,7.8,3.5c3.5,0,5.6-1.4,6.8-4.2c1.3-2.9,1.6-5.8,1.6-12.3C199.1,45.3,199,43.3,198.5,41
		z"/>
	<path fill="#6B7482" d="M240.3,78.8c-6,0-10.8-2.8-12.5-7.3c-1-2.7-1.3-4.4-1.3-12v-40c0-7-0.2-11.3-0.7-16.1l14.3-3.2
		c0.5,2.9,0.7,6.4,0.7,13.9v41.7c0,9.2,0.1,10.5,0.9,11.9c0.5,0.9,1.7,1.5,2.8,1.5c0.5,0,0.8,0,1.6-0.2l2.4,8.4
		C246.2,78.3,243.3,78.8,240.3,78.8z"/>
	<path fill="#6B7482" d="M269,55.1v0.4c0,8.3,4.1,13,11.3,13c4.8,0,9.3-1.8,13.6-5.3l5.4,8.4c-6.2,5-12.7,7.4-20.2,7.4
		c-15.4,0-25.3-10.9-25.3-27.7c0-9.6,2-16,6.7-21.2c4.4-4.9,9.7-7.2,16.8-7.2c6.2,0,12,2.1,15.5,5.6c4.9,5,7.1,12.2,7.1,23.4v3.2
		H269z M285.5,44.3c0-4-0.4-6.1-1.7-8.1c-1.4-2.1-3.3-3.1-6.2-3.1c-5.3,0-8.4,4.2-8.4,11.6v0.2h16.2V44.3z"/>
</g>
</svg>
