<?xml version="1.0" encoding="utf-8"?>
<!-- Generator: Adobe Illustrator 18.0.0, SVG Export Plug-In . SVG Version: 6.00 Build 0)  -->
<!DOCTYPE svg PUBLIC "-//W3C//DTD SVG 1.1//EN" "http://www.w3.org/Graphics/SVG/1.1/DTD/svg11.dtd">
<svg version="1.1" id="Layer_1" xmlns="http://www.w3.org/2000/svg" xmlns:xlink="http://www.w3.org/1999/xlink" x="0px" y="0px"
	 viewBox="0 0 90.2 78" enable-background="new 0 0 90.2 78" xml:space="preserve">
<g opacity="0.2">
	<path fill="#FFFFFF" d="M35.2,31.6c-0.7-0.1-1.4-0.2-2.1-0.2c-6.7,0-12.2,4.8-13.3,11.4c-1.1,7.3,3.9,14.2,11.2,15.3
		c0.7,0.1,1.4,0.2,2.1,0.2c6.7,0,12.2-4.8,13.3-11.4C47.5,39.7,42.5,32.8,35.2,31.6z M38.8,45.4c-0.5,2.9-3.2,4.9-6.1,4.4
		c-2.9-0.5-4.9-3.2-4.4-6.1s3.2-4.9,6.1-4.4C37.3,39.8,39.3,42.5,38.8,45.4z"/>
	<path fill="#FFFFFF" d="M58.1,26.6C53.2,19.9,46,15.5,37.8,14.2c-1.6-0.2-3.2-0.4-4.8-0.4c-15.4,0-28.3,11.1-30.7,26.3
		c-2.6,17,9,32.9,26,35.5c1.6,0.2,3.2,0.4,4.8,0.4c15.4,0,28.3-11.1,30.7-26.3C65,41.5,63,33.3,58.1,26.6z M55,48.3
		c-1.7,10.9-10.9,18.8-21.9,18.8c-1.1,0-2.3-0.1-3.4-0.3C17.6,65,9.3,53.6,11.2,41.5c1.7-10.9,10.9-18.8,21.9-18.8
		c1.1,0,2.3,0.1,3.4,0.3c5.9,0.9,11,4,14.5,8.8C54.5,36.6,56,42.5,55,48.3z"/>
</g>
<g>
	<g>
		<g>
			<path fill="#FFFFFF" d="M33.6,50.8c-0.3,0-0.6,0-1-0.1c-1.7-0.3-3.1-1.1-4.1-2.5c-1-1.4-1.4-3-1.1-4.7c0.5-3.1,3.1-5.3,6.2-5.3
				c0.3,0,0.6,0,1,0.1c3.4,0.5,5.8,3.7,5.2,7.2C39.3,48.6,36.7,50.8,33.6,50.8z M33.6,40.2c-2.1,0-4,1.6-4.3,3.7
				c-0.2,1.2,0.1,2.3,0.8,3.3s1.7,1.6,2.9,1.7c2.4,0.4,4.6-1.3,5-3.7c0.4-2.4-1.3-4.6-3.7-5C34,40.2,33.8,40.2,33.6,40.2z"/>
		</g>
	</g>
	<g>
		<path fill="#FFFFFF" d="M33.1,78c-1.7,0-3.4-0.1-5.1-0.4C10,74.8-2.4,57.9,0.4,39.9C2.9,23.7,16.6,12,33,12c1.7,0,3.4,0.1,5.1,0.4
			c8.7,1.4,16.4,6,21.6,13.1c5.2,7.1,7.3,15.8,6,24.5C63.1,66.2,49.4,78,33.1,78z M33,13.8c-15.4,0-28.3,11.1-30.7,26.3
			c-2.6,17,9,32.9,26,35.5c1.6,0.2,3.2,0.4,4.8,0.4c15.4,0,28.3-11.1,30.7-26.3c1.3-8.2-0.7-16.4-5.6-23.1
			C53.2,19.9,46,15.5,37.8,14.2C36.2,14,34.6,13.8,33,13.8z"/>
	</g>
	<g>
		<path fill="#FFFFFF" d="M33.1,69c-1.2,0-2.5-0.1-3.7-0.3c-13.1-2-22.1-14.4-20.1-27.5c1.8-11.8,11.8-20.4,23.8-20.4
			c1.2,0,2.5,0.1,3.7,0.3c6.4,1,12,4.4,15.7,9.6s5.3,11.6,4.4,17.9C55.1,60.4,45.1,69,33.1,69z M33.1,22.7c-11,0-20.2,7.9-21.9,18.8
			C9.3,53.6,17.6,65,29.7,66.9c1.1,0.2,2.3,0.3,3.4,0.3c11,0,20.2-7.9,21.9-18.8c0.9-5.9-0.5-11.7-4-16.5c-3.5-4.8-8.7-7.9-14.5-8.8
			C35.4,22.8,34.2,22.7,33.1,22.7z"/>
	</g>
	<g>
		<path fill="#FFFFFF" d="M33.1,69c-1.2,0-2.5-0.1-3.7-0.3c-13.1-2-22.1-14.4-20.1-27.5c1.8-11.8,11.8-20.4,23.8-20.4
			c1.2,0,2.5,0.1,3.7,0.3c6.4,1,12,4.4,15.7,9.6s5.3,11.6,4.4,17.9C55.1,60.4,45.1,69,33.1,69z M33.1,22.7c-11,0-20.2,7.9-21.9,18.8
			C9.3,53.6,17.6,65,29.7,66.9c1.1,0.2,2.3,0.3,3.4,0.3c11,0,20.2-7.9,21.9-18.8c0.9-5.9-0.5-11.7-4-16.5c-3.5-4.8-8.7-7.9-14.5-8.8
			C35.4,22.8,34.2,22.7,33.1,22.7z"/>
	</g>
	<g>
		<path fill="#FFFFFF" d="M33.1,58.4c-0.7,0-1.4-0.1-2.1-0.2c-7.3-1.1-12.4-8-11.2-15.3c1-6.6,6.6-11.4,13.3-11.4
			c0.7,0,1.4,0.1,2.1,0.2c7.3,1.1,12.4,8,11.2,15.3C45.4,53.6,39.8,58.4,33.1,58.4z M33.1,33.4c-5.7,0-10.5,4.1-11.4,9.8
			c-1,6.3,3.3,12.2,9.6,13.2c0.6,0.1,1.2,0.1,1.8,0.1c5.7,0,10.5-4.1,11.4-9.8c1-6.3-3.3-12.2-9.6-13.2
			C34.3,33.4,33.7,33.4,33.1,33.4z"/>
	</g>
	<g>
		<path fill="#FFFFFF" d="M33.6,45.5c-0.3,0-0.6-0.1-0.8-0.4c-0.3-0.4-0.2-1,0.2-1.3l31.4-22.9c0.4-0.3,1-0.2,1.3,0.2
			c0.3,0.4,0.2,1-0.2,1.3L34.1,45.3C34,45.4,33.8,45.5,33.6,45.5z"/>
	</g>
	<g>
		<g opacity="0.2">
			<path fill="#FFFFFF" d="M81,20.9l-16,0.6c-0.1,0,0,0.1,0,0l5.2-14.8l8.3-5.8l-2.9,12.7c0,0.1,0.1,0.2,0.2,0.3l13.6,1.2L81,20.9z"
				/>
		</g>
		<g>
			<path fill="#FFFFFF" d="M64.9,22.5c-0.5,0-1-0.5-1-1c0-0.2,0.1-0.4,0.2-0.6l5.1-14.6c0.1-0.2,0.2-0.3,0.4-0.5l8.3-5.8
				c0.3-0.2,0.7-0.2,1.1,0c0.3,0.2,0.5,0.6,0.4,1l-2.8,11.9l12.7,1.1c0.4,0,0.7,0.3,0.8,0.7c0.1,0.4,0,0.8-0.4,1l-8.3,5.8
				c-0.1,0.1-0.3,0.2-0.5,0.2l-15.8,0.6C65.1,22.5,65,22.5,64.9,22.5z M71,7.3l-4.7,13.2l14.4-0.6l5.9-4.1l-11-1
				c-0.7-0.1-1.2-0.7-1.1-1.3L77,3.1L71,7.3z"/>
		</g>
	</g>
</g>
</svg>
