<?xml version="1.0" encoding="utf-8"?>
<!-- Generator: Adobe Illustrator 18.0.0, SVG Export Plug-In . SVG Version: 6.00 Build 0)  -->
<!DOCTYPE svg PUBLIC "-//W3C//DTD SVG 1.1//EN" "http://www.w3.org/Graphics/SVG/1.1/DTD/svg11.dtd">
<svg version="1.1" id="Layer_1" xmlns="http://www.w3.org/2000/svg" xmlns:xlink="http://www.w3.org/1999/xlink" x="0px" y="0px"
	 viewBox="0 0 112 65.2" enable-background="new 0 0 112 65.2" xml:space="preserve">
<g>
	<g>
		<g>
			<g>
				<g opacity="0.2">
					<g>
						<path fill="#FFFFFF" d="M1,64.2c0,0,0-0.1,0-1.9c0-1.8,2.2-4.4,9.2-7c7-2.7,9.1-4.8,9-9.3c0-2.8-2-1.9-3.1-6.8
							c-0.4-2.1-2.3-0.1-2.6-4.8c0-0.4,0-0.9,0-1.4c0-0.5,0.1-0.6,0.4-1c0.4-0.8,0.3-2,0.2-2.8c0,0,0,0-0.2-2.1
							c-0.2-2.7,1.5-9.6,11.1-9.7c9.7-0.1,11.5,6.8,11.2,9.5C35.9,29,35.9,29,35.9,29c-0.1,0.7-0.2,1.4-0.1,2.1
							c0,0.3,0.1,0.5,0.2,0.7c0.2,0.4,0.3,0.5,0.4,0.9c0,0.5,0,0.9,0,1.4c-0.3,4.7-2.2,2.7-2.5,4.9c-0.9,5-3,4.1-3,6.9
							c0,4.5,2.3,6.6,9.2,9.1c7,2.4,9.5,5,9.6,6.8c0.1,2.9,0,2.4,0,2.4H1z"/>
					</g>
				</g>
				<g>
					<path fill="#FFFFFF" d="M49.7,65.2c-0.1,0-0.2,0-0.3,0H1c-0.5,0-0.9-0.4-0.9-0.9c0,0,0-0.2,0-1.9c0-1.6,1.2-4.7,9.8-7.8
						c7.2-2.8,8.4-4.8,8.4-8.4c0-1-0.3-1.2-0.8-1.9c-0.7-0.8-1.7-1.9-2.3-4.8c-0.1-0.4-0.1-0.4-0.5-0.6c-1-0.5-1.9-1.2-2.2-4.3
						c0-0.4,0-0.9,0-1.3l0-0.2c0-0.6,0.2-0.9,0.3-1.2c0-0.1,0.1-0.1,0.1-0.2c0.1-0.3,0.3-0.9,0.1-2.2l-0.3-2.2
						c-0.2-1.8,0.4-4.7,2.5-7.1c2.2-2.4,5.3-3.6,9.5-3.7l0.2,0c5.2,0,8.1,2,9.6,3.7c1.9,2.2,2.6,5,2.4,6.9l-0.1,2.1c0,0,0,0.1,0,0.1
						c-0.1,0.7-0.2,1.3-0.1,1.8c0,0.2,0.1,0.3,0.1,0.5c0,0.1,0.1,0.2,0.1,0.2c0.1,0.2,0.3,0.5,0.3,1.1c0,0.5,0,1,0,1.5
						c-0.2,3.1-1.1,3.9-2.1,4.4c-0.4,0.2-0.4,0.2-0.4,0.6c-0.5,3-1.5,4.1-2.2,4.9c-0.5,0.6-0.8,0.9-0.8,1.8c0,4,2,5.8,8.6,8.3
						c6.5,2.2,10.1,4.9,10.2,7.6c0.1,2.8,0.1,2.8-0.2,3.1C50.2,65.1,49.9,65.2,49.7,65.2z M1.9,63.3h46.8c0-0.3,0-0.8,0-1.4
						c0-1.3-2.4-3.7-8.9-5.9c-6.5-2.4-9.8-4.6-9.8-10c0-1.6,0.6-2.4,1.2-3.1c0.6-0.7,1.3-1.5,1.8-4c0.2-1.3,0.9-1.7,1.4-1.9
						c0.5-0.2,1-0.5,1.1-2.8c0-0.4,0-0.9,0-1.3c0-0.1,0-0.1-0.1-0.2c-0.1-0.1-0.1-0.2-0.2-0.3c-0.2-0.4-0.2-0.7-0.3-1
						c-0.1-0.7-0.1-1.5,0.1-2.4l0.1-2.1c0.1-1.1-0.1-3.5-1.9-5.5c-1.8-2-4.5-3-8.2-3l-0.2,0c-3.6,0-6.3,1.1-8.1,3
						c-1.8,2-2.1,4.5-2,5.6l0.2,2.1c0.2,0.9,0.3,2.3-0.3,3.3c-0.1,0.1-0.1,0.2-0.2,0.3c0,0-0.1,0.1-0.1,0.1l0,0c0,0,0,0,0,0.1l0,0.2
						c0,0.4,0,0.7,0,1.1c0.2,2.3,0.7,2.6,1.2,2.8c0.5,0.2,1.3,0.6,1.5,1.9c0.5,2.4,1.2,3.2,1.9,3.9c0.6,0.7,1.2,1.4,1.3,3.1
						c0,4.9-2.3,7.4-9.6,10.2c-8.2,3-8.6,5.6-8.6,6.1C1.9,62.7,1.9,63.1,1.9,63.3z"/>
				</g>
			</g>
		</g>
	</g>
	<g>
		<g>
			<g>
				<g opacity="0.2">
					<g>
						<path fill="#FFFFFF" d="M72.8,24.5c0,0,0,0,0-0.7c0-0.7,0.9-1.7,3.5-2.7c2.7-1,3.5-1.8,3.5-3.6c0-1.1-0.8-0.7-1.2-2.6
							c-0.1-0.8-0.9,0-1-1.8c0-0.2,0-0.4,0-0.5c0-0.2,0.1-0.2,0.1-0.4c0.2-0.3,0.1-0.8,0.1-1.1c0,0,0,0-0.1-0.8
							c-0.1-1,0.6-3.7,4.2-3.7c3.7,0,4.4,2.6,4.3,3.6c0,0.8,0,0.8,0,0.8c-0.1,0.3-0.1,0.5,0,0.8c0,0.1,0,0.2,0.1,0.3
							c0.1,0.2,0.1,0.2,0.1,0.4c0,0.2,0,0.4,0,0.5c-0.1,1.8-0.9,1-1,1.9c-0.3,1.9-1.2,1.6-1.1,2.6c0,1.7,0.9,2.5,3.5,3.5
							c2.7,0.9,3.7,1.9,3.7,2.6c0,1.1,0,0.9,0,0.9H72.8z"/>
					</g>
				</g>
				<g>
					<path fill="#FFFFFF" d="M91.5,25c0,0-0.1,0-0.1,0H72.8c-0.2,0-0.4-0.2-0.5-0.4l0-0.7c0-0.8,0.6-1.9,3.8-3.1
						c2.7-1,3.2-1.8,3.2-3.1c0-0.3-0.1-0.4-0.3-0.7c-0.3-0.3-0.7-0.8-0.9-1.9c0-0.1,0-0.1,0-0.1c0,0-0.1,0-0.1-0.1
						c-0.4-0.2-0.8-0.5-0.9-1.7c0-0.2,0-0.3,0-0.5c0-0.3,0.1-0.4,0.1-0.6c0.1-0.2,0.1-0.4,0.1-0.9l-0.1-0.8c-0.1-0.7,0.2-1.9,1-2.8
						c0.8-0.9,2.1-1.4,3.7-1.4h0c2.1,0,3.2,0.8,3.8,1.4c0.8,0.9,1,2,0.9,2.7l0,0.8c-0.1,0.3-0.1,0.5,0,0.7c0,0,0,0.1,0,0.1
						c0.1,0.2,0.2,0.3,0.2,0.5c0,0.2,0,0.4,0,0.6c-0.1,1.2-0.5,1.5-0.9,1.8c0,0-0.1,0-0.1,0.1l0,0c0,0,0,0,0,0.1
						c-0.2,1.2-0.6,1.6-0.9,1.9c-0.2,0.2-0.3,0.3-0.3,0.6c0,1.3,0.5,2.1,3.2,3.1c2.5,0.9,3.9,1.9,4,3c0,1.1,0,1.1-0.1,1.2
						C91.7,24.9,91.6,25,91.5,25z M73.2,24H91c0-0.1,0-0.2,0-0.4c0-0.4-0.7-1.3-3.4-2.2c-2.5-0.9-3.8-1.8-3.8-3.9
						c0-0.7,0.3-1,0.5-1.2c0.2-0.3,0.5-0.6,0.7-1.5c0.1-0.5,0.4-0.7,0.6-0.8c0.2-0.1,0.3-0.2,0.4-1c0-0.2,0-0.3,0-0.5l-0.1-0.2
						c-0.1-0.1-0.1-0.3-0.1-0.4c0-0.3,0-0.6,0-1l0-0.8c0-0.4-0.1-1.3-0.7-2C84.4,7.4,83.4,7,82,7c-1.4,0-2.4,0.4-3.1,1.1
						c-0.7,0.8-0.8,1.7-0.8,2.1l0.1,0.8c0.1,0.4,0.1,0.9-0.1,1.3L78,12.5c0,0,0,0.1,0,0.1c0,0.1,0,0.3,0,0.4c0.1,0.8,0.2,0.9,0.4,1
						c0.2,0.1,0.5,0.3,0.6,0.8c0.2,0.9,0.5,1.2,0.7,1.5c0.2,0.3,0.5,0.6,0.5,1.2c0,2.2-1.3,3-3.8,4c-3.2,1.2-3.2,2.1-3.2,2.2
						L73.2,24z"/>
				</g>
			</g>
		</g>
	</g>
	<g>
		<g>
			<g>
				<path fill="#FFFFFF" d="M110.1,42.4H54.4c-1,0-1.9-0.9-1.9-1.9V1.9c0-1,0.9-1.9,1.9-1.9h55.8c1,0,1.9,0.9,1.9,1.9v38.7
					C112,41.6,111.2,42.4,110.1,42.4z M54.4,1.9l0,38.7l55.8,0c0,0,0,0,0,0V1.9L54.4,1.9z"/>
			</g>
			<g>
				<g opacity="0.2">
					<path fill="#FFFFFF" d="M92.8,48.2h1.8V50H69.9v-1.8h1.8c2.6-2.5,2.7-4.9,3-6.7l15.1,0C90.1,43.3,90.3,45.6,92.8,48.2z"/>
				</g>
				<g>
					<path fill="#FFFFFF" d="M94.6,50.9H69.9c-0.5,0-0.9-0.4-0.9-0.9v-1.8c0-0.5,0.4-0.9,0.9-0.9h1.4c1.9-2,2.1-3.8,2.4-5.4l0.1-0.5
						c0.1-0.5,0.5-0.8,0.9-0.8c0,0,0,0,0,0l15.1,0c0.5,0,0.9,0.3,0.9,0.8l0.1,0.5c0.2,1.6,0.5,3.4,2.4,5.3h1.4
						c0.5,0,0.9,0.4,0.9,0.9V50C95.5,50.5,95.1,50.9,94.6,50.9z M72.1,49h20.3c-0.1,0-0.2-0.1-0.3-0.2c-2.4-2.4-2.8-4.6-3.1-6.4
						l-13.5,0c-0.3,1.7-0.7,4-3.1,6.4C72.3,48.9,72.2,49,72.1,49z"/>
				</g>
			</g>
			<g>
				<path fill="#FFFFFF" d="M110.1,42.4H54.4c-1,0-1.9-0.9-1.9-1.9V1.9c0-1,0.9-1.9,1.9-1.9h55.8c1,0,1.9,0.9,1.9,1.9v38.7
					C112,41.6,111.2,42.4,110.1,42.4z M54.4,1.9l0,38.7l55.8,0c0,0,0,0,0,0V1.9L54.4,1.9z"/>
			</g>
			<g>
				<rect x="53.4" y="29" fill="#FFFFFF" width="58.2" height="1.9"/>
			</g>
			<g opacity="0.2">
				<g>
					<path fill="#FFFFFF" d="M111.1,29.9l-57.7,0v10.6c0,0.5,0.4,1,1,1h55.8c0.5,0,1-0.4,1-1L111.1,29.9z"/>
				</g>
			</g>
			<g>
				<path fill="none" stroke="#FFFFFF" stroke-width="1.8855" stroke-linejoin="round" stroke-miterlimit="10" d="M92.8,48.2"/>
			</g>
			<g>
				<path fill="none" stroke="#FFFFFF" stroke-width="1.8855" stroke-linejoin="round" stroke-miterlimit="10" d="M89.8,41.5"/>
			</g>
		</g>
	</g>
</g>
</svg>
