<?xml version="1.0" encoding="utf-8"?>
<!-- Generator: Adobe Illustrator 18.0.0, SVG Export Plug-In . SVG Version: 6.00 Build 0)  -->
<!DOCTYPE svg PUBLIC "-//W3C//DTD SVG 1.1//EN" "http://www.w3.org/Graphics/SVG/1.1/DTD/svg11.dtd">
<svg version="1.1" id="Layer_1" xmlns="http://www.w3.org/2000/svg" xmlns:xlink="http://www.w3.org/1999/xlink" x="0px" y="0px"
	 viewBox="0 0 53.9 51.4" enable-background="new 0 0 53.9 51.4" xml:space="preserve">
<g>
	<path fill="#6B7482" d="M43.9,51.4c-0.9,0-1.8-0.4-2.5-1.1c-0.9-1-1.4-2.4-1.4-3.9l0.8-28.2c0.1-2.1,0-5.6-0.2-7.8c0,0-0.1,0-0.2,0
		c-2.3-0.2-3.4,1.6-4.6,3.6c-0.1,0.2-0.6,0.9-1.3,0.9c-0.9,0-1.4-0.9-1.4-2.6c-0.4-2.2,1.2-5,2.7-6.8c1.9-2.2,4-3.4,5.8-3.3
		c0.7-0.7,1.5-1.1,2.4-1.1c1,0,1.7,0.3,2.3,0.9h1c0.3-0.4,0.9-0.7,1.7-0.7h3c0.9,0,2,0.7,2,1.8v6.3c0,1-1,1.8-2,1.8h-3
		c-0.8,0-1.4-0.6-1.7-1.3l0,0.2c-0.2,2.2-0.3,5.9-0.2,8.1l0.8,28.2c0,1.5-0.5,3-1.4,3.9C45.6,51,44.8,51.4,43.9,51.4z M39.9,8.4
		c0.2,0,0.4,0,0.6,0c1.6,0.2,1.8,1.2,1.9,1.6c0.2,2.3,0.3,5.9,0.2,8.2l-0.8,28.2c0,1,0.3,2,0.9,2.5c0.2,0.2,0.6,0.5,1.1,0.5
		c0.5,0,0.9-0.3,1.1-0.5c0.6-0.6,0.9-1.5,0.9-2.5l-0.8-28.2c-0.1-2.3,0-6,0.2-8.3l0.1-1.1c0-0.5,0.4-0.9,0.9-0.9h1.6
		c0.5,0,0.9,0.4,0.9,0.9c0,0.2,0.1,0.3,0.1,0.4h2.9c0,0,0,0,0.1,0V3.2c0,0-0.1,0-0.1,0h-3c0,0-0.1,0-0.1,0c-0.1,0.4-0.5,0.7-0.9,0.7
		h-2.1c-0.3,0-0.6-0.1-0.8-0.4C44.7,3.1,44.4,3,43.9,3c-0.6,0-1,0.5-1.2,0.8c-0.2,0.3-0.6,0.5-1,0.4c-1.2-0.3-3,0.8-4.6,2.6
		c-1.5,1.8-2.4,3.9-2.3,5.2C36,10.1,37.4,8.4,39.9,8.4z"/>
</g>
<g>
	<path fill="none" stroke="#6B7482" stroke-width="1.8855" stroke-linejoin="round" stroke-miterlimit="10" d="M34.5,13.5"/>
</g>
<g>
	<path fill="#6B7482" d="M9.5,51.2H7.8c-4.2,0-5.4-3.2-5.4-4.9L4,16.9c-2.5-1.6-4-4.5-4-7.9c0-3.6,2.2-6.6,4.5-8
		c0.3-0.2,0.7-0.2,1,0c0.3,0.2,0.5,0.5,0.5,0.8V6h5.4V1.9c0-0.3,0.2-0.7,0.5-0.8s0.7-0.2,1,0c2.2,1.4,4.5,4.4,4.5,8
		c0,3.3-1.5,6.3-4,7.8l1.6,29.3C14.8,48,13.7,51.2,9.5,51.2z M4,3.9C2.8,5.2,1.9,7,1.9,9.1c0,2.9,1.4,5.4,3.5,6.5
		c0.3,0.2,0.5,0.5,0.5,0.9L4.3,46.3c0,0.2,0.2,3,3.5,3h1.7c3.4,0,3.5-2.7,3.5-3l-1.6-29.8c0-0.4,0.2-0.7,0.5-0.9
		c2.2-1.1,3.5-3.6,3.5-6.5c0-2.1-1-3.9-2.1-5.2v2.4c0,0.8-0.9,1.6-1.7,1.6H5.7C5,7.9,4,7.1,4,6.3V3.9z"/>
</g>
<g>
	<path fill="#E7E9EB" d="M31.6,28.3v-1c0-1.1-1.3-1.7-2.5-1.7h-0.8V9.2l1-3.1l-2.3-5.1h-1.1l-2.4,5.1l0.8,3.1v16.4h-0.6
		c-1.2,0-2.1,0.6-2.1,1.7v1c0,0.7,0.4,1.3,1,1.7l-0.9,18.3c-0.1,1.1,0.9,1.9,2,1.9h5.4c1.2,0,2.1-0.8,2.1-1.9L30.4,30
		C31,29.6,31.6,29,31.6,28.3z"/>
	<path fill="#6B7482" d="M29.1,51.2h-5.4c-0.9,0-1.7-0.3-2.3-0.9c-0.5-0.5-0.8-1.2-0.7-2l0.9-17.8c-0.6-0.5-1-1.3-1-2.2v-1
		c0-1.5,1.1-2.5,2.7-2.6V9.3l-0.8-3c-0.1-0.2,0-0.4,0.1-0.6L25,0.5C25.2,0.2,25.5,0,25.9,0h1.1c0.4,0,0.7,0.2,0.9,0.6l2.3,5.1
		c0.1,0.2,0.1,0.4,0,0.7l-0.9,3v15.4c1.6,0,3.3,1,3.3,2.6v1c0,0.8-0.4,1.6-1.2,2.1l0.7,17.9c0,0.7-0.2,1.4-0.7,2
		C30.8,50.9,30,51.2,29.1,51.2z M23.7,26.5c-0.5,0-1.1,0.1-1.1,0.7v1c0,0.4,0.2,0.7,0.5,0.9c0.3,0.2,0.5,0.5,0.5,0.9l-0.9,18.3
		c0,0.2,0.1,0.4,0.2,0.6c0.2,0.2,0.5,0.3,0.9,0.3h5.4c0.4,0,0.7-0.1,0.9-0.3c0.2-0.2,0.2-0.4,0.2-0.6L29.5,30c0-0.3,0.2-0.7,0.5-0.9
		c0.4-0.3,0.7-0.6,0.7-0.8v-1c0-0.4-0.8-0.7-1.6-0.7h-0.8c-0.5,0-0.9-0.4-0.9-0.9V9.2c0-0.1,0-0.2,0-0.3l0.8-2.8L26.4,2l-1.9,4.1
		l0.7,2.8c0,0.1,0,0.2,0,0.2v16.4c0,0.5-0.4,0.9-0.9,0.9H23.7z"/>
</g>
</svg>
