<?xml version="1.0" encoding="utf-8"?>
<!-- Generator: Adobe Illustrator 18.0.0, SVG Export Plug-In . SVG Version: 6.00 Build 0)  -->
<!DOCTYPE svg PUBLIC "-//W3C//DTD SVG 1.1//EN" "http://www.w3.org/Graphics/SVG/1.1/DTD/svg11.dtd">
<svg version="1.1" id="Layer_1" xmlns="http://www.w3.org/2000/svg" xmlns:xlink="http://www.w3.org/1999/xlink" x="0px" y="0px"
	 viewBox="0 198.2 747.2 198.8" enable-background="new 0 198.2 747.2 198.8" xml:space="preserve">
<g>
	<g>
		<path fill="#6B7482" d="M153.9,360.9c-90.2,0-152.2-61-153-61.5c-0.7-0.7-1-1.5-1-2.5c0-1,0.5-2,1-2.5c0.7-0.5,63.2-61.7,153-61.7
			c39.4,0,67.4,9.2,82.8,27.3c0.7,1,1,2.2,0.7,3.5c-3.2,9.4-5,21.3-5,33.5c0,12.1,1.7,24,5,33.5c0.5,1.2,0.2,2.5-0.7,3.5
			C221.4,351.7,193.4,360.9,153.9,360.9z M8.9,296.6c12.6,11.4,68.4,57,145,57c35.7,0,62-8.2,76.1-23.3c-3-9.9-4.7-21.3-4.7-33.7
			c0-12.1,1.7-23.8,4.7-33.7c-14.1-15.4-40.4-23.3-76.1-23.3C77.6,239.6,21.6,285.5,8.9,296.6z"/>
	</g>
	<g>
		<path fill="#6B7482" d="M245.7,317.5c-1.7,0-3.2-1.2-3.5-3c-0.7-5.7-1.2-11.7-1.2-17.6c0-5.9,0.5-11.9,1.2-17.6c0.2-2,2-3.2,4-3
			c32.7,3.5,53.8,17.1,54.8,17.8c1,0.7,1.5,1.7,1.5,3s-0.5,2.2-1.7,3c-1,0.5-22.1,14.4-54.8,17.8
			C245.9,317.5,245.7,317.5,245.7,317.5z M248.9,283.5c-0.5,4.2-0.7,8.7-0.7,13.1s0.2,8.9,0.7,13.1c20.1-2.7,35.2-9.2,42.9-13.1
			C284.1,292.9,268.7,286.2,248.9,283.5z"/>
	</g>
	<g>
		<path fill="#6B7482" d="M164.6,322.2c-6.9,0-13.1-2.7-18.1-7.4c-9.9-9.9-9.9-26,0-36.2c4.7-4.7,11.2-7.4,18.1-7.4
			c6.9,0,13.1,2.7,18.1,7.4c4.7,4.7,7.4,11.2,7.4,18.1s-2.7,13.1-7.4,18.1C178,319.7,171.6,322.2,164.6,322.2z M164.6,278.3
			c-5,0-9.4,2-12.9,5.5c-7.2,7.2-7.2,18.8,0,26c3.5,3.5,8.2,5.5,12.9,5.5c5,0,9.4-2,12.9-5.5c3.5-3.5,5.5-8.2,5.5-12.9
			c0-4.7-2-9.4-5.5-12.9S169.6,278.3,164.6,278.3z"/>
	</g>
	<g>
		<g>
			<circle fill="#6B7482" cx="135.4" cy="296.6" r="2.5"/>
			<path fill="#6B7482" d="M135.4,300.6c-1,0-2-0.5-2.7-1s-1-1.7-1-2.7c0-1,0.5-2,1-2.7c1.5-1.5,4-1.5,5.5,0c0.7,0.7,1,1.7,1,2.7
				c0,1-0.5,2-1,2.7C137.6,300.4,136.3,300.6,135.4,300.6z M135.4,295.4c-0.2,0-0.7,0.2-1,0.5c-0.2,0.2-0.5,0.5-0.5,1
				c0,0.2,0.2,0.7,0.5,1c0.5,0.5,1.5,0.5,2,0c0.2-0.2,0.5-0.5,0.5-1c0-0.2-0.2-0.7-0.5-1C136.1,295.7,135.9,295.4,135.4,295.4z"/>
		</g>
		<g>
			<circle fill="#6B7482" cx="193.9" cy="296.6" r="2.5"/>
			<path fill="#6B7482" d="M193.9,300.6c-1,0-2-0.5-2.7-1c-1.5-1.5-1.5-4,0-5.5c1.5-1.5,4-1.5,5.5,0c0.7,0.7,1,1.7,1,2.7
				c0,1-0.5,2-1,2.7C195.8,300.1,194.9,300.6,193.9,300.6z M193.9,295.4c-0.2,0-0.7,0.2-1,0.5c-0.5,0.5-0.5,1.2,0,2
				c0.5,0.5,1.5,0.5,2,0c0.2-0.2,0.5-0.5,0.5-1c0-0.2-0.2-0.7-0.5-1C194.6,295.7,194.4,295.4,193.9,295.4z"/>
		</g>
		<g>
			<circle fill="#6B7482" cx="164.6" cy="267.4" r="2.5"/>
			<path fill="#6B7482" d="M164.6,271.4c-1,0-2-0.5-2.7-1c-0.7-0.5-1-1.7-1-2.7s0.5-2,1-2.7c1.5-1.5,4-1.5,5.5,0
				c0.7,0.7,1,1.7,1,2.7s-0.5,2-1,2.7C166.6,270.9,165.6,271.4,164.6,271.4z M164.6,266.2c-0.2,0-0.7,0.2-1,0.5
				c-0.5,0.5-0.5,1.2,0,2c0.5,0.5,1.5,0.5,2,0c0.2-0.2,0.5-0.5,0.5-1s-0.2-0.7-0.5-1C165.4,266.4,165.1,266.2,164.6,266.2z"/>
		</g>
		<g>
			<path fill="#6B7482" d="M167.3,325.9c0,1.5-1.2,2.5-2.5,2.5c-1.5,0-2.5-1.2-2.5-2.5c0-1.5,1.2-2.5,2.5-2.5
				S167.3,324.7,167.3,325.9z"/>
			<path fill="#6B7482" d="M164.6,329.9c-2,0-3.7-1.7-3.7-3.7s1.7-3.7,3.7-3.7s3.7,1.7,3.7,3.7S166.8,329.9,164.6,329.9z
				 M164.6,324.7c-0.7,0-1.2,0.5-1.2,1.2s0.5,1.2,1.2,1.2s1.2-0.5,1.2-1.2S165.4,324.7,164.6,324.7z"/>
		</g>
		<g>
			<path fill="#6B7482" d="M142.3,315.7c1-1,2.7-1,3.7,0s1,2.7,0,3.7c-1,1-2.7,1-3.7,0C141.1,318.2,141.1,316.7,142.3,315.7z"/>
			<path fill="#6B7482" d="M144,321.2c-1,0-2-0.5-2.7-1c-0.7-0.7-1-1.7-1-2.7c0-1,0.5-2,1-2.7c1.5-1.5,4-1.5,5.5,0
				c0.7,0.7,1,1.7,1,2.7c0,1-0.5,2-1,2.7C146,320.9,145,321.2,144,321.2z M144,316.2c-0.2,0-0.7,0.2-1,0.5c-0.5,0.5-0.5,1.2,0,2
				c0.5,0.5,1.5,0.5,2,0c0.2-0.2,0.5-0.5,0.5-1c0-0.5-0.2-0.7-0.5-1C144.8,316.2,144.3,316.2,144,316.2z"/>
		</g>
		<g>
			<circle fill="#6B7482" cx="185.4" cy="276.1" r="2.5"/>
			<path fill="#6B7482" d="M185.4,279.8c-1,0-2-0.5-2.7-1c-0.7-0.7-1-1.7-1-2.7c0-1,0.5-2,1-2.7c1.5-1.5,4-1.5,5.5,0
				c0.7,0.7,1,1.7,1,2.7c0,1-0.5,2-1,2.7C187.7,279.5,186.4,279.8,185.4,279.8z M185.4,274.8c-0.2,0-0.7,0.2-1,0.5
				c-0.2,0.2-0.5,0.5-0.5,1s0.2,0.7,0.5,1c0.5,0.5,1.5,0.5,2,0c0.5-0.5,0.5-1.2,0-2C186.2,274.8,185.7,274.8,185.4,274.8z"/>
		</g>
		<g>
			<circle fill="#6B7482" cx="144" cy="276.1" r="2.5"/>
			<path fill="#6B7482" d="M144,279.8c-1,0-2-0.5-2.7-1c-0.7-0.7-1-1.7-1-2.7c0-1,0.5-2,1-2.7c1.5-1.5,4-1.5,5.5,0
				c0.7,0.7,1,1.7,1,2.7c0,1-0.5,2-1,2.7C146,279.5,145,279.8,144,279.8z M144,274.8c-0.2,0-0.7,0.2-1,0.5c-0.5,0.5-0.5,1.2,0,2
				c0.5,0.5,1.5,0.5,2,0c0.5-0.5,0.5-1.2,0-2C144.8,274.8,144.3,274.8,144,274.8z"/>
		</g>
		<g>
			<circle fill="#6B7482" cx="185.4" cy="317.5" r="2.5"/>
			<path fill="#6B7482" d="M185.4,321.2c-1,0-2-0.5-2.7-1c-0.7-0.5-1-1.7-1-2.7c0-1,0.5-2,1-2.7c1.5-1.5,4-1.5,5.5,0
				c0.7,0.7,1,1.7,1,2.7c0,1-0.5,2-1,2.7C187.7,320.9,186.4,321.2,185.4,321.2z M185.4,316.2c-0.2,0-0.7,0.2-1,0.5
				c-0.2,0.2-0.5,0.5-0.5,1s0.2,0.7,0.5,1c0.5,0.5,1.5,0.5,2,0c0.5-0.5,0.5-1.2,0-2C186.2,316.2,185.7,316.2,185.4,316.2z"/>
		</g>
		<g>
			<circle fill="#6B7482" cx="137.6" cy="308.1" r="2.5"/>
			<path fill="#6B7482" d="M137.6,311.8c-1,0-2-0.5-2.7-1c-0.7-0.5-1-1.7-1-2.7c0-1,0.5-2,1-2.7c1.5-1.5,4-1.5,5.5,0
				c0.7,0.7,1,1.7,1,2.7c0,1-0.5,2-1,2.7C139.6,311.3,138.6,311.8,137.6,311.8z M137.6,306.6c-0.2,0-0.7,0.2-1,0.5
				c-0.5,0.5-0.5,1.2,0,2c0.5,0.5,1.5,0.5,2,0c0.5-0.5,0.5-1.2,0-2C138.3,306.8,138.1,306.6,137.6,306.6z"/>
		</g>
		<g>
			<path fill="#6B7482" d="M190.6,283.3c1.2-0.5,2.7,0,3.2,1.5c0.5,1.2,0,2.7-1.5,3.2c-1.2,0.5-2.7,0-3.2-1.5
				C188.9,285.2,189.4,283.8,190.6,283.3z"/>
			<path fill="#6B7482" d="M191.6,289.5c-1.5,0-3-1-3.5-2.2c-0.7-2,0-4.2,2-5s4.2,0.2,5,2c0.7,2,0,4.2-2,5
				C192.6,289.2,192.1,289.5,191.6,289.5z M191.6,284.3c-0.2,0-0.2,0-0.5,0c-0.7,0.2-1,1-0.7,1.7c0.2,0.7,1,1,1.7,0.7
				c0.7-0.2,1-1,0.7-1.7C192.6,284.5,192.4,284.3,191.6,284.3z"/>
		</g>
		<g>
			<circle fill="#6B7482" cx="153.5" cy="269.6" r="2.5"/>
			<path fill="#6B7482" d="M153.5,273.6c-1,0-2-0.5-2.7-1s-1-1.7-1-2.7c0-1,0.5-2,1-2.7c1.5-1.5,4-1.5,5.5,0c0.7,0.7,1,1.7,1,2.7
				c0,1-0.5,2-1,2.7C155.7,273.3,154.4,273.6,153.5,273.6z M153.5,268.4c-0.2,0-0.7,0.2-1,0.5c-0.5,0.5-0.5,1.2,0,2
				c0.5,0.5,1.5,0.5,2,0c0.5-0.5,0.5-1.2,0-2C154.2,268.6,153.9,268.4,153.5,268.4z"/>
		</g>
		<g>
			<circle fill="#6B7482" cx="175.8" cy="323.7" r="2.5"/>
			<path fill="#6B7482" d="M175.8,327.6c-1,0-2-0.5-2.7-1c-0.7-0.5-1-1.7-1-2.7c0-1,0.5-2,1-2.7c1.5-1.5,4-1.5,5.5,0
				c1.5,1.5,1.5,4,0,5.5C177.7,327.1,177,327.6,175.8,327.6z M175.8,322.4c-0.2,0-0.7,0.2-1,0.5c-0.2,0.2-0.5,0.5-0.5,1
				s0.2,0.7,0.5,1c0.5,0.5,1.5,0.5,2,0c0.5-0.5,0.5-1.2,0-2C176.5,322.7,176.3,322.4,175.8,322.4z"/>
		</g>
		<g>
			<circle fill="#6B7482" cx="153.5" cy="323.7" r="2.5"/>
			<path fill="#6B7482" d="M153.5,327.6c-1,0-2-0.5-2.7-1c-1.5-1.5-1.5-4,0-5.5c1.5-1.5,4-1.5,5.5,0c0.7,0.7,1,1.7,1,2.7
				c0,1-0.5,2-1,2.7C155.4,327.1,154.4,327.6,153.5,327.6z M153.5,322.4c-0.2,0-0.7,0.2-1,0.5c-0.5,0.5-0.5,1.2,0,2
				c0.5,0.5,1.5,0.5,2,0c0.5-0.5,0.5-1.2,0-2C154.2,322.7,153.9,322.4,153.5,322.4z"/>
		</g>
		<g>
			<circle fill="#6B7482" cx="175.8" cy="269.6" r="2.5"/>
			<path fill="#6B7482" d="M175.8,273.6c-1,0-2-0.5-2.7-1c-0.7-0.7-1-1.7-1-2.7c0-1,0.5-2,1-2.7c1.5-1.5,4-1.5,5.5,0
				c0.7,0.7,1,1.7,1,2.7c0,1-0.5,2-1,2.7C177.7,273.1,177,273.6,175.8,273.6z M175.8,268.4c-0.2,0-0.7,0.2-1,0.5
				c-0.2,0.2-0.5,0.5-0.5,1c0,0.5,0.2,0.7,0.5,1c0.5,0.5,1.5,0.5,2,0c0.2-0.2,0.5-0.5,0.5-1c0-0.5-0.2-0.7-0.5-1
				C176.5,268.6,176.3,268.4,175.8,268.4z"/>
		</g>
		<g>
			<circle fill="#6B7482" cx="137.6" cy="285.5" r="2.5"/>
			<path fill="#6B7482" d="M137.6,289.5c-1,0-2-0.5-2.7-1c-1.5-1.5-1.5-4,0-5.5c1.5-1.5,4-1.5,5.5,0c1.5,1.5,1.5,4,0,5.5
				C139.6,289,138.6,289.5,137.6,289.5z M137.6,284.3c-0.2,0-0.7,0.2-1,0.5c-0.5,0.5-0.5,1.2,0,2c0.5,0.5,1.5,0.5,2,0
				c0.5-0.5,0.5-1.2,0-2C138.3,284.3,138.1,284.3,137.6,284.3z"/>
		</g>
		<g>
			<circle fill="#6B7482" cx="191.6" cy="308.1" r="2.5"/>
			<path fill="#6B7482" d="M191.6,311.8c-1,0-2-0.5-2.7-1c-1.5-1.5-1.5-4,0-5.5c1.5-1.5,4-1.5,5.5,0c0.7,0.7,1,1.7,1,2.7
				s-0.5,2-1,2.7S192.6,311.8,191.6,311.8z M191.6,306.6c-0.2,0-0.7,0.2-1,0.5c-0.5,0.5-0.5,1.2,0,2c0.5,0.5,1.5,0.5,2,0
				c0.2-0.2,0.5-0.5,0.5-1c0-0.5-0.2-0.7-0.5-1C192.4,306.8,192.1,306.6,191.6,306.6z"/>
		</g>
	</g>
	<g>
		<path fill="#6B7482" d="M220.1,397.1c-43.4,0-70.4-35.2-70.9-35.7c-1.2-1.5-1-3.7,0.7-5c1.5-1.2,3.7-1,5,0.7
			c1.5,2,36.9,47.6,91.7,28.3c-9.2-6.9-26-22.8-24.3-44.1c0.2-2,1.7-3.5,3.7-3.2c2,0.2,3.5,2,3.2,3.7c-1.7,24.3,26.3,41.2,26.5,41.4
			c1.2,0.7,1.7,2,1.7,3.2s-1,2.5-2.2,3C242.9,394.8,231,397.1,220.1,397.1z"/>
	</g>
	<g>
		<path fill="#6B7482" d="M225.8,257.5c-1.7,0-3.5-1.5-3.5-3.2c-1.7-21.3,15.1-37.2,24.3-44.1c-55-19.3-91.2,27.8-91.7,28.3
			c-1.2,1.5-3.5,2-5,0.7c-1.5-1.2-2-3.5-0.7-5c0.5-0.7,42.9-55.8,106.4-28.3c1.2,0.5,2,1.7,2.2,3c0,1.2-0.5,2.7-1.7,3.2
			c-0.2,0.2-28.3,17.1-26.5,41.4c0.2,2-1.2,3.7-3.2,3.7C226.1,257.5,225.8,257.5,225.8,257.5z"/>
	</g>
	<g>
		<path fill="#6B7482" d="M91.7,316.5c-5.2,0-10.2-2-13.9-5.7c-7.7-7.7-7.7-20.3,0-28c3.7-3.7,8.7-5.7,13.9-5.7s10.2,2,13.9,5.7
			c7.7,7.7,7.7,20.3,0,28C101.9,314.5,96.9,316.5,91.7,316.5z M91.7,284.3c-3.5,0-6.4,1.2-8.9,3.7c-5,5-5,12.9,0,17.8
			c2.5,2.5,5.5,3.7,8.9,3.7s6.4-1.2,8.9-3.7c5-5,5-12.9,0-17.8C98.2,285.5,95.2,284.3,91.7,284.3z"/>
	</g>
	<g>
		<path fill="#6B7482" d="M571.7,344H265.5c-1.5,0-2.7-1.2-2.7-2.7c0-1.5,1.2-2.7,2.7-2.7h306.2c1.5,0,2.7,1.2,2.7,2.7
			C574.4,342.8,573.2,344,571.7,344z"/>
	</g>
	<g>
		<path fill="#6B7482" d="M744.2,297.1H315.3c-1.5,0-2.7-1.2-2.7-2.7s1.2-2.7,2.7-2.7h429.1c1.5,0,2.7,1.2,2.7,2.7
			S745.9,297.1,744.2,297.1z"/>
	</g>
	<g>
		<path fill="#6B7482" d="M618,253.5H250.9c-1.5,0-2.7-1.2-2.7-2.7s1.2-2.7,2.7-2.7H618c1.5,0,2.7,1.2,2.7,2.7
			S619.5,253.5,618,253.5z"/>
	</g>
	<g>
		<path fill="#6B7482" d="M709,275.1H298.7c-1.5,0-2.7-1.2-2.7-2.7c0-1.5,1.2-2.7,2.7-2.7h410c1.5,0,2.7,1.2,2.7,2.7
			C711.5,273.8,710.5,275.1,709,275.1z"/>
	</g>
	<g>
		<path fill="#6B7482" d="M659.4,321.4H298.7c-1.5,0-2.7-1.2-2.7-2.7c0-1.5,1.2-2.7,2.7-2.7h360.5c1.5,0,2.7,1.2,2.7,2.7
			C661.9,320.2,660.9,321.4,659.4,321.4z"/>
	</g>
</g>
</svg>
