<?xml version="1.0" encoding="utf-8"?>
<!-- Generator: Adobe Illustrator 18.0.0, SVG Export Plug-In . SVG Version: 6.00 Build 0)  -->
<!DOCTYPE svg PUBLIC "-//W3C//DTD SVG 1.1//EN" "http://www.w3.org/Graphics/SVG/1.1/DTD/svg11.dtd">
<svg version="1.1" id="Layer_1" xmlns="http://www.w3.org/2000/svg" xmlns:xlink="http://www.w3.org/1999/xlink" x="0px" y="0px"
	 viewBox="0 0 64.7 49.2" enable-background="new 0 0 64.7 49.2" xml:space="preserve">
<g>
	<path fill="#6B7482" d="M63.7,49.2H0.9c-0.5,0-0.9-0.4-0.9-0.9V5.8c0-0.5,0.4-0.9,0.9-0.9h62.8c0.5,0,0.9,0.4,0.9,0.9v42.4
		C64.7,48.8,64.3,49.2,63.7,49.2z M1.9,47.3h60.9V6.8H1.9V47.3z"/>
</g>
<g>
	<g>
		<rect x="7.4" y="11.3" fill="#E7E9EB" width="22.4" height="31.7"/>
		<path fill="#6B7482" d="M29.8,44H7.4c-0.5,0-0.9-0.4-0.9-0.9V11.3c0-0.5,0.4-0.9,0.9-0.9h22.4c0.5,0,0.9,0.4,0.9,0.9V43
			C30.7,43.5,30.3,44,29.8,44z M8.3,42.1h20.5V12.2H8.3V42.1z"/>
	</g>
	<g>
		<rect x="35.3" y="11.4" fill="#E7E9EB" width="22.4" height="4.2"/>
		<path fill="#6B7482" d="M57.7,16.5H35.3c-0.5,0-0.9-0.4-0.9-0.9v-4.2c0-0.5,0.4-0.9,0.9-0.9h22.4c0.5,0,0.9,0.4,0.9,0.9v4.2
			C58.7,16.1,58.3,16.5,57.7,16.5z M36.3,14.7h20.5v-2.3H36.3V14.7z"/>
	</g>
	<g>
		<rect x="35.3" y="20.1" fill="#E7E9EB" width="22.4" height="4.2"/>
		<path fill="#6B7482" d="M57.7,25.2H35.3c-0.5,0-0.9-0.4-0.9-0.9v-4.2c0-0.5,0.4-0.9,0.9-0.9h22.4c0.5,0,0.9,0.4,0.9,0.9v4.2
			C58.7,24.7,58.3,25.2,57.7,25.2z M36.3,23.3h20.5V21H36.3V23.3z"/>
	</g>
	<g>
		<rect x="35.3" y="28.7" fill="#E7E9EB" width="22.4" height="13.9"/>
		<path fill="#6B7482" d="M57.7,43.5H35.3c-0.5,0-0.9-0.4-0.9-0.9V28.7c0-0.5,0.4-0.9,0.9-0.9h22.4c0.5,0,0.9,0.4,0.9,0.9v13.9
			C58.7,43.1,58.3,43.5,57.7,43.5z M36.3,41.6h20.5v-12H36.3V41.6z"/>
	</g>
</g>
<g>
	<path fill="#E7E9EB" d="M63,5.8H1.7c-0.4,0-0.7-0.3-0.7-0.7V1.7c0-0.4,0.3-0.7,0.7-0.7H63c0.4,0,0.7,0.3,0.7,0.7v3.5
		C63.7,5.5,63.4,5.8,63,5.8z"/>
	<path fill="#6B7482" d="M63,6.8H1.7C0.7,6.8,0,6,0,5.1V1.7C0,0.7,0.7,0,1.7,0H63c0.9,0,1.7,0.7,1.7,1.7v3.5C64.7,6,63.9,6.8,63,6.8
		z M1.9,4.9h60.9v-3H1.9V4.9z"/>
</g>
</svg>
