<?xml version="1.0" encoding="utf-8"?>
<!-- Generator: Adobe Illustrator 18.0.0, SVG Export Plug-In . SVG Version: 6.00 Build 0)  -->
<!DOCTYPE svg PUBLIC "-//W3C//DTD SVG 1.1//EN" "http://www.w3.org/Graphics/SVG/1.1/DTD/svg11.dtd">
<svg version="1.1" id="Layer_1" xmlns="http://www.w3.org/2000/svg" xmlns:xlink="http://www.w3.org/1999/xlink" x="0px" y="0px"
	 viewBox="0 0 52.8 51" enable-background="new 0 0 52.8 51" xml:space="preserve">
<g>
	<g>
		<path fill="#E7E9EB" d="M6.9,29l-3.2,3.2C2,29.8,0.9,27,0.9,23.9c0-7.6,6.2-13.8,13.8-13.8h19.7l-6-6l3.2-3.1L43,12.3L31.7,23.6
			l-3.2-3.1l6-6H14.8c-5.2,0-9.4,4.2-9.4,9.4C5.4,25.8,6,27.5,6.9,29z"/>
		<path fill="#6B7482" d="M3.7,33.1C3.7,33.1,3.7,33.1,3.7,33.1c-0.3,0-0.6-0.2-0.8-0.4c-1.9-2.6-3-5.6-3-8.8
			C0,15.7,6.6,9.1,14.8,9.1h17.5l-4.4-4.4c-0.2-0.2-0.3-0.4-0.3-0.7c0-0.3,0.1-0.5,0.3-0.7L31,0.3c0.4-0.4,1-0.4,1.3,0l11.3,11.3
			c0.2,0.2,0.3,0.4,0.3,0.7s-0.1,0.5-0.3,0.7L32.4,24.3c-0.4,0.4-1,0.4-1.3,0l-3.2-3.1c-0.2-0.2-0.3-0.4-0.3-0.7
			c0-0.3,0.1-0.5,0.3-0.7l4.4-4.4H14.8c-4.6,0-8.4,3.8-8.4,8.4c0,1.6,0.5,3.2,1.4,4.6c0.2,0.4,0.2,0.9-0.1,1.2l-3.2,3.2
			C4.2,33,4,33.1,3.7,33.1z M14.8,11C7.7,11,1.9,16.8,1.9,23.9c0,2.4,0.7,4.8,2,6.8l1.9-1.9c-0.8-1.5-1.3-3.2-1.3-5
			c0-5.7,4.6-10.3,10.3-10.3h19.7c0.4,0,0.7,0.2,0.9,0.6c0.1,0.4,0.1,0.8-0.2,1l-5.3,5.3l1.8,1.8l10-10l-10-10l-1.8,1.8l5.3,5.3
			c0.3,0.3,0.4,0.7,0.2,1c-0.1,0.4-0.5,0.6-0.9,0.6H14.8z"/>
	</g>
</g>
<g>
	<path fill="#FFFFFF" d="M51.9,27.1c0,7.6-6.2,13.8-13.8,13.8H18.3l6,6L21.1,50L9.8,38.7l11.4-11.3l3.2,3.1l-6,6H38
		c5.2,0,9.4-4.2,9.4-9.4c0-1.9-0.6-3.6-1.5-5.1l3.2-3.2C50.8,21.1,51.9,24,51.9,27.1z"/>
	<path fill="#6B7482" d="M21.1,51c-0.2,0-0.5-0.1-0.7-0.3L9.1,39.3c-0.2-0.2-0.3-0.4-0.3-0.7c0-0.2,0.1-0.5,0.3-0.7l11.4-11.3
		c0.4-0.4,1-0.4,1.3,0l3.2,3.1c0.2,0.2,0.3,0.4,0.3,0.7S25.1,31,25,31.1l-4.4,4.4H38c4.6,0,8.4-3.8,8.4-8.4c0-1.6-0.5-3.2-1.4-4.6
		c-0.2-0.4-0.2-0.9,0.1-1.2l3.2-3.2c0.2-0.2,0.4-0.3,0.7-0.3c0.3,0,0.5,0.2,0.7,0.4c1.9,2.6,3,5.6,3,8.8c0,8.1-6.6,14.8-14.8,14.8
		H20.6l4.4,4.4c0.4,0.4,0.4,1,0,1.3l-3.2,3.2C21.6,50.9,21.4,51,21.1,51C21.1,51,21.1,51,21.1,51z M11.1,38.7l10,10l1.8-1.8
		l-5.3-5.3c-0.3-0.3-0.4-0.7-0.2-1s0.5-0.6,0.9-0.6H38c7.1,0,12.9-5.8,12.9-12.9c0-2.4-0.7-4.8-2-6.8l-1.9,1.9
		c0.8,1.5,1.3,3.2,1.3,4.9c0,5.7-4.6,10.3-10.3,10.3H18.3c-0.4,0-0.7-0.2-0.9-0.6c-0.1-0.4-0.1-0.8,0.2-1l5.3-5.3l-1.8-1.8
		L11.1,38.7z"/>
</g>
</svg>
