<?xml version="1.0" encoding="utf-8"?>
<!-- Generator: Adobe Illustrator 18.0.0, SVG Export Plug-In . SVG Version: 6.00 Build 0)  -->
<!DOCTYPE svg PUBLIC "-//W3C//DTD SVG 1.1//EN" "http://www.w3.org/Graphics/SVG/1.1/DTD/svg11.dtd">
<svg version="1.1" id="Layer_1" xmlns="http://www.w3.org/2000/svg" xmlns:xlink="http://www.w3.org/1999/xlink" x="0px" y="0px"
	 viewBox="0 0 63.5 53.6" enable-background="new 0 0 63.5 53.6" xml:space="preserve">
<path fill="#FFFFFF" fill-opacity="0.2" stroke="#FFFFFF" stroke-width="1.8855" stroke-linejoin="round" stroke-miterlimit="10" d="
	M62.2,40.8l-11.5-6.2c-0.9-0.6-2.1-0.3-2.7,0.4l-2.5,3.3l-1.4,1.9c-1.3,1.7-4,1.6-6.1,0l-21.5-16c-2.2-1.6-3.4-4.4-2.2-6.1l1.4-1.9
	l2.5-3.3c0.5-0.7,0.8-1.7,0-2.4L7.1,1.2c-2.2-1.7-4.9,5-5.4,6.3c-1.3,3.4-0.9,6.5,0.3,9.9c3.4,9.3,10.5,18.9,18.3,24.7
	c15.7,11.7,33.7,13.5,39,6.4l2.1-3.6C61.9,44.3,63.1,41.4,62.2,40.8z"/>
</svg>
